<svg xmlns="http://www.w3.org/2000/svg" width="256" height="256"><path fill-opacity=".016" d="M0 128.004v128.004l128.25-.254 128.25-.254.254-127.75L257.008 0H0v128.004m.485.496c0 70.4.119 99.053.265 63.672.146-35.38.146-92.98 0-128C.604 29.153.485 58.1.485 128.5" fill="#1976D2" fill-rule="evenodd"/><path fill-opacity=".422" d="M50.755 3.892c-2.61.384-5.288 1.241-5.95 1.903C44.142 6.458 42.975 7 42.211 7 40.678 7 33 13.9 33 15.277c0 .476-.675 1.541-1.5 2.366-.825.825-1.5 2.86-1.5 4.522 0 2.181-.557 3.168-2 3.545-1.982.519-2 1.364-2 96.407 0 76.901.252 95.883 1.271 95.883.7 0 4.242 2.137 7.873 4.75 3.631 2.612 7.612 5.425 8.847 6.25 4.394 2.935 15.307 10.583 22.85 16.014 10.868 7.824 13.087 9.149 14.187 8.469.601-.372.972-14.86.972-37.971 0-32.639.199-37.568 1.571-38.941.865-.864 2.067-1.571 2.671-1.571.605 0 4.061-1.388 7.679-3.085 14.936-7.003 16.676-7.78 18.829-8.401 1.237-.357 2.25-1.312 2.25-2.122 0-1.361-7.749-9.351-9.097-9.38-.328-.006-1.517-.799-2.64-1.762-1.124-.963-6.368-5.262-11.653-9.554L82 132.893v-20.947c0-20.758.281-22.461 3.292-19.931C88.26 94.508 95.934 100 96.451 100c.314 0 4.733 3.037 9.819 6.75 5.087 3.712 11.944 8.55 15.239 10.75 3.295 2.2 6.141 4.337 6.324 4.75.184.412.751.75 1.26.75s4.184 2.372 8.167 5.271c3.982 2.899 9.152 6.56 11.49 8.136 2.338 1.576 4.248 3.366 4.245 3.979-.003.613-4.841 3.589-10.75 6.614-5.91 3.025-10.97 5.725-11.245 6-.645.645-6.977 3.638-9.25 4.372-3.413 1.102-1.916 4.393 3.782 8.318 3.042 2.096 10.859 7.635 17.37 12.31 6.511 4.675 12.839 9.175 14.062 10a58.863 58.863 0 014.282 3.25c1.133.963 2.441 1.75 2.907 1.75 2.009 0 .563 1.684-2.903 3.383-2.062 1.01-4.425 2.24-5.25 2.733-.825.493-2.175 1.151-3 1.463-.825.311-2.175.986-3 1.5-.825.513-2.175 1.213-3 1.554-.825.342-5.55 2.544-10.5 4.895-4.95 2.351-13.604 6.457-19.232 9.123-5.628 2.667-10.24 5.394-10.25 6.06-.023 1.554-.685 1.024 20.982 16.789 10.175 7.403 19.044 13.919 19.708 14.48 1.56 1.317 12.292 1.334 12.292.02 0-.55.563-.999 1.25-.997 1.121.003 36.071-16.769 39.75-19.075.825-.518 2.175-1.195 3-1.507.825-.311 2.175-.984 3-1.496.825-.511 2.558-1.385 3.852-1.941 1.555-.669 2.148-1.543 1.75-2.58-.331-.862-.602-1.756-.602-1.986 0-.23-.472-.418-1.048-.418-.577 0-5.414-3.294-10.75-7.32-5.336-4.025-11.165-8.172-12.952-9.215-1.787-1.043-3.25-2.211-3.25-2.595 0-.384-2.137-2.029-4.75-3.656-5.59-3.481-9.26-6.596-9.224-7.831.014-.486 1.926-1.7 4.25-2.7 2.323-.999 4.899-2.239 5.724-2.756.825-.517 2.175-1.194 3-1.506.825-.311 2.175-.986 3-1.5.825-.513 2.175-1.207 3-1.541.825-.335 7.074-3.369 13.888-6.744 8.946-4.431 13.835-7.559 17.599-11.259 7.578-7.449 9.513-12.065 9.513-22.693 0-5.01-.415-8.684-.981-8.684-.539 0-1.284-1.237-1.654-2.75-.37-1.512-.945-2.975-1.278-3.25-.333-.275-1.782-2.3-3.22-4.5-3.268-5.001-7.69-9.462-16.357-16.5-3.726-3.025-7.277-5.967-7.892-6.537-.615-.57-6.743-5.496-13.618-10.946-6.875-5.45-12.725-10.179-13-10.509-.275-.331-3.249-2.695-6.608-5.254-3.359-2.559-7.184-5.567-8.5-6.684-1.316-1.118-6.442-5.176-11.392-9.019-4.95-3.844-9.45-7.357-10-7.808-.55-.451-5.725-4.385-11.5-8.743a3052.795 3052.795 0 01-11.5-8.703c-7.348-5.735-12.829-9.814-16.642-12.386-2.553-1.722-5.253-3.661-6-4.308-3.034-2.632-13.613-9.711-16.874-11.292-4.033-1.955-15.354-2.933-22.229-1.919" fill="#1976D2" fill-rule="evenodd"/><path fill-opacity=".517" d="M78.215 21.843c-2.593 1.963-5.165 4.086-5.715 4.717-.55.632-5.275 4.362-10.5 8.291-21.643 16.272-28.065 21.716-29.865 25.314-1.443 2.886-1.974 7.132-2.5 20-1.282 31.386-1.93 40.771-2.779 40.246-.471-.291-.856 20.873-.856 47.03s.337 47.561.75 47.564c.413.002 2.104 1.24 3.76 2.75 2.782 2.537 11.336 8.693 17.017 12.245 2.801 1.752 13.247 9.095 24.539 17.25 4.379 3.163 8.181 5.75 8.448 5.75.267 0 .486-16.838.486-37.418s.273-38.13.607-39c.334-.87 1.008-1.582 1.497-1.582.828 0 5.325-1.982 20.396-8.991 3.3-1.534 6.787-3.05 7.75-3.368 2.779-.918 2.052-3.177-2-6.219-2.062-1.549-3.975-3.077-4.25-3.395-.275-.318-2.525-2.138-5-4.044-7.421-5.715-8.332-6.443-14.889-11.911L81 133.644v-21.353c0-17.334.262-21.454 1.394-21.889.766-.294 4.479 1.597 8.25 4.203 3.771 2.606 9.781 6.749 13.356 9.207 13.033 8.964 15.509 10.698 16 11.205.275.285 4.325 3.068 9 6.185 18.468 12.315 25.513 17.512 25.808 19.039.201 1.047-1.347 2.446-4.5 4.066a9573.763 9573.763 0 01-16.989 8.68c-7.91 4.033-12.008 6.66-11.688 7.494.271.706 4.522 4.149 9.447 7.651a3615.53 3615.53 0 0118.688 13.405c5.354 3.87 11.422 8.07 13.484 9.332 2.063 1.262 3.75 2.678 3.75 3.147C167 195.15 112.441 222 110.137 222c-2.37 0-.992 3.006 2.612 5.699 2.062 1.541 4.2 3.16 4.75 3.598.551.439 6.851 5.035 14.001 10.214 7.15 5.178 13.45 9.792 14 10.253.55.46 1.787 1.138 2.75 1.505.963.368 1.75 1.132 1.75 1.7 0 .567 1.8 1.031 4 1.031s4-.464 4-1.031c0-.568.787-1.294 1.75-1.614 3.754-1.249 51.187-24.894 51.217-25.532.018-.373-7.055-5.879-15.717-12.236-8.663-6.357-16.504-12.128-17.425-12.823A104.366 104.366 0 00173.91 200c-3.206-2.147-5.91-4.851-5.91-5.911 0-.501 2.137-1.91 4.75-3.131 2.613-1.222 13.075-6.295 23.25-11.275 15.664-7.666 19.369-9.92 24.168-14.706 3.921-3.911 6.013-6.935 6.788-9.815.617-2.289 1.554-4.162 2.083-4.162 1.537 0 1.066-10.277-.571-12.441-.807-1.068-1.468-2.791-1.468-3.831 0-6.449-15.689-22.243-44.375-44.672-6.43-5.028-22.198-17.601-24.125-19.238-3.587-3.047-14.641-11.527-34.5-26.466-10.725-8.068-19.65-15.048-19.833-15.51-.184-.463-.78-.842-1.326-.842s-3.675-2.064-6.953-4.586c-7.907-6.084-11.312-6.387-17.673-1.571" fill="#1976D2" fill-rule="evenodd"/><path fill-opacity=".4" d="M115.25 45.22c-1.237.597-2.25 1.467-2.25 1.933 0 .466-.689.847-1.531.847-.843 0-1.791.675-2.107 1.5-.317.825-1.163 1.5-1.88 1.5-.717 0-2.44 1.35-3.829 3-1.388 1.65-3.017 3-3.62 3-.603 0-1.355.675-1.671 1.5-.317.825-1.155 1.5-1.862 1.5-.707 0-1.545.675-1.862 1.5-.316.825-1.152 1.5-1.857 1.501-1.17 0-4.896 2.973-11.941 9.525-1.463 1.361-3.038 2.481-3.5 2.49-.462.009-2.257 1.246-3.988 2.75-1.731 1.504-4.145 3.409-5.363 4.234-3.747 2.537-9.402 7.078-11.165 8.964-.922.986-6.392 5.254-12.156 9.483-15.717 11.532-14.623 6.568-14.687 66.613-.029 27.098.301 49.564.733 49.926 3.301 2.764 9.192 7.014 9.722 7.014.357 0 1.192.471 1.856 1.046.664.576 4.358 3.255 8.208 5.954 3.85 2.699 7.544 5.378 8.208 5.954.664.575 1.486 1.046 1.826 1.046.34 0 3.25 2.025 6.466 4.5s6.137 4.5 6.491 4.5c.353 0 2.187 1.178 4.076 2.619L81 252.237v-77.059l4.75-2.185c2.612-1.202 6.1-2.791 7.75-3.53 1.65-.739 5.961-2.721 9.579-4.404 3.618-1.682 7.106-3.059 7.75-3.059 2.964 0 .341-3.087-8.494-10-9.059-7.087-12.12-9.585-18.559-15.147l-2.725-2.353-.163-22.312c-.107-14.514.204-22.68.889-23.365.739-.739 2.801.181 6.889 3.073 3.208 2.269 6.677 4.684 7.707 5.365 1.029.681 2.379 1.689 3 2.239 1.777 1.576 21.477 14.857 24.186 16.305 1.343.717 2.441 1.73 2.441 2.25s.638.945 1.417.945 1.566.337 1.75.75c.183.412 3.026 2.55 6.317 4.75 6.916 4.623 17.444 12.021 19.266 13.538 1.831 1.525 1.524 4.94-.5 5.566-.963.297-2.425.926-3.25 1.398-.825.472-7.463 3.899-14.75 7.616-7.287 3.717-13.249 7.236-13.249 7.82.001.584 2.701 2.862 5.999 5.062 3.298 2.2 5.998 4.338 5.999 4.75 0 .412.471.75 1.045.75.868 0 11.347 7.348 15.664 10.983.664.559 1.628 1.017 2.143 1.017.514 0 1.194.675 1.511 1.5.316.825 1.087 1.5 1.713 1.5.625 0 2.842 1.35 4.925 3 5.017 3.974 6.278 3.877 15-1.148a24.9 24.9 0 013-1.431c.825-.311 2.175-.986 3-1.5.825-.513 2.175-1.194 3-1.513.825-.319 7.125-3.344 14-6.723 19.133-9.404 24.512-14.517 26.879-25.559 1.613-7.518-.155-17.067-4.373-23.626-3.598-5.594-13.695-15.479-23.506-23.01-3.574-2.745-7.205-5.665-8.068-6.49-.863-.825-6.403-5.272-12.311-9.881-5.907-4.61-11.276-8.903-11.931-9.54-.654-.637-5.015-4.04-9.69-7.562-4.675-3.521-8.725-6.664-9-6.984-.275-.319-3.65-3.043-7.5-6.052-3.85-3.009-7.15-5.811-7.333-6.226-.184-.415-.934-.755-1.667-.755s-1.483-.337-1.667-.75c-.705-1.586-8.535-6.247-10.387-6.182-1.07.037-2.959.556-4.196 1.152M164 197.5c-.685.825-2.035 1.5-3 1.5-.965 0-2.315.675-3 1.5s-2.035 1.5-3 1.5c-.965 0-2.315.675-3 1.5s-1.866 1.5-2.625 1.5c-1.16 0-10.05 4.141-15.375 7.162a34.404 34.404 0 01-3 1.481c-6.378 2.679-20.968 9.983-20.982 10.504-.01.356 5.269 4.496 11.732 9.199 6.463 4.703 12.294 9.024 12.958 9.602.664.579 1.639 1.052 2.166 1.052.528 0 1.109.338 1.293.75.463 1.042 11.15 8.25 12.231 8.25.485 0 1.444.769 2.131 1.709 1.138 1.556 1.495 1.416 4.013-1.577 1.767-2.099 3.4-3.119 4.525-2.825 1.157.303 1.941-.229 2.287-1.551.396-1.517 1.134-1.896 2.995-1.54 1.768.338 2.324.094 1.958-.858-.294-.766.487-1.715 1.841-2.237 1.294-.499 3.349-1.968 4.568-3.264 4.141-4.403 5.949-5.857 7.284-5.857.733 0 2.045-.654 2.916-1.454 4.768-4.375 5.885-5.256 7.41-5.841.921-.353 1.674-1.358 1.674-2.233 0-.874.399-1.343.887-1.042 1.088.672 2.804-1.469 2.549-3.18a52.8 52.8 0 01-.311-2.75c-.069-.825-.587-1.5-1.151-1.5-1.353 0-10.974-7.201-10.974-8.213 0-.433-.477-.787-1.059-.787-.583 0-4.606-2.7-8.941-6-4.335-3.3-8.303-6-8.819-6-.515 0-1.496.675-2.181 1.5" fill="#1976D2" fill-rule="evenodd"/></svg>