<?xml version="1.0" encoding="utf-8"?>
<!-- Generator: Adobe Illustrator 24.0.1, SVG Export Plug-In . SVG Version: 6.00 Build 0)  -->
<svg version="1.1" id="Layer_1" xmlns="http://www.w3.org/2000/svg" xmlns:xlink="http://www.w3.org/1999/xlink" x="0px" y="0px"
	 viewBox="0 0 300 300" style="enable-background:new 0 0 300 300;" xml:space="preserve">
<style type="text/css">
	.st0{fill:#50BEED;}
	.st1{fill:#0093BE;}
	.st2{fill:#F8A37D;}
	.st3{fill:#FBBC95;}
	.st4{fill:#F9A367;}
	.st5{fill:#48515A;}
	.st6{fill:#6C747B;}
	.st7{fill:#6FCEF5;}
	.st8{fill:#FBB88A;}
	.st9{fill:#F26922;}
	.st10{fill:#0481AB;}
	.st11{fill:#077BAA;}
	.st12{fill:#B45326;}
	.st13{fill:#FCC9A5;}
	.st14{fill:#3D3D3D;}
	.st15{fill:#FFFFFF;}
	.st16{fill:#43ADE2;}
	.st17{fill:#E2E3E4;}
	.st18{fill:#ADBBB9;}
	.st19{fill:#2B2C2B;}
	.st20{fill:#565F67;}
	.st21{fill:#FAA863;}
	.st22{fill:#1F2A35;}
	.st23{fill:#ACABAD;}
	.st24{fill:#DFE0E3;}
	.st25{opacity:0.4;fill:#E6EFEF;enable-background:new    ;}
	.st26{fill:#9CA4AB;}
	.st27{fill:#C9C8C1;}
	.st28{opacity:0.4;fill:#FFFFFF;enable-background:new    ;}
	.st29{fill:#FBBC90;}
</style>
<g>
	<g>
		<g>
			<path class="st0" d="M94.7,128.2l-2.5-0.4c0-1-0.1-1.8-0.4-2.7l2.4-1c0.1,0,0.2-0.2,0.1-0.3l-0.3-0.6l-0.8-1.8
				c0-0.1-0.1-0.1-0.2-0.1l0,0H93l-2.4,1c-0.4-0.8-1.1-1.5-1.7-2.2l1.6-2c0.1-0.1,0.1-0.2,0-0.3l0,0c0,0,0,0-0.1-0.1l-0.6-0.4
				l-1.5-1.1c-0.1-0.1-0.3-0.1-0.3,0l-1.6,1.9c-0.8-0.4-1.7-0.8-2.6-1.1l0.4-2.5c0,0,0,0,0-0.1l0,0l0,0c0-0.1-0.1-0.1-0.2-0.2
				l-2.6-0.4c-0.1,0-0.1,0-0.2,0.1l-0.1,0.1l-0.3,2.2v0.2c-1,0-1.9,0.1-2.8,0.4l-1-2.3c0-0.1-0.1-0.1-0.2-0.1h-0.1l-2.5,1
				c-0.1,0-0.1,0.1-0.1,0.1c0,0.1,0,0.1,0,0.2l0.8,1.9l0.2,0.4c-0.8,0.4-1.6,1.1-2.3,1.7l-2-1.5c-0.1-0.1-0.2-0.1-0.3,0
				c0,0-0.1,0-0.1,0.1l-1.6,2c0,0.1-0.1,0.1,0,0.2c0,0.1,0,0.1,0.1,0.1l1.8,1.3l0.3,0.2c-0.4,0.8-0.9,1.7-1.1,2.5l-2.5-0.4
				c-0.1,0-0.2,0-0.2,0.1v0.1l-0.4,2.5c0,0.1,0,0.1,0.1,0.2l0.1,0.1l2.1,0.3l0.4,0.1c0,1,0.1,1.8,0.4,2.7l-2.4,1
				c-0.1,0-0.1,0.1-0.1,0.2v0.1l1.1,2.4c0,0.1,0.1,0.1,0.2,0.1c0,0,0.1,0,0.2,0l2-0.8l0.4-0.1c0.4,0.8,1.1,1.5,1.7,2.2l-1.6,2
				c-0.1,0.1-0.1,0.2,0,0.2c0,0,0,0.1,0.1,0.1l2.1,1.6c0.1,0,0.1,0.1,0.2,0c0,0,0.1,0,0.1-0.1l1.4-1.8l0.1-0.2
				c0.8,0.4,1.7,0.8,2.6,1.1l-0.4,2.5c0,0.1,0,0.2,0.1,0.2h0.1l2.6,0.4l0,0c0.1,0,0.2,0,0.2-0.1V141l0.3-1.7l0.1-0.8
				c1,0,1.9-0.1,2.8-0.4l1,2.3c0.1,0.1,0.2,0.2,0.3,0.1l1.8-0.7l0.7-0.3c0.1,0,0.2-0.2,0.1-0.3l-1-2.3c0.8-0.4,1.6-1.1,2.3-1.7
				l2,1.5c0.1,0.1,0.3,0.1,0.3,0l1-1.1l0.7-0.9c0.1-0.1,0.1-0.2,0-0.3l-2-1.5c0.4-0.8,0.9-1.7,1.1-2.5l2.5,0.4c0.1,0,0.2,0,0.2-0.1
				l0,0c0,0,0,0,0-0.1l0.4-2.5C94.9,128.2,94.8,128.2,94.7,128.2z M84.5,128.2c-0.3,1.9-2,3.2-4,3c-1.9-0.3-3.3-2-3.1-3.9
				c0.3-1.9,2-3.2,4-3C83.3,124.6,84.7,126.3,84.5,128.2z"/>
		</g>
		<g>
			<path class="st0" d="M244.2,150.7l-3.5-0.4c0-1.3-0.2-2.5-0.4-3.8l3.3-1.3c0.2-0.1,0.2-0.3,0.2-0.4l-0.4-0.9l-1.1-2.4
				c0-0.1-0.2-0.2-0.3-0.2l0,0H242l-3.2,1.3c-0.6-1.1-1.4-2.1-2.4-3l2.2-2.7c0.1-0.1,0.1-0.2,0-0.3l0,0c0,0,0-0.1-0.1-0.1l-0.9-0.6
				l-2.1-1.5c-0.1-0.1-0.3-0.1-0.4,0.1l-2.1,2.7c-1.1-0.6-2.3-1.1-3.6-1.5l0.4-3.4c0,0,0,0,0-0.1c0,0,0,0,0-0.1l0,0
				c0-0.1-0.1-0.2-0.3-0.2l-3.6-0.4c-0.1,0-0.2,0-0.3,0.1c0,0-0.1,0.1-0.1,0.2l-0.4,3.1v0.3c-1.3,0-2.6,0.2-3.9,0.4l-1.4-3.2
				c0-0.1-0.2-0.2-0.3-0.2c-0.1,0-0.1,0-0.1,0l-3.4,1.4c-0.1,0-0.2,0.1-0.2,0.2c0,0.1,0,0.1,0,0.2l1.1,2.6l0.2,0.5
				c-1.1,0.6-2.2,1.4-3.2,2.3l-2.8-2.1c-0.1-0.1-0.2-0.1-0.3,0c0,0-0.1,0-0.1,0.1l-2.2,2.8c-0.1,0.1-0.1,0.2-0.1,0.3
				c0,0.1,0.1,0.1,0.1,0.2l2.4,1.8l0.4,0.3c-0.6,1.1-1.1,2.3-1.6,3.5l-3.5-0.4c-0.1,0-0.3,0-0.3,0.2v0.1l-0.4,3.5
				c0,0.1,0,0.2,0.1,0.2c0.1,0.1,0.1,0.1,0.2,0.1l2.9,0.4l0.6,0.1c0,1.3,0.2,2.5,0.4,3.8l-3.3,1.3c-0.1,0.1-0.2,0.2-0.2,0.3v0.1
				l1.4,3.2c0,0.1,0.1,0.2,0.2,0.2s0.1,0,0.2,0l2.8-1.1l0.4-0.2c0.6,1.1,1.4,2.1,2.4,3l-2.2,2.7c-0.1,0.1-0.1,0.2,0,0.3l0.1,0.1
				l2.9,2.1c0.1,0.1,0.2,0.1,0.3,0c0.1,0,0.1-0.1,0.2-0.1l1.9-2.5l0.2-0.2c1.1,0.6,2.3,1.1,3.6,1.5l-0.4,3.4c0,0.1,0,0.3,0.2,0.3
				h0.1l3.6,0.4l0,0c0.1,0,0.3,0,0.3-0.2v-0.1l0.4-2.3l0.2-1.1c1.3,0,2.6-0.2,3.9-0.4l1.4,3.2c0.1,0.2,0.3,0.2,0.4,0.2l2.5-1
				l0.9-0.4c0.2-0.1,0.2-0.3,0.2-0.4l-1.3-3.2c1.1-0.6,2.2-1.4,3.2-2.3l2.8,2.1c0.1,0.1,0.3,0.1,0.4-0.1l1.3-1.7l1-1.2
				c0.1-0.1,0.1-0.3-0.1-0.4l-2.8-2c0.6-1.1,1.1-2.3,1.6-3.5l3.5,0.4c0.1,0,0.3,0,0.3-0.2l0,0c0,0,0,0,0-0.1l0.4-3.5
				C244.5,150.8,244.4,150.7,244.2,150.7z M230,150.8c-0.4,2.6-2.8,4.5-5.5,4.1c-2.7-0.4-4.6-2.7-4.3-5.4c0.4-2.6,2.8-4.5,5.5-4.1
				C228.4,145.8,230.3,148.2,230,150.8z"/>
		</g>
		<g>
			<path class="st0" d="M83.5,200.5l-3-0.4c0-1.1-0.1-2.2-0.4-3.2l2.8-1.1c0.1-0.1,0.2-0.2,0.1-0.4l-0.4-0.8l-0.9-2
				c0-0.1-0.1-0.2-0.2-0.2l0,0h-0.1l-2.8,1.1c-0.5-1-1.2-1.8-2-2.5l1.8-2.4c0.1-0.1,0.1-0.2,0-0.3l0,0c0,0,0-0.1-0.1-0.1l-0.7-0.5
				l-1.8-1.3c-0.1-0.1-0.3-0.1-0.4,0.1l-1.8,2.3c-1-0.5-2-1-3.1-1.2l0.4-2.9c0,0,0,0,0-0.1l0,0l0,0c0-0.1-0.1-0.2-0.2-0.2l-3.1-0.4
				c-0.1,0-0.2,0-0.2,0.1c0,0-0.1,0.1-0.1,0.2l-0.4,2.6v0.3c-1.1,0-2.3,0.1-3.3,0.4l-1.1-2.7c0-0.1-0.1-0.2-0.2-0.2h-0.1l-2.9,1.1
				c-0.1,0-0.1,0.1-0.2,0.2c0,0.1,0,0.1,0,0.2l1,2.3l0.2,0.4c-1,0.5-1.8,1.2-2.6,1.9l-2.5-1.8c-0.1-0.1-0.2-0.1-0.3,0
				c0,0-0.1,0-0.1,0.1l-1.9,2.4c-0.1,0.1-0.1,0.1,0,0.2c0,0.1,0,0.1,0.1,0.2l2,1.5l0.4,0.3c-0.5,0.9-1,1.9-1.3,3l-3-0.4
				c-0.1,0-0.2,0-0.3,0.1v0.1l-0.4,3c0,0.1,0,0.2,0.1,0.2c0,0,0.1,0.1,0.2,0.1l2.5,0.3l0.5,0.1c0,1.1,0.1,2.2,0.4,3.2l-2.8,1.1
				c-0.1,0-0.2,0.1-0.2,0.2v0.1l1.2,2.8c0,0.1,0.1,0.1,0.2,0.2c0.1,0,0.1,0,0.2,0l2.4-1l0.4-0.2c0.5,1,1.2,1.8,2,2.5l-1.8,2.4
				c-0.1,0.1-0.1,0.2,0,0.3c0,0,0,0.1,0.1,0.1l2.5,1.8c0.1,0.1,0.2,0.1,0.2,0c0.1,0,0.1,0,0.1-0.1l1.7-2.1l0.2-0.2
				c1,0.5,2,1,3.1,1.2l-0.4,2.9c0,0.1,0,0.2,0.1,0.3h0.1l3.1,0.4l0,0c0.1,0,0.2,0,0.3-0.1v-0.1l0.3-1.9l0.1-0.9
				c1.1,0,2.3-0.1,3.3-0.4l1.1,2.7c0.1,0.1,0.2,0.2,0.4,0.1l2.1-0.9l0.8-0.4c0.1-0.1,0.2-0.2,0.1-0.4l-1.1-2.6
				c1-0.5,1.8-1.2,2.6-1.9l2.5,1.8c0.1,0.1,0.3,0.1,0.4-0.1l1.1-1.4l0.8-1.1c0.1-0.1,0.1-0.3-0.1-0.4l-2.4-1.8c0.5-0.9,1-1.9,1.3-3
				l3,0.4c0.1,0,0.2,0,0.3-0.1l0,0c0,0,0,0,0-0.1l0.4-3C83.8,200.6,83.7,200.5,83.5,200.5z M71.4,200.6c-0.3,2.2-2.4,3.8-4.7,3.5
				c-2.3-0.3-3.9-2.4-3.7-4.6c0.3-2.2,2.4-3.8,4.7-3.5C70.1,196.3,71.7,198.3,71.4,200.6z"/>
		</g>
		<g>
			<path class="st0" d="M251,110.4l-2.6-0.4c0-1-0.1-1.9-0.4-2.8l2.5-1c0.1-0.1,0.2-0.2,0.1-0.3l-0.3-0.7l-0.8-1.8
				c0-0.1-0.1-0.1-0.2-0.1l0,0h-0.1l-2.5,1c-0.5-0.8-1.1-1.6-1.8-2.3l1.7-2.1c0.1-0.1,0.1-0.2,0-0.3l0,0c0,0,0,0-0.1-0.1l-0.6-0.4
				l-1.6-1.1c-0.1-0.1-0.3-0.1-0.3,0l-1.6,2c-0.9-0.4-1.8-0.9-2.7-1.1l0.4-2.5c0,0,0,0,0-0.1l0,0l0,0c0-0.1-0.1-0.1-0.2-0.2
				l-2.7-0.4c-0.1,0-0.2,0-0.2,0.1L237,96l-0.4,2.4v0.2c-1,0-2,0.1-2.9,0.4l-1.1-2.4c0-0.1-0.1-0.1-0.2-0.1h-0.1l-2.5,1.1
				c-0.1,0-0.1,0.1-0.1,0.1c0,0.1,0,0.1,0,0.2l0.9,2l0.2,0.4c-0.9,0.4-1.7,1.1-2.4,1.8l-2.1-1.6c-0.1-0.1-0.2-0.1-0.3,0
				c0,0-0.1,0-0.1,0.1l-1.7,2.1c0,0.1-0.1,0.1,0,0.2c0,0.1,0,0.1,0.1,0.1l1.8,1.3l0.3,0.3c-0.5,0.8-0.9,1.7-1.1,2.6l-2.6-0.4
				c-0.1,0-0.2,0-0.2,0.1v0.1l-0.4,2.6c0,0.1,0,0.1,0.1,0.2c0,0,0.1,0.1,0.2,0.1l2.2,0.3l0.4,0.1c0,1,0.1,1.9,0.4,2.8l-2.5,1
				c-0.1,0-0.2,0.1-0.2,0.2v0.1l1.1,2.5c0,0.1,0.1,0.1,0.2,0.1s0.1,0,0.2,0l2.1-0.9l0.4-0.2c0.5,0.8,1.1,1.6,1.8,2.3l-1.7,2.1
				c-0.1,0.1-0.1,0.2,0,0.3c0,0,0,0.1,0.1,0.1l2.2,1.6c0.1,0,0.1,0.1,0.2,0c0,0,0.1,0,0.1-0.1l1.5-1.8l0.1-0.2
				c0.9,0.4,1.8,0.9,2.7,1.1l-0.4,2.5c0,0.1,0,0.2,0.1,0.2h0.1l2.7,0.4l0,0c0.1,0,0.2,0,0.2-0.1v-0.1l0.3-1.8l0.1-0.8
				c1,0,2-0.1,2.9-0.4l1.1,2.4c0.1,0.1,0.2,0.2,0.3,0.1l1.8-0.8l0.7-0.3c0.1-0.1,0.2-0.2,0.1-0.3l-1.1-2.4c0.9-0.4,1.7-1.1,2.4-1.8
				l2.1,1.6c0.1,0.1,0.3,0.1,0.3,0l1-1.2l0.7-0.9c0.1-0.1,0.1-0.3,0-0.3l-2.1-1.6c0.5-0.8,0.9-1.7,1.1-2.6l2.6,0.4
				c0.1,0,0.2,0,0.2-0.1l0,0c0,0,0,0,0-0.1l0.4-2.6C251.1,110.6,251,110.4,251,110.4z M240.2,110.5c-0.3,2-2.1,3.3-4.2,3.2
				c-2-0.3-3.5-2-3.2-4c0.3-2,2.1-3.3,4.2-3.2C239,106.8,240.4,108.5,240.2,110.5z"/>
		</g>
		<ellipse class="st0" cx="155.6" cy="154.5" rx="65.2" ry="62.9"/>
		<g>
			<g>
				<g>
					<rect x="64.6" y="166" class="st1" width="10.6" height="2.7"/>
					<path class="st2" d="M61.3,171c-0.5-0.4-1.1-0.5-1.5-0.6c0.4,1.1,0.4,3.1,0.4,5h1.6C62.5,173.3,62.5,171.7,61.3,171z"/>
					<path class="st3" d="M79.2,171c-1.3,0.8-1.1,2.4-0.4,4.4h1.3c-0.1-1.8-0.1-3.8,0.3-4.9C80.1,170.5,79.7,170.7,79.2,171z"/>
					<path class="st4" d="M73.3,161.4c0-1.4-6.3-1.6-6.3-0.2c-0.1,5.2-1.9,6.2-1.9,6.2s-0.2,4.6,1.1,7.8H69l0.3-2.5h0.7h0.7l0.3,2.5
						h2.8c1.2-3.2,1.1-7.8,1.1-7.8S73.2,166.9,73.3,161.4z"/>
					<path class="st5" d="M79.4,168.6l-4.7-1.1c-1.1,1.8-4.7,2.8-4.7,2.8l0.1,5.1h11.5c0.1-1.3,0.3-2.5,0.4-3.4
						C81.8,170.3,80.9,169,79.4,168.6z"/>
					<path class="st5" d="M65.1,167.4l-4.6,1.3c-1.5,0.4-2.5,1.8-2.3,3.2c0.1,1,0.3,2.1,0.4,3.3h11.2l-0.1-5.1
						C69.8,170.3,67.1,169.5,65.1,167.4z"/>
					<polygon class="st1" points="69,169.3 68.1,169.6 69.8,170.3 69.5,169.5 					"/>
					<polygon class="st6" points="69.8,172.7 70.5,172.7 71.7,169.7 69.8,170.3 					"/>
					<polygon class="st6" points="69.1,172.7 69.8,172.7 69.8,170.3 68.1,169.7 					"/>
					<polygon class="st7" points="62.9,168.1 68.1,171.5 69.5,169.5 64.6,166 					"/>
					<polygon class="st1" points="70.3,169.5 69.8,170.3 71.7,169.6 70.7,169.3 					"/>
					<polygon class="st7" points="70.3,169.5 71.7,171.5 76.8,168.1 75.2,166 					"/>
					<polygon class="st6" points="69.8,172.7 69.8,175.3 70.8,175.3 70.5,172.7 					"/>
					<polygon class="st6" points="69,175.3 69.8,175.3 69.8,172.7 69.1,172.7 					"/>
					<path class="st8" d="M69.9,150.2c-3.3,0-6.5,3.3-6.1,7.4c0.4,4.3,3.8,7.6,6.1,7.6c2.2,0,5.6-3.4,6.1-7.6
						C76.5,153.5,73.3,150.2,69.9,150.2z"/>
					<path class="st9" d="M69.8,148.7c-2.6,0-5.4,1.7-6.1,3.5c-0.8,1.9-0.4,5-0.4,5l0.9,0.9c0,0,0.5-3.6,1.4-4c0.3-0.2,2-1,2-1
						s6.2,1.1,6.8,1.8c0.9,0.8,1.2,3.2,1.2,3.2l0.9-1.2c0,0,0.3-3.5-0.8-5.1C75,150.6,72.5,148.7,69.8,148.7z"/>
				</g>
				<g>
					<g>
						<path class="st10" d="M94.7,160.1l-4.5-0.5c0-1.7-0.2-3.2-0.6-4.7l4.2-1.7c0.2-0.1,0.3-0.3,0.2-0.4l-0.4-1.1l-1.3-3.1
							c-0.1-0.1-0.2-0.2-0.4-0.2l0,0c-0.1,0-0.1,0-0.2,0l-4.1,1.7c-0.8-1.4-1.8-2.7-3-3.9l2.7-3.5c0.1-0.1,0.1-0.3,0-0.4l0,0
							l-0.1-0.1l-1.1-0.8l-2.6-1.9c-0.2-0.1-0.4-0.1-0.5,0.1l-2.7,3.4c-1.4-0.8-3-1.4-4.6-1.9l0.6-4.4v-0.1c0,0,0,0,0-0.1l0,0
							c-0.1-0.1-0.2-0.2-0.3-0.3l-4.6-0.6c-0.1,0-0.3,0-0.3,0.1c-0.1,0.1-0.1,0.1-0.1,0.2l-0.5,3.9l-0.1,0.4c-1.7,0-3.3,0.2-4.9,0.6
							l-1.8-4c-0.1-0.1-0.2-0.2-0.4-0.2c-0.1,0-0.1,0-0.2,0l-4.3,1.8c-0.1,0-0.2,0.1-0.2,0.2s0,0.2,0,0.3l1.5,3.3l0.3,0.6
							c-1.5,0.8-2.8,1.8-3.9,2.9L53,143c-0.1-0.1-0.3-0.1-0.4,0c-0.1,0-0.1,0.1-0.1,0.1l-2.8,3.6c-0.1,0.1-0.1,0.2-0.1,0.3
							c0,0.1,0.1,0.2,0.1,0.2l3.1,2.3l0.5,0.4c-0.8,1.4-1.5,2.9-1.9,4.5l-4.5-0.5c-0.2,0-0.3,0.1-0.4,0.2c0,0,0,0.1-0.1,0.2
							l-0.6,4.5c0,0.1,0,0.2,0.1,0.3c0.1,0.1,0.2,0.1,0.3,0.1l3.7,0.4l0.8,0.1c0,1.7,0.2,3.2,0.6,4.7l-4.2,1.7
							c-0.2,0.1-0.3,0.2-0.3,0.4c0,0.1,0,0.1,0,0.2l1.8,4.1c0.1,0.1,0.2,0.2,0.3,0.2s0.2,0,0.3,0l3.6-1.4l0.5-0.3
							c0.8,1.4,1.8,2.7,3,3.9l-2.7,3.5c-0.1,0.1-0.1,0.3,0,0.4c0,0.1,0.1,0.1,0.1,0.1l3.7,2.7c0.1,0.1,0.2,0.1,0.4,0.1
							c0.1,0,0.2-0.1,0.2-0.1l2.5-3.2l0.2-0.3c1.4,0.8,3,1.4,4.6,1.9l-0.6,4.4c0,0.2,0.1,0.3,0.2,0.4c0,0,0.1,0,0.2,0.1l4.6,0.6l0,0
							c0.2,0,0.3-0.1,0.4-0.2c0,0,0-0.1,0.1-0.2l0.4-3l0.2-1.3c1.7,0,3.3-0.2,4.9-0.6l1.8,4c0.1,0.2,0.3,0.3,0.4,0.2l3.2-1.2
							l1.1-0.4c0.2-0.1,0.3-0.3,0.2-0.4l-1.8-3.9c1.5-0.8,2.8-1.8,3.9-2.9l3.6,2.6c0.2,0.1,0.4,0.1,0.5-0.1l1.7-2.1l1.2-1.5
							c0.1-0.2,0.1-0.4-0.1-0.5l-3.5-2.6c0.8-1.4,1.5-2.9,1.9-4.5l4.5,0.5c0.2,0,0.3-0.1,0.4-0.2c0,0,0,0,0-0.1v-0.1l0.6-4.5
							C95,160.3,94.9,160.1,94.7,160.1z M70.4,174.8c-8.9,0-16-6.9-16-15.4s7.2-15.4,16-15.4s16,6.9,16,15.4S79.2,174.8,70.4,174.8z
							"/>
					</g>
					<g>
						<path class="st11" d="M70.4,142.7c-9.6,0-17.5,7.5-17.5,16.8c0,9.3,7.8,16.8,17.5,16.8s17.5-7.5,17.5-16.8
							S80,142.7,70.4,142.7z M70.4,174.8c-8.9,0-16-6.9-16-15.4s7.2-15.4,16-15.4s16,6.9,16,15.4S79.2,174.8,70.4,174.8z"/>
					</g>
				</g>
			</g>
			<g>
				<g>
					<rect x="23.9" y="147.4" class="st12" width="9.7" height="2.5"/>
					<path class="st2" d="M20.8,152c-0.5-0.3-1-0.5-1.4-0.6c0.4,1.1,0.4,2.8,0.3,4.6h1.5C21.8,154.2,22,152.7,20.8,152z"/>
					<path class="st3" d="M37.4,151.9c-1.2,0.7-1.1,2.2-0.4,4h1.2c-0.1-1.8-0.1-3.4,0.3-4.6C38.2,151.5,37.8,151.7,37.4,151.9z"/>
					<path class="st8" d="M31.9,143.2c0-1.3-5.8-1.4-5.8-0.2c-0.1,4.7-1.8,5.7-1.8,5.7s-0.2,4.2,1.1,7.2h2.5l0.3-2.4h0.6h0.6
						l0.2,2.4h2.5c1.1-3,1-7.2,1-7.2S31.8,148.2,31.9,143.2z"/>
					<path class="st9" d="M37.5,149.8l-4.4-1.1c-1,1.7-4.4,2.5-4.4,2.5l0.1,4.6h10.6c0.1-1.2,0.2-2.3,0.3-3.2
						C39.7,151.4,38.9,150.2,37.5,149.8z"/>
					<path class="st9" d="M24.3,148.8l-4.2,1.1c-1.4,0.4-2.3,1.7-2.1,3c0.1,0.9,0.3,1.9,0.4,3.1h10.4l-0.1-4.6
						C28.7,151.3,26.1,150.5,24.3,148.8z"/>
					<polygon class="st12" points="27.9,150.4 27,150.8 28.7,151.3 28.3,150.5 					"/>
					<polygon class="st5" points="28.7,153.6 29.4,153.6 30.4,150.9 28.7,151.3 					"/>
					<polygon class="st5" points="28.1,153.6 28.7,153.6 28.7,151.3 27,150.9 					"/>
					<polygon class="st4" points="22.3,149.3 27,152.4 28.3,150.5 23.9,147.4 					"/>
					<polygon class="st12" points="29.1,150.5 28.7,151.3 30.4,150.8 29.5,150.4 					"/>
					<polygon class="st4" points="29.1,150.5 30.4,152.4 35.1,149.3 33.6,147.4 					"/>
					<polygon class="st5" points="28.7,153.6 28.7,156 29.6,156 29.4,153.6 					"/>
					<polygon class="st5" points="27.8,156 28.7,156 28.7,153.6 28.1,153.6 					"/>
					<path class="st13" d="M28.8,132.7c-3.1,0-6.1,3.1-5.6,6.8c0.4,3.9,3.5,7.1,5.6,7.1c2,0,5.2-3.2,5.6-7.1
						C34.8,135.8,31.9,132.7,28.8,132.7z"/>
					<path class="st12" d="M28.7,131.4c-2.4,0-5,1.6-5.7,3.2c-0.7,1.8-0.4,4.6-0.4,4.6l0.8,0.8c0,0,0.5-3.2,1.3-3.7
						c0.3-0.2,1.8-0.9,1.8-0.9s5.8,1.1,6.3,1.6c0.8,0.7,1.1,2.9,1.1,2.9l0.9-1.1c0,0,0.3-3.2-0.7-4.6
						C33.5,133.2,31.1,131.4,28.7,131.4z"/>
				</g>
				<g>
					<g>
						<path class="st14" d="M49.6,138.2c0-0.1-0.1-0.2-0.2-0.3l0,0h-0.1l-3.9,0.4c-0.4-1.4-0.9-2.7-1.6-3.9l3.2-2.3
							c0.1-0.1,0.2-0.2,0.1-0.4l0,0c0,0,0-0.1-0.1-0.1l-0.7-0.9l-1.8-2.3c-0.1-0.2-0.3-0.2-0.4-0.1l-3.2,2.3c-1-1.1-2.1-1.9-3.4-2.6
							l1.6-3.5v-0.1c0,0,0,0,0-0.1l0,0c0-0.1-0.1-0.3-0.2-0.3l-3.8-1.6c-0.1,0-0.2,0-0.3,0c-0.1,0-0.1,0.1-0.2,0.2l-1.4,3.2
							l-0.2,0.3c-1.4-0.4-2.9-0.6-4.3-0.7l-0.4-3.9c0-0.1-0.1-0.2-0.2-0.3c-0.1,0-0.1,0-0.2,0l-4,0.4c-0.1,0-0.2,0.1-0.3,0.2
							c0,0.1-0.1,0.1-0.1,0.2l0.4,3.2l0.1,0.6c-1.4,0.4-2.8,0.9-4.1,1.5l-2.4-3.1c-0.1-0.1-0.2-0.2-0.4-0.1c-0.1,0-0.1,0-0.1,0.1
							l-3.3,2.4c-0.1,0.1-0.1,0.2-0.1,0.3c0,0.1,0,0.2,0.1,0.2l2,2.6l0.4,0.4c-1.1,1-2,2.1-2.8,3.2l-3.7-1.5c-0.1-0.1-0.3,0-0.4,0.1
							l-0.1,0.1l-1.7,3.6c0,0.1,0,0.2,0,0.3c0,0.1,0.1,0.1,0.2,0.2l3,1.2l0.6,0.3c-0.4,1.4-0.6,2.8-0.7,4.2l-3.9,0.4
							c-0.2,0-0.3,0.1-0.3,0.3v0.1l0.4,3.9c0,0.1,0.1,0.2,0.2,0.3c0.1,0,0.1,0.1,0.2,0.1l3.4-0.4l0.5-0.1c0.4,1.4,0.9,2.7,1.6,3.9
							l-3.2,2.3c-0.1,0.1-0.2,0.2-0.1,0.3c0,0.1,0,0.1,0.1,0.1l2.5,3.2c0.1,0.1,0.2,0.1,0.3,0.1c0.1,0,0.2,0,0.2-0.1l2.9-2.1
							l0.3-0.2c1,1.1,2.1,1.9,3.4,2.6l-1.6,3.5c-0.1,0.1,0,0.3,0.1,0.4l0.1,0.1l3.8,1.6l0,0c0.1,0.1,0.3,0,0.4-0.1l0.1-0.1l1.1-2.4
							l0.5-1.1c1.4,0.4,2.9,0.6,4.3,0.7l0.4,3.9c0,0.2,0.2,0.3,0.4,0.3l3-0.4l1.1-0.1c0.2,0,0.3-0.2,0.3-0.4l-0.4-3.8
							c1.4-0.4,2.8-0.9,4.1-1.5l2.4,3.1c0.1,0.2,0.3,0.2,0.4,0.1l1.9-1.4l1.4-1c0.2-0.1,0.2-0.3,0.1-0.4l-2.4-3.1c1.1-1,2-2,2.8-3.2
							l3.7,1.5c0.1,0.1,0.3,0,0.4-0.1l0,0c0,0,0,0,0.1-0.1L49,149c0.1-0.2,0-0.4-0.2-0.4l-3.6-1.5c0.4-1.4,0.6-2.8,0.7-4.2l3.9-0.4
							c0.2,0,0.3-0.2,0.3-0.4L50,141L49.6,138.2z M41.8,146c-2.1,7.2-9.9,11.3-17.4,9.3c-7.5-2.1-11.8-9.6-9.6-16.8
							c2.1-7.2,9.9-11.3,17.4-9.3S44,138.9,41.8,146z"/>
					</g>
					<path class="st6" d="M28.3,127.6c-8.4,0-15.3,6.6-15.3,14.7s6.8,14.7,15.3,14.7c8.4,0,15.3-6.6,15.3-14.7
						C43.6,134.2,36.8,127.6,28.3,127.6z M28.3,155.7c-7.7,0-13.9-6.1-13.9-13.5s6.2-13.5,13.9-13.5c7.7,0,13.9,6.1,13.9,13.5
						C42.3,149.7,36.1,155.7,28.3,155.7z"/>
				</g>
			</g>
			<g>
				<g>
					<rect x="29.1" y="185.6" class="st1" width="7.6" height="1.9"/>
					<path class="st2" d="M26.8,189.2c-0.4-0.3-0.8-0.4-1.1-0.4c0.3,0.9,0.3,2.2,0.3,3.6h1.1C27.6,190.9,27.6,189.7,26.8,189.2z"/>
					<path class="st3" d="M39.7,189.1c-1,0.5-0.8,1.8-0.3,3.2h1c-0.1-1.3,0-2.7,0.2-3.6C40.4,188.9,40.1,188.9,39.7,189.1z"/>
					<path class="st4" d="M35.4,182.3c0-1-4.6-1.1-4.6-0.1c-0.1,3.7-1.4,4.5-1.4,4.5s-0.2,3.3,0.8,5.7h1.9l0.2-1.8h0.5h0.5l0.2,1.8
						h2c0.9-2.4,0.7-5.7,0.7-5.7S35.4,186.2,35.4,182.3z"/>
					<path class="st1" d="M39.8,187.4l-3.4-0.9c-0.7,1.3-3.4,2-3.4,2v3.7h8.3c0.1-1,0.2-1.8,0.3-2.5
						C41.6,188.8,40.9,187.7,39.8,187.4z"/>
					<path class="st1" d="M29.5,186.7l-3.3,1c-1.1,0.3-1.8,1.3-1.7,2.4c0.1,0.7,0.2,1.5,0.3,2.4h8.2v-3.7
						C33,188.7,31,188.1,29.5,186.7z"/>
					<polygon class="st1" points="32.3,188 31.7,188.2 33,188.7 32.6,188.1 					"/>
					<polygon class="st5" points="33,190.4 33.4,190.4 34.2,188.3 33,188.7 					"/>
					<polygon class="st5" points="32.5,190.4 33,190.4 33,188.7 31.7,188.3 					"/>
					<polygon class="st7" points="27.9,187.1 31.7,189.6 32.6,188.1 29.1,185.6 					"/>
					<polygon class="st1" points="33.3,188.1 33,188.7 34.2,188.2 33.5,188 					"/>
					<polygon class="st7" points="33.3,188.1 34.2,189.6 38,187.1 36.8,185.6 					"/>
					<polygon class="st5" points="33,190.4 33,192.3 33.6,192.3 33.4,190.4 					"/>
					<polygon class="st5" points="32.3,192.3 33,192.3 33,190.4 32.5,190.4 					"/>
					<path class="st8" d="M33,174.1c-2.5,0-4.7,2.4-4.4,5.4c0.4,3.1,2.7,5.5,4.4,5.5c1.6,0,4-2.5,4.4-5.5
						C37.7,176.5,35.4,174.1,33,174.1z"/>
					<path class="st14" d="M32.9,173.1c-1.8,0-3.9,1.2-4.5,2.5c-0.5,1.4-0.4,3.6-0.4,3.6l0.6,0.6c0,0,0.4-2.5,1.1-2.9
						c0.2-0.1,1.4-0.7,1.4-0.7s4.6,0.8,5,1.2c0.6,0.5,0.9,2.3,0.9,2.3l0.7-0.9c0,0,0.2-2.5-0.5-3.7
						C36.7,174.4,34.8,173.1,32.9,173.1z"/>
				</g>
				<g>
					<g>
						<path class="st9" d="M51.7,181l-3.3-0.4c0-1.2-0.2-2.5-0.4-3.6l3.2-1.3c0.2-0.1,0.2-0.2,0.2-0.4l-0.4-0.9l-1-2.3
							c0-0.1-0.2-0.2-0.3-0.2l0,0h-0.1l-3.2,1.2c-0.6-1.1-1.4-2-2.3-2.9l2.1-2.6c0.1-0.1,0.1-0.2,0-0.3l0,0c0,0,0-0.1-0.1-0.1
							l-0.8-0.6l-2-1.5c-0.1-0.1-0.3-0.1-0.4,0.1l-2,2.6c-1.1-0.6-2.3-1.1-3.5-1.4l0.4-3.3c0,0,0,0,0-0.1c0,0,0,0,0-0.1l0,0
							c0-0.1-0.1-0.2-0.3-0.2l-3.5-0.4c-0.1,0-0.2,0-0.3,0.1c0,0-0.1,0.1-0.1,0.2l-0.4,3v0.3c-1.3,0-2.5,0.2-3.8,0.4l-1.3-3.1
							c0-0.1-0.2-0.2-0.3-0.2h-0.1l-3.2,1.3c-0.1,0-0.1,0.1-0.2,0.2c0,0.1,0,0.1,0,0.2l1.1,2.5l0.2,0.5c-1.1,0.6-2.1,1.3-3,2.2
							l-2.7-2c-0.1-0.1-0.2-0.1-0.3,0c0,0-0.1,0-0.1,0.1l-2.1,2.7c-0.1,0.1-0.1,0.2-0.1,0.3s0.1,0.1,0.1,0.2l2.3,1.7l0.4,0.3
							c-0.6,1.1-1.1,2.2-1.5,3.3l-3.4-0.4c-0.1,0-0.3,0-0.3,0.1v0.1l-0.4,3.4c0,0.1,0,0.2,0.1,0.2c0,0.1,0.1,0.1,0.2,0.1l2.8,0.4
							l0.6,0.1c0,1.2,0.2,2.5,0.4,3.6l-3.2,1.3c-0.1,0-0.2,0.2-0.2,0.3v0.1l1.4,3.2c0,0.1,0.1,0.1,0.2,0.2c0.1,0,0.1,0,0.2,0
							l2.7-1.1l0.4-0.2c0.6,1.1,1.4,2,2.3,2.9l-2.1,2.6c-0.1,0.1-0.1,0.2,0,0.3c0,0,0,0.1,0.1,0.1l2.8,2.1c0.1,0.1,0.2,0.1,0.3,0
							c0.1,0,0.1,0,0.2-0.1l1.9-2.4l0.2-0.2c1.1,0.6,2.3,1.1,3.5,1.4l-0.4,3.3c0,0.1,0,0.2,0.2,0.3h0.1l3.5,0.4l0,0
							c0.1,0,0.3,0,0.3-0.1v-0.1l0.3-2.2l0.2-1.1c1.3,0,2.5-0.2,3.8-0.4l1.3,3.1c0.1,0.2,0.3,0.2,0.4,0.2l2.4-1l0.9-0.4
							c0.2-0.1,0.2-0.2,0.2-0.4l-1.3-3c1.1-0.6,2.1-1.3,3-2.2l2.7,2c0.1,0.1,0.3,0.1,0.4-0.1l1.2-1.6l0.9-1.1
							c0.1-0.1,0.1-0.3-0.1-0.4l-2.7-2c0.6-1.1,1.1-2.2,1.5-3.3l3.4,0.4c0.1,0,0.3,0,0.3-0.1l0,0c0,0,0,0,0-0.1l0.4-3.4
							C51.9,181.1,51.8,181,51.7,181z M33.3,192.2c-6.7,0-12.1-5.3-12.1-11.7c0-6.5,5.4-11.7,12.1-11.7s12.1,5.3,12.1,11.7
							C45.4,186.9,39.9,192.2,33.3,192.2z"/>
					</g>
					<g>
						<path class="st12" d="M33.3,167.8c-7.3,0-13.2,5.7-13.2,12.8c0,7.1,6,12.8,13.2,12.8s13.2-5.7,13.2-12.8
							C46.5,173.5,40.5,167.8,33.3,167.8z M33.3,192.1c-6.7,0-12.1-5.3-12.1-11.7c0-6.5,5.4-11.7,12.1-11.7s12.1,5.3,12.1,11.7
							C45.4,186.9,39.9,192.1,33.3,192.1z"/>
					</g>
				</g>
			</g>
		</g>
		<g>
			<polygon class="st14" points="196.3,173.3 201.6,210.2 206.4,210.2 201.1,173.3 			"/>
			<polygon class="st14" points="126.2,210.2 131,210.2 136.2,173.3 131.4,173.3 			"/>
			<rect x="164.7" y="173.3" class="st14" width="4.4" height="36.8"/>
			<rect x="117.4" y="115.2" class="st5" width="100.1" height="59.7"/>
			<rect x="120.4" y="117.7" class="st15" width="93.9" height="54.6"/>
		</g>
		<g>
			<g>
				<rect x="156.1" y="155.9" class="st1" width="11.5" height="13.8"/>
				<rect x="161.7" y="155.9" class="st16" width="5.9" height="13.8"/>
			</g>
			<g>
				<rect x="142.5" y="163.5" class="st1" width="11.5" height="6.1"/>
				<rect x="148.3" y="163.5" class="st16" width="5.5" height="6.1"/>
			</g>
			<g>
				<rect x="169.6" y="146.2" class="st1" width="11.8" height="23.3"/>
				<rect x="175.8" y="146.2" class="st16" width="5.6" height="23.3"/>
			</g>
			<g>
				<rect x="183.2" y="135.6" class="st1" width="11.8" height="34"/>
				<rect x="189.1" y="135.6" class="st16" width="5.8" height="34"/>
			</g>
			<g>
				<rect x="196.8" y="123.8" class="st9" width="11.4" height="45.9"/>
				<rect x="202.4" y="123.8" class="st4" width="5.8" height="45.9"/>
			</g>
		</g>
		<g>
			<polygon class="st4" points="120.6,164.5 124.3,169 184.8,123.4 181.1,118.9 			"/>
			<g>
				<polygon class="st4" points="187.8,127.6 201,107.6 177.6,115.1 				"/>
			</g>
		</g>
		<g>
			<rect x="103.8" y="185.7" class="st17" width="35.8" height="9.5"/>
			<path class="st2" d="M92.7,202.7c-1.8-1.1-3.5-1.8-5-2.2c1.2,4.1,1.4,10.7,1.1,17.4h5.4C96.6,211.1,97,205.4,92.7,202.7z"/>
			<path class="st3" d="M153.3,202.6c-4.4,2.6-3.9,8.4-1.3,15.3h4.6c-0.3-6.6-0.2-13.1,1-17.3C156.3,201,154.9,201.7,153.3,202.6z"
				/>
			<path class="st17" d="M84,196.4c-4,0-9,7.5-13.9,17.2c-1,1.9,0.5,4.2,2.7,4.2h15.9c0.3-6.7,0.2-13.2-1.1-17.4
				C86.9,198,85.7,196.4,84,196.4z"/>
			<path class="st4" d="M133.3,169.4c0.1-4.8-21.2-5.4-21.3-0.5c-0.3,18-6.5,21.7-6.5,21.7s-0.6,16,3.8,27.4h9.1l0.8-9h2.4h2.4
				l0.8,9h9.5c4-11.4,3.5-27.4,3.5-27.4S132.9,188.7,133.3,169.4z"/>
			<path class="st17" d="M161.3,196.1c-1.8,0-3.1,1.8-3.8,4.5c-1.1,4.2-1.2,10.7-1,17.3h16.1c2.3,0,3.7-2.3,2.7-4.2
				C170.5,203.8,165.4,196.1,161.3,196.1z"/>
			<path class="st17" d="M121.7,200.2l0.2,17.6h38.8c1.1-11.8,1.8-21.1,1.8-21.1l-24.7-6.3C134.3,196.7,121.7,200.2,121.7,200.2z"/>
			<path class="st17" d="M105.6,190.4l-24,6.9c0,0,1.1,9,2.4,20.4h37.9l-0.2-17.6C121.7,200.2,112.3,197.4,105.6,190.4z"/>
			<polygon class="st18" points="118.8,196.8 115.5,198.1 121.7,200.2 120.3,197.4 			"/>
			<polygon class="st5" points="121.7,208.8 124,208.8 127.8,198.5 121.7,200.2 			"/>
			<polygon class="st5" points="119.3,208.8 121.7,208.8 121.7,200.2 115.5,198.5 			"/>
			<polygon class="st15" points="98.2,192.6 115.5,204.6 120.3,197.4 103.8,185.7 			"/>
			<polygon class="st18" points="123.1,197.4 121.7,200.2 127.8,198.1 124.5,196.8 			"/>
			<polygon class="st15" points="123.1,197.4 127.8,204.6 145.2,192.6 139.6,185.7 			"/>
			<polygon class="st5" points="121.7,208.8 121.7,217.9 124.8,217.9 124,208.8 			"/>
			<polygon class="st5" points="118.4,217.9 121.7,217.9 121.7,208.8 119.3,208.8 			"/>
			<path class="st8" d="M121.9,129.9c-11.4,0-22.1,11.7-20.6,25.8c1.6,15,12.9,26.8,20.6,26.8c7.5,0,18.9-12.1,20.6-26.8
				C144.1,141.6,133.3,129.9,121.9,129.9z"/>
			<path class="st12" d="M121.5,124.9c-8.8,0-18.3,6-20.8,12.2c-2.6,6.6-1.5,17.5-1.5,17.5l2.9,3.1c0,0,1.8-12.5,4.9-14.1
				c1-0.5,6.7-3.3,6.7-3.3s21.1,3.9,23.2,6c2.8,2.7,4.1,11,4.1,11l3.1-4.3c0,0,0.8-12.4-2.5-17.6
				C139.1,131.4,130.7,124.8,121.5,124.9z"/>
		</g>
		<g>
			<g>
				<path class="st15" d="M279.6,116.4c-0.1,0-0.2,0.1-0.2,0.2l0.1,5.9c0,0.1,0.1,0.2,0.2,0.2c0.1,0,0.2-0.1,0.2-0.2l-0.1-5.9
					C279.7,116.5,279.6,116.4,279.6,116.4z"/>
				<path class="st15" d="M280,151.9c-0.1,0-0.2,0.1-0.2,0.2l0.1,5.9c0,0.1,0.1,0.2,0.2,0.2c0.1,0,0.2-0.1,0.2-0.2l-0.1-5.9
					C280.2,152,280.1,151.9,280,151.9z"/>
				<path class="st15" d="M283.6,149.8c-0.1-0.1-0.2-0.1-0.2,0c0,0-0.1,0.1-0.1,0.2c0,0.1,0,0.1,0,0.2l3.2,4.6
					c0.1,0.1,0.2,0.1,0.2,0c0.1-0.1,0.1-0.2,0-0.3L283.6,149.8z"/>
				<path class="st15" d="M286,146.3c-0.1-0.1-0.2,0-0.2,0.1v0.1c0,0.1,0,0.2,0.1,0.2l4.5,3.1c0.1,0.1,0.2,0,0.2-0.1
					c0-0.1,0-0.2-0.1-0.3L286,146.3z"/>
				<path class="st15" d="M292.8,143.5l-5.1-1.6c-0.1,0-0.2,0-0.2,0.2c0,0,0,0,0,0.1c0,0.1,0.1,0.2,0.1,0.2l5.1,1.6
					c0.1,0,0.2,0,0.2-0.2C292.9,143.7,292.9,143.6,292.8,143.5z"/>
				<path class="st15" d="M293.3,136.8l-5.3,0.1c-0.1,0-0.2,0.1-0.2,0.2s0.1,0.2,0.2,0.2l5.3-0.1c0.1,0,0.2-0.1,0.2-0.2
					C293.5,136.9,293.4,136.8,293.3,136.8z"/>
				<path class="st15" d="M281.9,151.1c0-0.1-0.1-0.1-0.2-0.1c-0.1,0-0.1,0.1-0.1,0.2v0.1l1.3,3.2c0,0.1,0.1,0.1,0.2,0.1
					c0.1-0.1,0.1-0.2,0.1-0.3L281.9,151.1z"/>
				<path class="st15" d="M284.9,148.2c-0.1-0.1-0.2-0.1-0.2,0v0.1c0,0.1,0,0.1,0.1,0.2l2.3,2.4c0.1,0.1,0.2,0.1,0.2,0
					c0.1-0.1,0-0.2,0-0.3L284.9,148.2z"/>
				<path class="st15" d="M286.9,144.2c-0.1,0-0.2,0-0.2,0.1v0.1c0,0.1,0,0.2,0.1,0.2l2.8,1.4c0.1,0,0.2,0,0.2-0.1
					c0-0.1,0-0.2-0.1-0.3L286.9,144.2z"/>
				<path class="st15" d="M291,139.8l-3.1-0.4c-0.1,0-0.2,0.1-0.2,0.2l0,0c0,0.1,0.1,0.2,0.2,0.2l3.1,0.4c0.1,0,0.2-0.1,0.2-0.2
					S291.1,139.8,291,139.8z"/>
				<path class="st15" d="M286.1,119.7l-3.2,4.7c0,0,0,0.1,0,0.2c0,0.1,0,0.1,0.1,0.2c0.1,0.1,0.2,0.1,0.2,0l3.2-4.7
					c0.1-0.1,0.1-0.2,0-0.3C286.3,119.6,286.2,119.6,286.1,119.7z"/>
				<path class="st15" d="M290.2,124.7l-4.4,3.2c-0.1,0-0.1,0.1-0.1,0.2v0.1c0,0.1,0.1,0.2,0.2,0.1l4.4-3.2c0.1-0.1,0.1-0.2,0.1-0.3
					C290.3,124.6,290.2,124.6,290.2,124.7z"/>
				<path class="st15" d="M292.5,130.4l-5,1.7c-0.1,0-0.1,0.1-0.1,0.2c0,0,0,0,0,0.1c0,0.1,0.1,0.2,0.2,0.2l5-1.7
					c0.1,0,0.1-0.1,0.1-0.3C292.7,130.4,292.6,130.4,292.5,130.4z"/>
				<path class="st15" d="M282.5,120.1l-1.2,3.2v0.1c0,0.1,0,0.2,0.1,0.2c0.1,0.1,0.2,0,0.2-0.1l1.2-3.2c0-0.1,0-0.2-0.1-0.3
					C282.7,120,282.6,120,282.5,120.1z"/>
				<path class="st15" d="M286.7,123.7l-2.2,2.4c0,0-0.1,0.1-0.1,0.2v0.1c0.1,0.1,0.2,0.1,0.2,0l2.2-2.4
					C286.8,123.9,286.8,123.8,286.7,123.7C286.8,123.6,286.7,123.6,286.7,123.7z"/>
				<path class="st15" d="M289.4,128.4l-2.8,1.5c-0.1,0-0.1,0.1-0.1,0.2v0.1c0,0.1,0.1,0.2,0.2,0.1l2.8-1.5c0.1,0,0.1-0.2,0.1-0.3
					S289.5,128.4,289.4,128.4z"/>
				<path class="st15" d="M291,134.2l-3.1,0.4c-0.1,0-0.1,0.1-0.1,0.2l0,0c0,0.1,0.1,0.2,0.2,0.2l3.1-0.4c0.1,0,0.2-0.1,0.1-0.2
					C291.1,134.3,291,134.2,291,134.2z"/>
			</g>
			<g>
				<g>
					<path class="st19" d="M282.4,133.4c-0.4,0-0.8,0.4-0.8,0.8v5.8c0,0.4,0.4,0.8,0.8,0.8s0.8-0.4,0.8-0.8v-5.8
						C283.2,133.8,282.9,133.4,282.4,133.4z"/>
					<path class="st20" d="M276.4,128.9c-3.4,0-6.1,2.6-6.1,6v4.5c0,3.2,2.8,6,6.1,6c3.4,0,6.1-2.6,6.1-6v-4.5
						C282.5,131.6,279.7,128.9,276.4,128.9z"/>
				</g>
				<g>
					<g>
						<path class="st14" d="M244.2,145.8l-7.7,3.2l6.9,15.6c0.9,2,3.3,3,5.4,2.1l0.1-0.1c2.1-0.9,3.1-3.2,2.2-5.3L244.2,145.8z"/>
						<path class="st19" d="M250.3,164.6c-2.1,0.9-4.6-0.1-5.4-2.1l-6.3-14.3l-2,0.9l6.9,15.6c0.9,2,3.3,3,5.4,2.1l0.1-0.1
							c1.2-0.5,2.1-1.6,2.4-2.8c-0.3,0.3-0.6,0.4-1,0.5L250.3,164.6z"/>
					</g>
					<polygon class="st19" points="236,151.4 246,147.3 246,145.4 233,145.4 					"/>
				</g>
				<g>
					<path class="st14" d="M225.1,137.1L225.1,137.1c0,4.6,3.9,8.3,8.6,8.3h13.8v-16.7h-13.8C228.9,128.8,225.1,132.5,225.1,137.1z"
						/>
					<path class="st20" d="M243.1,131.1h-9.8c-1.4,0-2.5,1.1-2.5,2.5s1.1,2.5,2.5,2.5h9.8c1.4,0,2.5-1.1,2.5-2.5
						S244.4,131.1,243.1,131.1z"/>
				</g>
				<g>
					<path class="st9" d="M247.5,129.2v7.9v7.9c0,0,5.8,1.1,13.2,3.5c9,3,15.2,8.2,15.2,8.2v-19.6v-19.6c0,0-6.1,5.2-15.2,8.2
						C253.2,128.2,247.5,129.2,247.5,129.2z"/>
					<path class="st21" d="M277.4,115.8c-0.8,0-1.5,0.6-1.5,1.4v39.5c0,0.8,0.7,1.4,1.5,1.4c0.8,0,1.5-0.6,1.5-1.4v-39.5
						C278.9,116.5,278.2,115.8,277.4,115.8z"/>
					<path class="st12" d="M257.9,142.5l-10.4-2.5v4.9c0,0,5.8,1.1,13.2,3.5c9,3,15.2,8.2,15.2,8.2v-28.8l-0.8,4
						C273.6,139.6,265.7,144.4,257.9,142.5z"/>
				</g>
			</g>
		</g>
		<g>
			<path class="st6" d="M220.1,161.4c-16,0-28.9,12.5-28.9,27.9c0,15.4,13,27.9,28.9,27.9c16,0,28.9-12.5,28.9-27.9
				C249,173.9,236.1,161.4,220.1,161.4z"/>
			<path class="st22" d="M220.1,163.2c-15,0-27.1,11.8-27.1,26.2c0,14.5,12.2,26.2,27.1,26.2c15,0,27.1-11.8,27.1-26.2
				C247.3,174.8,235.1,163.2,220.1,163.2z"/>
			<path class="st15" d="M220.1,163.8c-14.6,0-26.5,11.4-26.5,25.5c0,14.1,11.8,25.5,26.5,25.5c14.6,0,26.5-11.4,26.5-25.5
				C246.6,175.2,234.7,163.8,220.1,163.8z"/>
			<path class="st17" d="M222,211.4c-13.8,0-24.9-10.8-24.9-24c0-11.1,7.8-20.4,18.3-23.2c-12.4,2.2-21.8,12.5-21.8,25.2
				c0,14.1,11.8,25.5,26.5,25.5c13.9,0,25.2-10.3,26.4-23.3C244.5,202.8,234.3,211.4,222,211.4z"/>
			<g>
				<path class="st1" d="M220.1,166.4c-13.1,0-23.7,10.3-23.7,22.9c0,5.3,1.8,10.1,4.9,13.9l1-1c-2.8-3.6-4.6-8.1-4.6-13
					c0-11.9,10-21.6,22.4-21.6c12.3,0,22.4,9.6,22.4,21.6c0,4.8-1.7,9.4-4.5,13l1,1c3.1-3.9,4.9-8.7,4.9-13.9
					C243.9,176.7,233.2,166.4,220.1,166.4z"/>
				<path class="st9" d="M240.3,177.4l-1.2,0.7c1.4,2,2.5,5.5,2.5,5.6c0.5,1.8,0.8,3.7,0.8,5.7c0,4.8-1.7,9.4-4.5,13l1,1
					c3.1-3.9,4.9-8.7,4.9-13.9c0-2.2-0.3-4-0.9-6.1C243,183.1,242.1,179.7,240.3,177.4z"/>
				<g>
					<rect x="219.6" y="167.4" class="st1" width="1.1" height="4.2"/>
				</g>
				<g>
					<polygon class="st1" points="208.4,170.6 210.6,174.2 211.6,173.8 209.4,170.1 					"/>
				</g>
				<g>
					<polygon class="st1" points="200.3,178.8 204.2,180.9 204.7,180 200.9,177.9 					"/>
					<polygon class="st9" points="235.7,198.4 239.5,200.5 240,199.6 236.2,197.5 					"/>
				</g>
				<g>
					<rect x="197.6" y="188.7" class="st1" width="4.4" height="1.1"/>
					<rect x="238.3" y="188.7" class="st9" width="4.4" height="1.1"/>
				</g>
				<g>
					<polygon class="st1" points="200.3,199.6 200.9,200.5 204.7,198.4 204.2,197.5 					"/>
					<polygon class="st9" points="235.7,180 236.2,180.9 240,178.8 239.5,177.9 					"/>
				</g>
				<g>
					<polygon class="st1" points="228.9,173.8 229.7,174.2 231.9,170.6 231,170.1 					"/>
				</g>
				<path class="st23" d="M227.2,202.2h-14c-1.7,0-3,1.6-3,3.5s1.3,3.5,3,3.5h14c1.7,0,3-1.6,3-3.5
					C230.2,203.8,228.9,202.2,227.2,202.2z"/>
				<g>
					<polygon class="st1" points="214,168.4 214.7,171 215.3,170.8 214.6,168.3 					"/>
				</g>
				<g>
					<polygon class="st1" points="204.1,174.1 206,176 206.4,175.6 204.5,173.8 					"/>
				</g>
				<g>
					<polygon class="st1" points="198.4,183.9 201,184.6 201.2,184 198.6,183.3 					"/>
					<polygon class="st9" points="238.9,194.4 241.6,195.1 241.7,194.6 239.1,193.9 					"/>
				</g>
				<g>
					<polygon class="st1" points="198.4,194.6 198.6,195.1 201.2,194.4 201,193.9 					"/>
					<polygon class="st9" points="238.9,184 239.1,184.6 241.7,183.9 241.6,183.3 					"/>
				</g>
				<g>
					<polygon class="st1" points="233.8,175.6 234.2,176 236.1,174.1 235.7,173.8 					"/>
				</g>
				<g>
					<polygon class="st1" points="224.9,170.9 225.4,171 226.1,168.4 225.6,168.3 					"/>
				</g>
				<rect x="213.8" y="203.8" class="st14" width="1.7" height="3.8"/>
				<rect x="216.1" y="203.8" class="st14" width="1.7" height="3.8"/>
				<rect x="218.5" y="203.8" class="st14" width="1.7" height="3.8"/>
				<rect x="222.9" y="203.8" class="st14" width="1.7" height="3.8"/>
				<rect x="225.2" y="203.8" class="st14" width="1.7" height="3.8"/>
				<g>
					<path class="st9" d="M219.1,188.5l1.9,1.8c0,0,14.6-15,14-15.6C234.7,174.4,219.1,188.5,219.1,188.5z"/>
					<path class="st24" d="M221,186.8c-1.1,1.1-1.9,1.7-1.9,1.7l1.9,1.8c0,0,0.7-0.7,1.8-1.8c-0.1-0.4-0.4-0.8-0.6-1.1
						C221.8,187.1,221.5,186.9,221,186.8z"/>
					<path class="st9" d="M218.3,187.7c-1.1,1-1.1,2.5,0,3.5s2.6,1,3.7,0c1.1-1,1.1-2.5,0-3.5C221,186.7,219.3,186.7,218.3,187.7z"
						/>
					<path class="st12" d="M218.2,191.1L218.2,191.1c1.1,1.1,2.7,1.1,3.8,0.1c0.7-0.6,0.9-1.6,0.7-2.4c3.7-3.9,13-13.6,12.5-14
						L218.2,191.1z"/>
				</g>
			</g>
		</g>
		<g>
			<g>
				<g>
					<path class="st15" d="M262.2,161.3c-0.3,0.2-0.4,0.6-0.2,0.9c0.2,0.3,0.6,0.4,0.9,0.2c0.4-0.2,0.4-0.6,0.2-0.9
						C262.9,161.2,262.5,161.1,262.2,161.3z"/>
				</g>
				<g>
					<path class="st15" d="M264.1,164.6c-0.4,0.2-0.5,0.5-0.4,0.8c0.1,0.4,0.5,0.5,0.9,0.4c0.4-0.1,0.5-0.5,0.4-0.9
						C264.8,164.7,264.5,164.6,264.1,164.6z"/>
				</g>
				<g>
					<path class="st15" d="M265.3,168.3c-0.4,0.1-0.6,0.4-0.5,0.8c0.1,0.4,0.4,0.5,0.8,0.5c0.4-0.1,0.6-0.4,0.5-0.8
						C266,168.4,265.7,168.2,265.3,168.3z"/>
				</g>
				<g>
					<path class="st15" d="M266,172.1c-0.4,0-0.6,0.4-0.6,0.6c0,0.4,0.4,0.6,0.7,0.6c0.4,0,0.6-0.3,0.6-0.6
						C266.6,172.4,266.3,172.1,266,172.1z"/>
				</g>
				<g>
					<path class="st15" d="M265.8,176c-0.4,0-0.7,0.2-0.7,0.5c-0.1,0.4,0.2,0.7,0.6,0.7c0.4,0.1,0.7-0.2,0.7-0.5
						C266.5,176.3,266.2,176,265.8,176z"/>
				</g>
				<g>
					<path class="st15" d="M265.1,179.7c-0.4-0.1-0.7,0.1-0.9,0.4c-0.1,0.4,0.1,0.7,0.4,0.8c0.4,0.2,0.7,0,0.9-0.4
						C265.6,180.2,265.4,179.8,265.1,179.7z"/>
				</g>
				<g>
					<path class="st15" d="M263.5,183.1c-0.4-0.2-0.7-0.1-0.9,0.2c-0.2,0.3-0.1,0.7,0.2,0.9c0.3,0.2,0.7,0.1,0.9-0.2
						C263.9,183.8,263.9,183.3,263.5,183.1z"/>
				</g>
				<g>
					<path class="st15" d="M260.2,186.3c-0.3,0.3-0.3,0.6,0,0.9c0.3,0.3,0.7,0.3,1,0c0.3-0.3,0.3-0.7,0-0.9
						C260.9,186,260.4,186,260.2,186.3z"/>
				</g>
				<g>
					<path class="st15" d="M257.4,188.8c-0.3,0.2-0.4,0.6-0.2,0.9c0.2,0.3,0.6,0.4,1,0.1c0.3-0.2,0.4-0.6,0.1-0.9
						C258.1,188.6,257.6,188.6,257.4,188.8z"/>
				</g>
				<g>
					<path class="st15" d="M254.1,190.9c-0.4,0.2-0.4,0.5-0.3,0.9c0.2,0.4,0.6,0.4,0.9,0.3c0.4-0.2,0.4-0.6,0.3-0.9
						C254.8,190.8,254.4,190.7,254.1,190.9z"/>
				</g>
			</g>
			<polygon class="st15" points="260.9,164.2 265.7,161.1 259.1,157.2 			"/>
		</g>
		<g>
			<g>
				<g>
					<path class="st15" d="M53.7,132.1c-0.4,0-0.6,0.3-0.6,0.7c0,0.4,0.4,0.6,0.7,0.6c0.4,0,0.6-0.4,0.6-0.7
						C54.4,132.5,54.1,132.1,53.7,132.1z"/>
				</g>
				<g>
					<path class="st15" d="M54,128.2c-0.4-0.1-0.7,0.2-0.7,0.6c0,0.4,0.3,0.7,0.6,0.7s0.7-0.3,0.7-0.6
						C54.6,128.6,54.3,128.3,54,128.2z"/>
				</g>
				<g>
					<path class="st15" d="M54.7,124.5c-0.4-0.1-0.7,0.1-0.8,0.4c-0.1,0.4,0.2,0.7,0.5,0.8c0.4,0.1,0.7-0.2,0.8-0.4
						C55.4,124.9,55.1,124.6,54.7,124.5z"/>
				</g>
				<g>
					<path class="st15" d="M56.1,120.8c-0.4-0.2-0.7,0-0.9,0.4s0,0.7,0.4,0.9c0.4,0.1,0.7-0.1,0.9-0.4
						C56.6,121.3,56.4,121,56.1,120.8z"/>
				</g>
				<g>
					<path class="st15" d="M58,117.4c-0.3-0.2-0.7-0.1-1,0.2c-0.2,0.4-0.1,0.7,0.3,0.9c0.4,0.2,0.7,0.1,0.9-0.3
						C58.3,118,58.3,117.5,58,117.4z"/>
				</g>
				<g>
					<path class="st15" d="M59.6,114.4c-0.3,0.3-0.3,0.7,0.1,0.9c0.3,0.3,0.7,0.2,1-0.1c0.3-0.3,0.3-0.7-0.1-0.9
						C60.2,114.1,59.7,114.1,59.6,114.4z"/>
				</g>
				<g>
					<path class="st15" d="M62.5,111.7c-0.3,0.3-0.4,0.6-0.1,0.9c0.3,0.3,0.6,0.3,1,0.1c0.3-0.3,0.4-0.6,0.1-0.9
						C63.3,111.4,62.8,111.4,62.5,111.7z"/>
				</g>
				<g>
					<path class="st15" d="M65.9,109.4c-0.4,0.2-0.4,0.6-0.3,0.9s0.6,0.4,0.9,0.3c0.3-0.2,0.4-0.5,0.3-0.9
						C66.7,109.3,66.2,109.2,65.9,109.4z"/>
				</g>
				<g>
					<path class="st15" d="M69.7,107.6c-0.4,0.2-0.5,0.5-0.4,0.9c0.2,0.4,0.5,0.4,0.9,0.4c0.4-0.2,0.5-0.5,0.4-0.9
						C70.4,107.7,70,107.5,69.7,107.6z"/>
				</g>
				<g>
					<path class="st15" d="M73.5,106.4c-0.4,0.1-0.6,0.4-0.4,0.8c0.1,0.4,0.4,0.5,0.8,0.4c0.4-0.1,0.5-0.4,0.4-0.8
						C74.2,106.5,73.9,106.3,73.5,106.4z"/>
				</g>
				<g>
					<path class="st15" d="M77.5,105.5c-0.4,0.1-0.6,0.4-0.5,0.8c0.1,0.4,0.4,0.5,0.8,0.5c0.4-0.1,0.6-0.4,0.5-0.7
						C78.2,105.7,77.9,105.4,77.5,105.5z"/>
				</g>
				<g>
					<path class="st15" d="M81.6,105.1c-0.4,0-0.7,0.4-0.6,0.7c0,0.4,0.4,0.6,0.7,0.6c0.4,0,0.6-0.3,0.6-0.7
						C82.3,105.3,81.9,105,81.6,105.1z"/>
				</g>
				<g>
					<path class="st15" d="M85.7,105.1c-0.4,0-0.7,0.3-0.7,0.6c0,0.4,0.3,0.6,0.6,0.7c0.4,0,0.7-0.2,0.7-0.5
						C86.3,105.4,86.1,105.1,85.7,105.1z"/>
				</g>
				<g>
					<path class="st15" d="M89.7,105.8c-0.4-0.1-0.7,0.1-0.8,0.4c-0.1,0.4,0.2,0.7,0.5,0.8c0.4,0.1,0.7-0.1,0.8-0.4
						C90.4,106.2,90.1,105.9,89.7,105.8z"/>
				</g>
				<g>
					<path class="st15" d="M93.7,107c-0.4-0.2-0.8,0-0.9,0.4c-0.2,0.4,0,0.7,0.4,0.9c0.4,0.1,0.7,0,0.9-0.4
						C94.1,107.5,94,107.2,93.7,107z"/>
				</g>
				<g>
					<path class="st15" d="M97.3,108.9c-0.4-0.2-0.7-0.1-1,0.2c-0.2,0.3-0.1,0.7,0.2,0.9c0.3,0.2,0.7,0.1,0.9-0.2
						C97.7,109.5,97.6,109.1,97.3,108.9z"/>
				</g>
				<g>
					<path class="st15" d="M99.7,111.3c-0.3,0.3-0.2,0.7,0.1,0.9c0.3,0.3,0.7,0.2,1-0.1c0.3-0.3,0.3-0.7-0.1-0.9
						C100.3,111,99.8,111,99.7,111.3z"/>
				</g>
				<g>
					<path class="st15" d="M102.5,114c-0.3,0.3-0.3,0.6-0.1,0.9c0.3,0.3,0.6,0.3,1,0.1c0.3-0.3,0.4-0.6,0.1-0.9
						C103.2,113.8,102.8,113.8,102.5,114z"/>
				</g>
				<g>
					<path class="st15" d="M105.1,117c-0.3,0.2-0.4,0.6-0.2,0.9s0.6,0.4,0.9,0.2c0.4-0.2,0.4-0.6,0.2-0.9
						C105.8,116.9,105.4,116.8,105.1,117z"/>
				</g>
				<g>
					<path class="st15" d="M107.2,120.3c-0.4,0.2-0.4,0.5-0.3,0.9c0.2,0.4,0.5,0.4,0.9,0.3c0.4-0.2,0.4-0.5,0.3-0.9
						S107.5,120.2,107.2,120.3z"/>
				</g>
			</g>
			<polygon class="st15" points="108.9,125.7 109,118.4 103.5,120.3 			"/>
		</g>
		<g>
			<g>
				<path class="st4" d="M273.1,179.8c-4.9,0-8.9,3.9-8.9,8.7c0,2.5,1.1,4.6,2.6,6.2c0.7,0.7,1.2,1.1,1.8,1.8
					c0.4,0.5,0.6,1.7,0.6,2.4c0,0.8,0,3.2,0,3.2h7.6V199c0,0,0.2-1.8,0.5-2.4c0.4-0.7,0.9-1.1,1.5-1.6c1.8-1.6,3-3.9,3-6.5
					C281.9,183.7,278,179.8,273.1,179.8z"/>
				<path class="st14" d="M273.1,187.5L273.1,187.5c-0.1,0-0.2-0.2-0.4-0.3c-0.2-0.3-0.4-0.5-0.8-0.5l0,0c-0.4,0-0.6,0.3-0.8,0.5
					c-0.1,0.1-0.2,0.3-0.3,0.3c0,0-0.2,0-0.3-0.1c-0.4-0.1-0.8-0.2-1.1,0.1c-0.2,0.2-0.3,0.6,0,1.2c1.8,5.5,1.9,6.2,1.9,6.2
					c0,0.1,0.1,0.1,0.2,0.1l0,0c0.1,0,0.2-0.1,0.1-0.2c0,0-0.2-0.6-1.9-6.2c-0.2-0.6-0.1-0.9,0-0.9c0.2-0.2,0.5-0.1,0.8,0
					c0.2,0,0.4,0.1,0.4,0.1c0.2,0,0.4-0.2,0.5-0.4s0.4-0.4,0.5-0.4l0,0c0.2,0,0.4,0.2,0.5,0.4c0.2,0.2,0.3,0.4,0.6,0.4
					c0.1,0,0.2-0.1,0.2-0.2C273.2,187.6,273.2,187.5,273.1,187.5z"/>
				<path class="st14" d="M275.5,187.5c-0.1,0-0.3,0.1-0.3,0.1c-0.1,0-0.2-0.2-0.3-0.3c-0.2-0.3-0.4-0.5-0.8-0.5l0,0
					c-0.4,0-0.6,0.3-0.8,0.5c-0.1,0.2-0.2,0.3-0.4,0.3l0,0c-0.1,0-0.2,0.1-0.2,0.2s0.1,0.2,0.2,0.2c0.3,0,0.4-0.2,0.6-0.4
					c0.2-0.2,0.3-0.4,0.5-0.4l0,0c0.3,0,0.4,0.2,0.5,0.4c0.2,0.2,0.3,0.4,0.5,0.4c0.1,0,0.3,0,0.4-0.1c0.3-0.1,0.6-0.2,0.8,0
					c0.1,0.1,0.2,0.3,0,0.9c-1.8,5.6-1.9,6.2-1.9,6.2c0,0.1,0,0.2,0.1,0.2l0,0c0.1,0,0.2-0.1,0.2-0.1s0.2-0.7,1.9-6.2
					c0.2-0.6,0.2-1,0-1.2C276.4,187.3,275.9,187.4,275.5,187.5z"/>
				<path class="st25" d="M273.1,194.5c-1.1,0-1.9,0-1.9,1.2v4.9c0,1.2,3.9,1.2,3.9,0v-4.9C275,194.5,274.1,194.5,273.1,194.5z"/>
				<rect x="272.4" y="190.4" class="st25" width="1.1" height="4"/>
				<path class="st25" d="M273.6,190.3h-1.2c-0.1,0-0.2,0.1-0.2,0.2c0,0.1,0.1,0.2,0.2,0.2h1.2c0.1,0,0.2-0.1,0.2-0.2
					S273.7,190.3,273.6,190.3z"/>
				<path class="st1" d="M269.2,204c0,2,2.7,3.7,3.9,3.7c1.1,0,3.9-1.7,3.9-3.7v-3.2h-7.6L269.2,204L269.2,204z"/>
				<path class="st26" d="M273.8,206.9h-1.3c-0.2,0-0.3,0.3-0.3,0.5c0,0.3,0.1,0.5,0.3,0.5h1.3c0.2,0,0.3-0.3,0.3-0.5
					C274,207.2,273.9,206.9,273.8,206.9z"/>
				<path class="st27" d="M276.6,201.4l-7,0.4c-0.2,0-0.3,0.2-0.3,0.4c0,0.2,0.2,0.3,0.4,0.3l7-0.4c0.2,0,0.3-0.2,0.3-0.4
					C276.8,201.6,276.7,201.4,276.6,201.4z"/>
				<path class="st27" d="M276.6,202.5l-7,0.4c-0.2,0-0.3,0.2-0.3,0.4c0,0.2,0.2,0.3,0.4,0.3l7-0.4c0.2,0,0.3-0.2,0.3-0.4
					C276.8,202.6,276.7,202.5,276.6,202.5z"/>
				<path class="st27" d="M276.6,203.6l-7,0.4c-0.2,0-0.3,0.2-0.3,0.4c0,0.2,0.2,0.3,0.4,0.3l7-0.4c0.2,0,0.3-0.2,0.3-0.4
					C276.8,203.8,276.7,203.6,276.6,203.6z"/>
				<path class="st28" d="M274,194.8c-0.3,0-0.5,0.2-0.5,0.4v4.9c0,0.3,0.2,0.4,0.5,0.4c0.3,0,0.5-0.2,0.5-0.4v-4.9
					C274.6,195.1,274.3,194.8,274,194.8z"/>
				<path class="st28" d="M273.2,191c-0.1,0-0.2,0.1-0.2,0.2v3c0,0.1,0.1,0.2,0.2,0.2c0.1,0,0.2-0.1,0.2-0.2v-3
					C273.3,191,273.3,191,273.2,191z"/>
				<path class="st14" d="M272.1,207.4c0,0.3,0.1,0.4,0.3,0.4h1.3c0.2,0,0.3-0.2,0.3-0.4c0.7-0.4,1.7-1,2.3-1.8h-6.3
					C270.5,206.6,271.4,207.2,272.1,207.4z"/>
				<path class="st29" d="M277.4,182.5c-1,0.4-1.1,2.2-0.4,3.9c0.8,1.8,2.3,2.8,3.2,2.4c1-0.4,1.1-2.2,0.4-3.9
					C279.8,183.2,278.3,182.2,277.4,182.5z"/>
			</g>
			<g>
				<path class="st29" d="M263.2,185.7h-3.9c-0.1,0-0.2,0.1-0.2,0.1c0,0.1,0.1,0.1,0.2,0.1h3.9c0.1,0,0.2-0.1,0.2-0.1
					C263.3,185.8,263.2,185.7,263.2,185.7z"/>
				<path class="st29" d="M286.8,185.7h-3.9c-0.1,0-0.2,0.1-0.2,0.1c0,0.1,0.1,0.1,0.2,0.1h3.9c0.1,0,0.2-0.1,0.2-0.1
					C287,185.8,286.9,185.7,286.8,185.7z"/>
				<path class="st29" d="M284.6,179.9l-3.2,2.8c-0.1,0.1-0.1,0.1,0,0.2h0.1h0.1l3.2-2.8c0.1-0.1,0.1-0.1,0-0.2
					C284.7,179.9,284.6,179.9,284.6,179.9z"/>
				<path class="st29" d="M281.1,176.6l-2.1,3.9c0,0.1,0,0.2,0.1,0.2c0,0,0,0,0.1,0c0.1,0,0.1,0,0.1-0.1l2.1-3.9
					c0-0.1,0-0.2-0.1-0.2C281.3,176.5,281.2,176.5,281.1,176.6z"/>
				<path class="st29" d="M277.4,174.5c-0.1,0-0.2,0-0.2,0.1l-1.1,4.4c0,0.1,0,0.2,0.1,0.2l0,0c0.1,0,0.1,0,0.1-0.1l1.1-4.4
					C277.6,174.6,277.5,174.5,277.4,174.5z"/>
				<path class="st29" d="M273,173.9c-0.1,0-0.2,0.1-0.2,0.1v4.6c0,0.1,0.1,0.1,0.2,0.1c0.1,0,0.2-0.1,0.2-0.1v-4.6
					C273.1,173.9,273,173.9,273,173.9z"/>
				<path class="st29" d="M284.4,183.1l-2.1,1.1c-0.1,0-0.1,0.1-0.1,0.2l0.1,0.1c0,0,0,0,0.1,0l2.1-1.1c0.1,0,0.1-0.1,0.1-0.2
					C284.6,183,284.5,183,284.4,183.1z"/>
				<path class="st29" d="M281.9,179.6l-1.6,1.9c-0.1,0.1,0,0.2,0,0.2h0.1c0,0,0.1,0,0.1-0.1l1.6-1.9c0.1-0.1,0-0.2,0-0.2
					C282,179.5,281.9,179.5,281.9,179.6z"/>
				<path class="st29" d="M278.9,177.2c-0.1,0-0.2,0-0.2,0.1l-1,2.5c0,0.1,0,0.2,0.1,0.2c0,0,0,0,0.1,0c0.1,0,0.1,0,0.1-0.1l1-2.5
					C278.9,177.3,278.9,177.2,278.9,177.2z"/>
				<path class="st29" d="M274.9,175.9c-0.1,0-0.2,0.1-0.2,0.1l-0.3,2.7c0,0.1,0.1,0.2,0.1,0.2l0,0c0.1,0,0.1-0.1,0.1-0.1l0.3-2.7
					C275.1,176,275,175.9,274.9,175.9z"/>
				<path class="st29" d="M261.6,179.9c-0.1-0.1-0.2-0.1-0.2,0c-0.1,0.1-0.1,0.2,0,0.2l3.2,2.8h0.1h0.1c0.1-0.1,0.1-0.2,0-0.2
					L261.6,179.9z"/>
				<path class="st29" d="M264.9,176.6c0-0.1-0.1-0.1-0.2-0.1c-0.1,0-0.1,0.1-0.1,0.2l2.1,3.9c0,0.1,0.1,0.1,0.1,0.1s0,0,0.1,0
					c0.1,0,0.1-0.1,0.1-0.2L264.9,176.6z"/>
				<path class="st29" d="M268.7,174.5c-0.1,0-0.1,0.1-0.1,0.2l1.1,4.4c0,0.1,0.1,0.1,0.1,0.1l0,0c0.1,0,0.1-0.1,0.1-0.2
					L268.7,174.5C268.8,174.5,268.7,174.5,268.7,174.5z"/>
				<path class="st29" d="M261.7,183.1c-0.1,0-0.2,0-0.2,0.1s0,0.2,0.1,0.2l2.1,1.1c0,0,0,0,0.1,0c0.1,0,0.1,0,0.1-0.1
					s0-0.2-0.1-0.2L261.7,183.1z"/>
				<path class="st29" d="M264.2,179.6c-0.1-0.1-0.1-0.1-0.2,0c-0.1,0-0.1,0.1,0,0.2l1.6,1.9l0.1,0.1h0.1c0.1,0,0.1-0.1,0-0.2
					L264.2,179.6z"/>
				<path class="st29" d="M267.3,177.2c-0.1,0-0.1,0.1-0.1,0.2l1,2.5c0,0.1,0.1,0.1,0.1,0.1s0,0,0.1,0c0.1,0,0.1-0.1,0.1-0.2l-1-2.5
					C267.4,177.2,267.4,177.1,267.3,177.2z"/>
				<path class="st29" d="M271.2,175.9c-0.1,0-0.1,0.1-0.1,0.2l0.3,2.7c0,0.1,0.1,0.1,0.1,0.1l0,0c0.1,0,0.1-0.1,0.1-0.2
					L271.2,175.9C271.3,176,271.2,175.9,271.2,175.9z"/>
			</g>
		</g>
		<path class="st7" d="M155.4,91.7c-1.7,0-3.2,0.5-4.6,1.5c-1.6-3.5-4.9-5.9-8.8-5.9c-3.3,0-6.2,1.8-8,4.6c-1.1-0.6-2.3-0.9-3.6-0.9
			c-4.6,0-8.3,4-8.3,8.9c0,0.2,0,0.3,0,0.4l0,0c-2.2,0-3.9,1.9-3.9,4.3s1.8,4.3,3.9,4.3h34.2v-0.1c4-0.5,7.2-4.1,7.2-8.5
			C163.6,95.5,159.9,91.7,155.4,91.7z"/>
		<g>
			<g>
				<path class="st4" d="M130.3,93.3c-3.2,0-6,2.6-6,5.8c0,1.6,0.7,3.1,1.8,4.1c0.4,0.4,0.8,0.7,1.1,1.2c0.3,0.4,0.4,1.1,0.4,1.6
					c0,0.5,0,2.1,0,2.1h5.1V106c0,0,0.1-1.2,0.4-1.6c0.3-0.4,0.6-0.7,1.1-1.1c1.2-1.1,2-2.6,2-4.4C136.2,96,133.6,93.3,130.3,93.3z"
					/>
				<path class="st14" d="M130.3,98.5L130.3,98.5c-0.1,0-0.2-0.1-0.2-0.2c-0.1-0.2-0.3-0.4-0.5-0.4l0,0c-0.3,0-0.4,0.2-0.5,0.4
					c-0.1,0.1-0.2,0.2-0.2,0.2s-0.1,0-0.2,0c-0.3-0.1-0.5-0.2-0.7,0.1c-0.2,0.2-0.2,0.4,0,0.8c1.1,3.7,1.2,4.1,1.2,4.1
					c0,0.1,0.1,0.1,0.1,0.1l0,0c0.1,0,0.1-0.1,0.1-0.1s-0.1-0.4-1.2-4.2c-0.2-0.4-0.1-0.5,0-0.6c0.1-0.1,0.4,0,0.5,0
					c0.1,0,0.2,0.1,0.3,0c0.2,0,0.3-0.2,0.4-0.3c0.1-0.2,0.3-0.3,0.4-0.3l0,0c0.2,0,0.3,0.1,0.4,0.3c0.1,0.2,0.2,0.3,0.4,0.3
					c0.1,0,0.1-0.1,0.1-0.1C130.4,98.6,130.4,98.5,130.3,98.5z"/>
				<path class="st14" d="M131.9,98.5c-0.1,0-0.2,0-0.2,0c-0.1,0-0.1-0.1-0.2-0.2c-0.1-0.2-0.3-0.4-0.5-0.4l0,0
					c-0.3,0-0.4,0.2-0.5,0.4c-0.1,0.1-0.2,0.2-0.2,0.2l0,0c-0.1,0-0.1,0-0.1,0.1s0.1,0.1,0.1,0.1c0.2,0,0.3-0.2,0.4-0.3
					c0.1-0.1,0.2-0.3,0.4-0.3l0,0c0.2,0,0.3,0.2,0.4,0.3c0.1,0.1,0.2,0.3,0.4,0.3c0.1,0,0.2,0,0.3,0c0.2,0,0.4-0.1,0.5,0
					c0.1,0.1,0.1,0.2,0,0.6c-1.1,3.8-1.3,4.1-1.3,4.2c0,0.1,0,0.1,0.1,0.1l0,0c0.1,0,0.1,0,0.1-0.1c0,0,0.1-0.4,1.3-4.1
					c0.1-0.4,0.1-0.7,0-0.8C132.5,98.4,132.2,98.4,131.9,98.5z"/>
				<path class="st25" d="M130.3,103.2c-0.7,0-1.3,0-1.3,0.9v3.3c0,0.8,2.5,0.8,2.5,0V104C131.6,103.2,131,103.2,130.3,103.2z"/>
				<rect x="129.8" y="100.4" class="st25" width="0.7" height="2.6"/>
				<path class="st25" d="M130.6,100.3h-0.8c-0.1,0-0.1,0.1-0.1,0.1c0,0.1,0.1,0.1,0.1,0.1h0.8C130.7,100.5,130.7,100.4,130.6,100.3
					C130.7,100.4,130.7,100.3,130.6,100.3z"/>
				<path class="st1" d="M127.7,109.6c0,1.4,1.8,2.5,2.5,2.5c0.7,0,2.5-1.1,2.5-2.5v-2.1h-5.1L127.7,109.6L127.7,109.6z"/>
				<path class="st26" d="M130.7,111.5h-0.9c-0.1,0-0.2,0.2-0.2,0.4c0,0.2,0.1,0.4,0.2,0.4h0.9c0.1,0,0.2-0.2,0.2-0.4
					C130.9,111.7,130.8,111.5,130.7,111.5z"/>
				<path class="st27" d="M132.6,107.8L128,108c-0.1,0-0.2,0.1-0.2,0.2s0.1,0.2,0.3,0.2l4.6-0.2c0.1,0,0.2-0.1,0.2-0.2
					C132.8,107.9,132.7,107.8,132.6,107.8z"/>
				<path class="st27" d="M132.6,108.5l-4.6,0.3c-0.1,0-0.2,0.1-0.2,0.2c0,0.1,0.1,0.2,0.3,0.2l4.6-0.3c0.1,0,0.2-0.1,0.2-0.2
					C132.8,108.6,132.7,108.5,132.6,108.5z"/>
				<path class="st27" d="M132.6,109.3l-4.6,0.2c-0.1,0-0.2,0.1-0.2,0.2s0.1,0.2,0.3,0.2l4.6-0.2c0.1,0,0.2-0.1,0.2-0.2
					C132.8,109.4,132.7,109.3,132.6,109.3z"/>
				<path class="st28" d="M131,103.4c-0.2,0-0.4,0.2-0.4,0.4v3.2c0,0.2,0.2,0.4,0.4,0.4c0.2,0,0.4-0.2,0.4-0.4v-3.2
					C131.2,103.6,131.1,103.4,131,103.4z"/>
				<path class="st28" d="M130.4,100.8C130.3,100.8,130.3,100.9,130.4,100.8l-0.1,2.1c0,0.1,0.1,0.1,0.1,0.1c0.1,0,0.1-0.1,0.1-0.1
					L130.4,100.8C130.4,100.9,130.4,100.8,130.4,100.8z"/>
				<path class="st14" d="M129.7,111.8c0,0.2,0.1,0.3,0.2,0.3h0.9c0.1,0,0.2-0.2,0.2-0.4c0.5-0.2,1.1-0.6,1.5-1.1h-4.2
					C128.5,111.2,129.1,111.7,129.7,111.8z"/>
				<path class="st29" d="M133.2,95.2c-0.7,0.3-0.8,1.5-0.3,2.6c0.5,1.1,1.5,1.8,2.2,1.6c0.7-0.3,0.8-1.5,0.3-2.6
					C134.7,95.6,133.8,94.9,133.2,95.2z"/>
			</g>
			<g>
				<path class="st29" d="M121.1,97.3C121,97.3,121,97.3,121.1,97.3c-0.1,0.2-0.1,0.2,0,0.2h2.6c0.1,0,0.1,0,0.1-0.1s0-0.1-0.1-0.1
					H121.1z"/>
				<path class="st29" d="M136.8,97.3C136.8,97.3,136.8,97.3,136.8,97.3c-0.1,0.2-0.1,0.2,0,0.2h2.6c0.1,0,0.1,0,0.1-0.1
					s0-0.1-0.1-0.1H136.8z"/>
				<path class="st29" d="M135.9,95.3L135.9,95.3C135.9,95.3,135.9,95.3,135.9,95.3c0.1,0.1,0.1,0.1,0.2,0.1l2.1-1.8v-0.1h-0.1
					L135.9,95.3z"/>
				<path class="st29" d="M135.7,91.2l-1.4,2.6v0.1l0,0c0,0,0.1,0,0.1-0.1L135.7,91.2L135.7,91.2C135.8,91.1,135.7,91.1,135.7,91.2z
					"/>
				<path class="st29" d="M133.1,89.8l-0.7,3c0,0.1,0,0.1,0.1,0.1l0,0c0,0,0.1,0,0.1-0.1l0.7-3C133.2,89.7,133.2,89.7,133.1,89.8
					C133.2,89.7,133.2,89.8,133.1,89.8z"/>
				<path class="st29" d="M130.1,89.5v3.1c0,0.1,0,0.1,0.1,0.1s0.1,0,0.1-0.1v-3.1C130.3,89.4,130.3,89.4,130.1,89.5
					C130.2,89.4,130.1,89.4,130.1,89.5z"/>
				<path class="st29" d="M136.4,96.2C136.4,96.2,136.3,96.3,136.4,96.2l0.1,0.2l0,0l1.4-0.7c0,0,0.1-0.1,0-0.1c0,0-0.1-0.1-0.1,0
					L136.4,96.2z"/>
				<path class="st29" d="M136.1,93.2l-1.1,1.3v0.1c0,0,0,0,0.1,0h0.1l1.1-1.3v-0.1C136.2,93.2,136.2,93.2,136.1,93.2z"/>
				<path class="st29" d="M134,91.7l-0.6,1.7c0,0.1,0,0.1,0.1,0.1l0,0c0,0,0.1,0,0.1-0.1l0.6-1.7C134.2,91.7,134.2,91.6,134,91.7
					C134.1,91.6,134,91.6,134,91.7z"/>
				<path class="st29" d="M131.4,90.8l-0.2,1.8c0,0.1,0,0.1,0.1,0.1l0,0c0.1,0,0.1,0,0.1-0.1l0.2-1.8
					C131.6,90.7,131.6,90.7,131.4,90.8C131.5,90.7,131.4,90.8,131.4,90.8z"/>
				<path class="st29" d="M122.5,93.4L122.5,93.4L122.5,93.4l2,1.9c0,0,0,0,0.1,0h0.1v-0.1L122.5,93.4z"/>
				<path class="st29" d="M124.7,91.1C124.7,91.1,124.7,91.2,124.7,91.1l1.4,2.7l0.1,0.1l0,0c0,0,0.1-0.1,0-0.1L124.7,91.1
					C124.8,91.1,124.7,91.1,124.7,91.1z"/>
				<path class="st29" d="M127.3,89.8C127.2,89.8,127.2,89.9,127.3,89.8l0.6,3.1L128,93l0,0c0.1,0,0.1-0.1,0.1-0.1L127.3,89.8
					C127.5,89.8,127.4,89.7,127.3,89.8z"/>
				<path class="st29" d="M122.7,95.5L122.7,95.5L122.7,95.5l1.3,0.8l0,0c0,0,0.1,0,0.1-0.1v-0.1L122.7,95.5z"/>
				<path class="st29" d="M124.2,93.2C124.2,93.2,124.1,93.2,124.2,93.2l1.1,1.4c0,0,0,0,0.1,0c0,0,0,0,0.1,0c0,0,0.1-0.1,0-0.1
					l-1.1-1.3C124.3,93.2,124.3,93.2,124.2,93.2z"/>
				<path class="st29" d="M126.4,91.6C126.3,91.6,126.3,91.7,126.4,91.6l0.5,1.8l0.1,0.1l0,0c0.1,0,0.1-0.1,0.1-0.1L126.4,91.6
					C126.5,91.6,126.4,91.6,126.4,91.6z"/>
				<path class="st29" d="M129,90.8C128.9,90.8,128.9,90.9,129,90.8l0.1,1.8c0,0.1,0,0.1,0.1,0.1l0,0c0.1,0,0.1-0.1,0.1-0.1
					L129,90.8C129.1,90.8,129,90.7,129,90.8z"/>
			</g>
		</g>
	</g>
</g>
</svg>
