<?xml version="1.0" encoding="utf-8"?>
<!-- Generator: Adobe Illustrator 24.0.1, SVG Export Plug-In . SVG Version: 6.00 Build 0)  -->
<svg version="1.1" id="Layer_1" xmlns="http://www.w3.org/2000/svg" xmlns:xlink="http://www.w3.org/1999/xlink" x="0px" y="0px"
	 viewBox="0 0 300 300" style="enable-background:new 0 0 300 300;" xml:space="preserve">
<style type="text/css">
	.st0{fill:#1F2A35;}
	.st1{fill:#F9A367;}
	.st2{fill:#3D3D3D;}
	.st3{opacity:0.4;fill:#E6EFEF;enable-background:new    ;}
	.st4{fill:#0093BE;}
	.st5{fill:#9CA4AB;}
	.st6{fill:#C9C8C1;}
	.st7{opacity:0.4;fill:#FFFFFF;enable-background:new    ;}
	.st8{fill:#FBBC90;}
	.st9{fill:#F26922;}
	.st10{fill:#F89A58;}
	.st11{fill:#F9A66C;}
	.st12{fill:#C57639;}
	.st13{fill:#565F67;}
	.st14{fill:#43ADE2;}
	.st15{fill:#E2E3E4;}
	.st16{fill:#ACABAD;}
	.st17{fill:#2B2C2B;}
	.st18{fill:#48515A;}
	.st19{fill:#6C747B;}
	.st20{fill:#242424;}
	.st21{fill:#0A0B12;}
	.st22{fill:#5F697E;}
	.st23{fill:#E1D282;}
	.st24{fill:#FAA622;}
	.st25{fill:#FFFFFF;}
	.st26{fill:#B45326;}
	.st27{fill:#3E3E3E;}
	.st28{fill:#A7A6A6;}
	.st29{fill:#A4A9AD;}
</style>
<g>
	<g>
		<path class="st0" d="M263.9,176.8l-1.3-0.2c0-0.5-0.1-1-0.2-1.5l1.2-0.5c0.1,0,0.1-0.1,0.1-0.2l-0.2-0.3l-0.4-0.9
			c0-0.1-0.1-0.1-0.1-0.1l0,0c0,0,0,0-0.1,0l-1.2,0.5c-0.2-0.5-0.5-0.9-0.9-1.2l0.9-1.1c0,0,0-0.1,0-0.2l0,0l0,0l-0.3-0.2l-0.8-0.6
			c-0.1,0-0.1,0-0.2,0l-0.8,1.1c-0.4-0.2-0.9-0.5-1.4-0.6l0.2-1.3l0,0l0,0l0,0l-0.1-0.1l-1.4-0.2H257c0,0,0,0,0,0.1l-0.2,1.2v0.1
			c-0.5,0-1,0.1-1.5,0.2l-0.5-1.2c0-0.1-0.1-0.1-0.1-0.1s0,0-0.1,0l-1.2,0.5c0,0-0.1,0-0.1,0.1v0.1l0.5,1l0.1,0.2
			c-0.5,0.2-0.9,0.5-1.2,0.9l-1.1-0.9h-0.1l0,0l-0.9,1.1v0.1v0.1l0.9,0.7l0.2,0.1c-0.2,0.4-0.5,0.9-0.6,1.4l-1.3-0.2
			c-0.1,0-0.1,0-0.1,0.1c0,0,0,0,0,0.1l-0.2,1.4v0.1h0.1l1.1,0.2h0.2c0,0.5,0.1,1,0.2,1.5l-1.2,0.5c-0.1,0-0.1,0.1-0.1,0.1
			s0,0,0,0.1l0.5,1.2l0.1,0.1h0.1l1.1-0.5l0.2-0.1c0.2,0.5,0.5,0.9,0.9,1.2l-0.9,1.1v0.1l0,0l1.1,0.9h0.1h0.1l0.8-1l0.1-0.1
			c0.4,0.2,0.9,0.5,1.4,0.6l-0.2,1.3c0,0.1,0,0.1,0.1,0.1c0,0,0,0,0.1,0l1.4,0.2l0,0c0.1,0,0.1,0,0.1-0.1c0,0,0,0,0-0.1l0.2-0.9
			l0.1-0.4c0.5,0,1-0.1,1.5-0.2l0.5,1.2c0,0.1,0.1,0.1,0.2,0.1l0.9-0.4l0.3-0.2c0.1,0,0.1-0.1,0.1-0.2l-0.5-1.2
			c0.5-0.2,0.9-0.5,1.2-0.9l1.1,0.9c0.1,0,0.1,0,0.2,0l0.5-0.6l0.4-0.5c0-0.1,0-0.1,0-0.2l-1.1-0.8c0.2-0.4,0.5-0.9,0.5-1.4l1.3,0.2
			c0.1,0,0.1,0,0.1-0.1l0,0l0,0l0.2-1.4C264,176.9,264,176.9,263.9,176.8z M258.5,176.9c-0.2,1-1.1,1.8-2.1,1.6
			c-1-0.2-1.8-1.1-1.6-2.1c0.2-1,1.1-1.8,2.1-1.6C257.9,175,258.7,175.9,258.5,176.9z"/>
		<path class="st0" d="M228.3,128.6l-2.5-0.3c0-0.9-0.1-1.9-0.3-2.8l2.3-1c0.1-0.1,0.2-0.2,0.1-0.2l-0.2-0.6l-0.7-1.8
			c0-0.1-0.1-0.2-0.2-0.2l0,0h-0.1l-2.3,0.9c-0.5-0.8-1-1.5-1.7-2.2l1.5-2c0.1-0.1,0.1-0.2,0-0.2l0,0c0,0,0-0.1-0.1-0.1l-0.6-0.5
			l-1.5-1c-0.1-0.1-0.2-0.1-0.3,0l-1.5,2c-0.8-0.5-1.6-0.9-2.6-1.1l0.3-2.5c0,0,0,0,0-0.1l0,0l0,0c0-0.1-0.1-0.2-0.2-0.2l-2.6-0.3
			c-0.1,0-0.2,0-0.2,0.1l-0.1,0.1l-0.3,2.2v0.2c-0.9,0-1.9,0.1-2.8,0.3l-1-2.3c0-0.1-0.1-0.2-0.2-0.2h-0.1l-2.4,1
			c-0.1,0-0.1,0.1-0.1,0.2c0,0.1,0,0.1,0,0.2l0.8,1.9l0.2,0.4c-0.8,0.5-1.5,1-2.2,1.7l-2-1.5c-0.1-0.1-0.2-0.1-0.2,0
			c0,0-0.1,0-0.1,0.1l-1.5,2.1c0,0.1-0.1,0.1,0,0.2c0,0.1,0,0.1,0.1,0.2l1.7,1.3l0.3,0.2c-0.5,0.8-0.9,1.6-1.1,2.6l-2.5-0.3
			c-0.1,0-0.2,0-0.2,0.1v0.1l-0.3,2.6c0,0.1,0,0.1,0.1,0.2c0,0,0.1,0.1,0.2,0.1l2,0.2l0.5,0.1c0,0.9,0.1,1.9,0.3,2.8l-2.3,1
			c-0.1,0-0.2,0.1-0.2,0.2v0.1l1,2.4c0,0.1,0.1,0.1,0.2,0.1c0.1,0,0.1,0,0.2,0l2-0.9l0.3-0.2c0.5,0.8,1,1.5,1.7,2.2l-1.5,2
			c-0.1,0.1-0.1,0.2,0,0.2c0,0,0,0.1,0.1,0.1l2.1,1.5c0.1,0.1,0.2,0.1,0.2,0c0.1,0,0.1,0,0.1-0.1l1.4-1.9l0.1-0.2
			c0.8,0.5,1.6,0.9,2.6,1.1l-0.3,2.5c0,0.1,0,0.2,0.1,0.2h0.1l2.6,0.3l0,0c0.1,0,0.2,0,0.2-0.1v-0.1l0.2-1.7l0.1-0.8
			c0.9,0,1.9-0.1,2.8-0.3l1,2.3c0.1,0.1,0.2,0.2,0.2,0.1l1.8-0.7l0.6-0.2c0.1-0.1,0.2-0.2,0.1-0.2l-0.9-2.3c0.8-0.5,1.5-1,2.2-1.7
			l2,1.5c0.1,0.1,0.2,0.1,0.3-0.1l0.9-1.2l0.7-0.9c0.1-0.1,0.1-0.2,0-0.3l-2-1.5c0.5-0.8,0.9-1.6,1.1-2.6l2.5,0.3
			c0.1,0,0.2,0,0.2-0.1l0,0c0,0,0,0,0-0.1l0.3-2.6C228.5,128.7,228.4,128.6,228.3,128.6z M218.3,128.6c-0.2,1.9-2,3.3-3.9,3
			c-1.9-0.2-3.3-2-3-3.9c0.2-1.9,2-3.3,3.9-3C217.1,124.9,218.5,126.7,218.3,128.6z"/>
		<path class="st0" d="M113.3,155.1l-2.5-0.3c0-0.9-0.1-1.9-0.3-2.8l2.3-1c0.1-0.1,0.2-0.2,0.1-0.2l-0.2-0.6l-0.7-1.8
			c0-0.1-0.1-0.2-0.2-0.2l0,0h-0.1l-2.3,0.9c-0.5-0.8-1-1.5-1.7-2.2l1.5-2c0.1-0.1,0.1-0.2,0-0.2l0,0c0,0,0-0.1-0.1-0.1l-0.6-0.5
			l-1.5-1.1c-0.1-0.1-0.2-0.1-0.3,0l-1.5,2c-0.8-0.5-1.6-0.9-2.6-1.1l0.3-2.5c0,0,0,0,0-0.1l0,0l0,0c0-0.1-0.1-0.2-0.2-0.2l-2.6-0.3
			c-0.1,0-0.2,0-0.2,0.1l-0.1,0.1l-0.3,2.2v0.2c-0.9,0-1.9,0.1-2.8,0.3l-1-2.3c0-0.1-0.1-0.2-0.2-0.2h-0.1l-2.4,1
			c-0.1,0-0.1,0.1-0.1,0.2c0,0.1,0,0.1,0,0.2l0.8,1.9l0.2,0.4c-0.8,0.5-1.5,1-2.2,1.7l-2-1.5c-0.1-0.1-0.2-0.1-0.2,0
			c0,0-0.1,0-0.1,0.1l-1.5,2.1c0,0.1-0.1,0.1,0,0.2c0,0.1,0,0.1,0.1,0.2l1.7,1.3l0.3,0.2c-0.5,0.8-0.9,1.6-1.1,2.6l-2.5-0.3
			c-0.1,0-0.2,0-0.2,0.1v0.1l-0.3,2.6c0,0.1,0,0.1,0.1,0.2c0,0,0.1,0.1,0.2,0.1l2,0.2l0.5,0.1c0,0.9,0.1,1.9,0.3,2.8l-2.3,1
			c-0.1,0-0.2,0.1-0.2,0.2v0.1l1,2.4c0,0.1,0.1,0.1,0.2,0.1c0.1,0,0.1,0,0.2,0l2-0.9l0.3-0.2c0.5,0.8,1,1.5,1.7,2.2l-1.5,2
			c-0.1,0.1-0.1,0.2,0,0.2c0,0,0,0.1,0.1,0.1l2.1,1.5c0.1,0.1,0.2,0.1,0.2,0c0.1,0,0.1,0,0.1-0.1l1.4-1.9l0.1-0.2
			c0.8,0.5,1.6,0.9,2.6,1.1l-0.3,2.5c0,0.1,0,0.2,0.1,0.2h0.1l2.6,0.3l0,0c0.1,0,0.2,0,0.2-0.1v-0.1l0.2-1.7l0.1-0.8
			c0.9,0,1.9-0.1,2.8-0.3l1,2.3c0.1,0.1,0.2,0.2,0.2,0.1l1.8-0.7l0.6-0.2c0.1-0.1,0.2-0.2,0.1-0.2l-0.9-2.3c0.8-0.5,1.5-1,2.2-1.7
			l2,1.5c0.1,0.1,0.2,0.1,0.3-0.1l0.9-1.2l0.7-0.9c0.1-0.1,0.1-0.2,0-0.3l-2-1.5c0.5-0.8,0.9-1.6,1.1-2.6l2.5,0.3
			c0.1,0,0.2,0,0.2-0.1l0,0c0,0,0,0,0-0.1l0.3-2.6C113.5,155.1,113.4,155.1,113.3,155.1z M103.2,155.1c-0.2,1.9-2,3.3-3.9,3
			s-3.3-2-3-3.9c0.2-1.9,2-3.3,3.9-3C102.1,151.4,103.5,153.2,103.2,155.1z"/>
		<path class="st0" d="M62.7,176.9l-3.1-0.4c0-1.2-0.2-2.4-0.4-3.5l2.9-1.2c0.2-0.1,0.2-0.2,0.2-0.3l-0.3-0.9l-0.9-2.2
			c0-0.1-0.2-0.2-0.2-0.2l0,0h-0.1l-2.9,1.2c-0.6-1-1.3-1.9-2.1-2.8l1.9-2.6c0.1-0.1,0.1-0.2,0-0.3l0,0c0,0,0-0.1-0.1-0.1l-0.8-0.5
			l-1.9-1.4c-0.1-0.1-0.3-0.1-0.4,0.1l-1.9,2.5c-1-0.6-2.1-1.1-3.3-1.4l0.4-3.2v-0.1c0,0,0,0,0-0.1l0,0c0-0.1-0.1-0.2-0.2-0.2
			l-3.3-0.4c-0.1,0-0.2,0-0.2,0.1c0,0-0.1,0.1-0.1,0.2l-0.4,2.9v0.2c-1.2,0-2.4,0.2-3.5,0.4l-1.2-2.9c0-0.1-0.2-0.2-0.2-0.2
			c-0.1,0-0.1,0-0.2,0l-3,1.2c-0.1,0-0.2,0.1-0.2,0.2c0,0.1,0,0.2,0,0.2l1,2.5l0.2,0.5c-1,0.6-1.9,1.3-2.8,2.1l-2.6-1.9
			c-0.1-0.1-0.2-0.1-0.3,0l-0.1,0.1l-2,2.6c-0.1,0.1-0.1,0.2-0.1,0.2s0.1,0.1,0.1,0.2l2.2,1.6l0.4,0.2c-0.6,1-1.1,2.1-1.4,3.3
			l-3.2-0.4c-0.1,0-0.2,0-0.2,0.2v0.1l-0.4,3.3c0,0.1,0,0.2,0.1,0.2c0.1,0.1,0.1,0.1,0.2,0.1l2.6,0.3l0.5,0.1c0,1.2,0.2,2.4,0.4,3.5
			l-2.9,1.2c-0.1,0.1-0.2,0.2-0.2,0.2v0.1l1.2,3c0,0.1,0.1,0.2,0.2,0.2c0.1,0,0.1,0,0.2,0l2.6-1.1l0.4-0.2c0.6,1,1.3,1.9,2.1,2.8
			l-1.9,2.6c-0.1,0.1-0.1,0.2,0,0.3l0.1,0.1l2.6,2c0.1,0.1,0.2,0.1,0.2,0.1c0.1,0,0.1-0.1,0.2-0.1l1.8-2.3l0.2-0.2
			c1,0.6,2.1,1.1,3.3,1.4l-0.4,3.2c0,0.1,0.1,0.2,0.2,0.2h0.1l3.3,0.4l0,0c0.1,0,0.2-0.1,0.2-0.2v-0.1l0.3-2.2l0.2-1
			c1.2,0,2.4-0.2,3.5-0.4l1.2,2.9c0.1,0.2,0.2,0.2,0.3,0.2l2.2-0.9l0.9-0.3c0.2-0.1,0.2-0.2,0.2-0.3l-1.2-2.9c1-0.6,1.9-1.3,2.8-2.1
			l2.6,1.9c0.1,0.1,0.3,0.1,0.4-0.1l1.2-1.5l0.9-1.1c0.1-0.1,0.1-0.3-0.1-0.4l-2.5-1.9c0.6-1,1.1-2.1,1.4-3.3l3.2,0.4
			c0.1,0,0.2,0,0.2-0.2l0,0v-0.1l0.4-3.3C62.9,177.1,62.8,176.9,62.7,176.9z M49.9,177c-0.3,2.4-2.6,4.2-5,3.9s-4.2-2.6-3.9-5
			c0.3-2.4,2.6-4.2,5-3.9C48.5,172.3,50.2,174.6,49.9,177z"/>
		<circle class="st0" cx="157.7" cy="151.3" r="56.8"/>
		<g>
			<g>
				<path class="st1" d="M59.2,122.1c-8.4,0-15.3,7-15.3,15.5c0,4.3,1.8,8.2,4.6,11c1.2,1.2,2.1,1.9,3,3.3c0.6,0.9,1.2,3,1.2,4.2
					c0,1.4,0,5.7,0,5.7h13.2v-5.6c0,0,0.3-3.2,0.9-4.2c0.8-1.2,1.5-1.9,2.6-2.9c3.2-2.9,5.2-7,5.2-11.6
					C74.5,129,67.7,122.1,59.2,122.1z"/>
				<path class="st2" d="M59.2,135.9L59.2,135.9c-0.2,0-0.4-0.2-0.5-0.5c-0.3-0.4-0.6-0.9-1.3-0.9l0,0c-0.6,0-1.1,0.5-1.4,0.9
					c-0.2,0.2-0.4,0.5-0.5,0.5c-0.1,0-0.3-0.1-0.5-0.1c-0.6-0.2-1.4-0.4-1.9,0.2c-0.4,0.4-0.4,1.1-0.1,2.2c3,9.8,3.3,11.1,3.3,11.1
					c0,0.2,0.2,0.2,0.2,0.2c0,0,0,0,0.1,0c0.2,0,0.2-0.2,0.2-0.3c0-0.1-0.2-1.2-3.3-11.2c-0.3-1.1-0.2-1.5-0.1-1.6
					c0.2-0.2,0.9-0.1,1.4,0c0.3,0.1,0.5,0.2,0.7,0.1c0.3-0.1,0.6-0.4,0.9-0.7c0.3-0.4,0.5-0.7,0.9-0.7l0,0c0.4,0,0.6,0.3,0.9,0.7
					c0.2,0.4,0.5,0.7,1,0.7c0.2,0,0.2-0.2,0.2-0.3C59.5,136,59.4,135.9,59.2,135.9z"/>
				<path class="st2" d="M63.5,135.8c-0.2,0.1-0.5,0.1-0.5,0.1c-0.2,0-0.3-0.2-0.5-0.5c-0.3-0.4-0.7-0.9-1.4-0.9l0,0
					c-0.6,0-1,0.5-1.3,0.9c-0.2,0.2-0.4,0.5-0.5,0.5l0,0c-0.2,0-0.2,0.1-0.2,0.2c0,0.2,0.1,0.2,0.2,0.3c0.5,0,0.7-0.4,1-0.7
					c0.2-0.3,0.5-0.7,0.9-0.7l0,0c0.4,0,0.7,0.4,0.9,0.7c0.2,0.3,0.5,0.6,0.9,0.7c0.2,0,0.4,0,0.7-0.1c0.5-0.2,1.1-0.3,1.4,0
					c0.2,0.2,0.3,0.5-0.1,1.6c-3,10-3.3,11.1-3.3,11.2c0,0.2,0.1,0.3,0.2,0.3h0.1c0.2,0,0.2-0.1,0.2-0.2c0-0.1,0.3-1.2,3.3-11.1
					c0.3-1.1,0.3-1.8-0.1-2.2C64.9,135.5,64.1,135.6,63.5,135.8z"/>
				<path class="st3" d="M59.2,148.2c-1.8,0-3.3,0.1-3.3,2.2v8.8c0,2.2,6.6,2.2,6.6,0v-8.8C62.5,148.2,61.1,148.2,59.2,148.2z"/>
				<rect x="58.2" y="141" class="st3" width="1.9" height="7.1"/>
				<path class="st3" d="M60.1,140.7H58c-0.2,0-0.3,0.2-0.3,0.3s0.2,0.3,0.3,0.3h2.1c0.2,0,0.3-0.2,0.3-0.3
					C60.4,140.9,60.3,140.7,60.1,140.7z"/>
				<path class="st4" d="M52.6,165.2c0,3.6,4.7,6.6,6.6,6.6c1.8,0,6.6-2.9,6.6-6.6v-5.6H52.6V165.2z"/>
				<path class="st5" d="M60.4,170.4H58c-0.2,0-0.5,0.4-0.5,0.9c0,0.5,0.2,0.9,0.5,0.9h2.3c0.2,0,0.5-0.4,0.5-0.9
					S60.6,170.4,60.4,170.4z"/>
				<path class="st6" d="M65.3,160.6l-12.1,0.5c-0.3,0-0.5,0.2-0.5,0.5s0.2,0.5,0.5,0.5l12.1-0.5c0.3,0,0.5-0.2,0.5-0.5
					S65.6,160.6,65.3,160.6z"/>
				<path class="st6" d="M65.3,162.5l-12.1,0.6c-0.3,0-0.5,0.2-0.5,0.5s0.2,0.5,0.5,0.5l12.1-0.6c0.3,0,0.5-0.2,0.5-0.5
					S65.6,162.5,65.3,162.5z"/>
				<path class="st6" d="M65.3,164.5L53.2,165c-0.3,0-0.5,0.2-0.5,0.5c0,0.3,0.2,0.5,0.5,0.5l12.1-0.5c0.3,0,0.5-0.2,0.5-0.5
					C65.8,164.7,65.6,164.5,65.3,164.5z"/>
				<path class="st7" d="M60.9,148.9c-0.5,0-0.9,0.4-0.9,0.9v8.7c0,0.5,0.4,0.9,0.9,0.9c0.5,0,0.9-0.4,0.9-0.9v-8.7
					C61.8,149.3,61.4,148.9,60.9,148.9z"/>
				<path class="st7" d="M59.4,141.9c-0.2,0-0.3,0.2-0.3,0.3v5.3c0,0.2,0.2,0.3,0.3,0.3c0.2,0,0.3-0.2,0.3-0.3v-5.3
					C59.8,142,59.6,141.9,59.4,141.9z"/>
				<path class="st2" d="M57.7,171.3c0,0.5,0.2,0.9,0.5,0.9h2.3c0.2,0,0.5-0.4,0.5-0.9c1.3-0.5,2.8-1.6,3.9-3H53.9
					C54.8,169.7,56.3,170.8,57.7,171.3z"/>
				<path class="st8" d="M66.6,127c-1.7,0.8-2,3.9-0.6,7c1.4,3.1,3.9,5,5.6,4.2c1.7-0.8,2-3.9,0.6-7S68.3,126.3,66.6,127z"/>
			</g>
			<g>
				<path class="st9" d="M42.3,132.6h-6.7c-0.2,0-0.2,0.1-0.2,0.2s0.1,0.2,0.2,0.2h6.7c0.2,0,0.2-0.1,0.2-0.2
					C42.5,132.7,42.3,132.6,42.3,132.6z"/>
				<path class="st9" d="M83,132.6h-6.7c-0.2,0-0.2,0.1-0.2,0.2s0.1,0.2,0.2,0.2H83c0.2,0,0.2-0.1,0.2-0.2
					C83.2,132.7,83.1,132.6,83,132.6z"/>
				<path class="st9" d="M79,122.2l-5.3,5c-0.1,0.1-0.1,0.2,0,0.3c0.1,0.1,0.1,0.1,0.2,0.1c0.1,0,0.1,0,0.2-0.1l5.3-5
					c0.1-0.1,0.1-0.2,0-0.3C79.3,122.1,79.1,122.1,79,122.2z"/>
				<path class="st9" d="M73.1,116.3l-3.6,7c-0.1,0.1,0,0.2,0.1,0.3h0.1c0.1,0,0.2-0.1,0.2-0.2l3.6-7c0.1-0.1,0-0.2-0.1-0.3
					C73.4,116.1,73.2,116.2,73.1,116.3z"/>
				<path class="st9" d="M66.8,112.5c-0.2,0-0.2,0.1-0.3,0.2l-1.9,7.9c0,0.2,0.1,0.2,0.2,0.3c0,0,0,0,0.1,0c0.1,0,0.2-0.1,0.2-0.2
					l1.9-7.9C67,112.7,67,112.5,66.8,112.5z"/>
				<path class="st9" d="M59.1,111.5c-0.2,0-0.2,0.1-0.2,0.2v8.2c0,0.2,0.1,0.2,0.2,0.2c0.2,0,0.2-0.1,0.2-0.2v-8.2
					C59.3,111.5,59.1,111.5,59.1,111.5z"/>
				<path class="st9" d="M78.7,127.8l-3.6,1.9c-0.1,0.1-0.2,0.2-0.1,0.3s0.2,0.2,0.2,0.2h0.1l3.6-1.9c0.1-0.1,0.2-0.2,0.1-0.3
					C79,127.8,78.8,127.7,78.7,127.8z"/>
				<path class="st9" d="M74.5,121.6l-2.7,3.5c-0.1,0.1-0.1,0.2,0.1,0.3c0.1,0,0.1,0.1,0.2,0.1c0.1,0,0.2,0,0.2-0.1l2.7-3.5
					c0.1-0.1,0.1-0.2-0.1-0.3C74.7,121.5,74.5,121.5,74.5,121.6z"/>
				<path class="st9" d="M69.2,117.3c-0.1-0.1-0.2,0-0.3,0.2l-1.7,4.3c-0.1,0.2,0,0.2,0.2,0.3h0.1c0.1,0,0.2-0.1,0.2-0.2l1.7-4.3
					C69.4,117.6,69.3,117.4,69.2,117.3z"/>
				<path class="st9" d="M62.5,115.1c-0.2,0-0.2,0.1-0.2,0.2l-0.5,4.8c0,0.2,0.1,0.2,0.2,0.2l0,0c0.1,0,0.2-0.1,0.2-0.2l0.5-4.8
					C62.7,115.3,62.6,115.1,62.5,115.1z"/>
				<path class="st9" d="M39.5,122.2c-0.1-0.1-0.2-0.1-0.3,0c-0.1,0.1-0.1,0.2,0,0.3l5.3,5c0.1,0.1,0.1,0.1,0.2,0.1s0.2,0,0.2-0.1
					c0.1-0.1,0.1-0.2,0-0.3L39.5,122.2z"/>
				<path class="st9" d="M45.3,116.3c-0.1-0.1-0.2-0.2-0.3-0.1c-0.1,0.1-0.2,0.2-0.1,0.3l3.6,7c0.1,0.1,0.2,0.2,0.2,0.2h0.1
					c0.1-0.1,0.2-0.2,0.1-0.3L45.3,116.3z"/>
				<path class="st9" d="M51.6,112.5c-0.2,0-0.2,0.2-0.2,0.3l1.9,7.9c0,0.1,0.2,0.2,0.2,0.2c0,0,0,0,0.1,0c0.2,0,0.2-0.2,0.2-0.3
					l-1.9-7.9C51.9,112.6,51.8,112.5,51.6,112.5z"/>
				<path class="st9" d="M39.8,127.8c-0.1-0.1-0.2,0-0.3,0.1c-0.1,0.1,0,0.2,0.1,0.3l3.6,1.9h0.1c0.1,0,0.2-0.1,0.2-0.2
					c0.1-0.1,0-0.2-0.1-0.3L39.8,127.8z"/>
				<path class="st9" d="M44,121.6c-0.1-0.1-0.2-0.2-0.3-0.1c-0.1,0.1-0.2,0.2-0.1,0.3l2.7,3.5c0.1,0.1,0.1,0.1,0.2,0.1
					c0.1,0,0.1,0,0.2-0.1s0.2-0.2,0.1-0.3L44,121.6z"/>
				<path class="st9" d="M49.3,117.3c-0.2,0.1-0.2,0.2-0.2,0.3l1.7,4.3c0,0.1,0.2,0.2,0.2,0.2h0.1c0.2-0.1,0.2-0.2,0.2-0.3l-1.7-4.3
					C49.5,117.3,49.4,117.3,49.3,117.3z"/>
				<path class="st9" d="M56,115.1c-0.2,0-0.2,0.2-0.2,0.2l0.5,4.8c0,0.2,0.1,0.2,0.2,0.2l0,0c0.2,0,0.2-0.2,0.2-0.2l-0.5-4.8
					C56.3,115.2,56.1,115.1,56,115.1z"/>
			</g>
		</g>
		<g>
			<g>
				<path class="st10" d="M221.7,150.3c0.2,2.9,0.7,9.3-2.9,15.2c-0.9,1.5,1.9,3.7,7,4.3c5.2,0.5,8.8-0.9,8.7-1.9
					c-0.7-6.7,1.3-13.2,1.2-14.5C235.7,152,221.4,147.5,221.7,150.3z"/>
				<path class="st11" d="M239.8,133.2c-2.5-4.9-13.6-7.7-19.9-0.5c-1.2,1.4-3.4,5.7-2.2,13.5c0.8,4.7,2.9,8.2,4.6,9.9
					c1.1,1.2,6,3.3,9.5,3c3.8-0.3,7.9-0.2,8-1.8c0.2-2.9,0.5-6.6,0.5-6.6l1.5-0.2c0.3-0.1,0.5-0.4,0.5-0.7c-0.2-1.2-0.7-4-1.2-7.9
					C241,140.6,243,139.3,239.8,133.2z"/>
				<path class="st12" d="M225.9,125.2c-8.1-0.2-11.8,10.8-11.9,15.5c-0.2,5.4,4.3,10.4,5.1,14.9c0.4,2.6,3.9-2,3.9-2l1.7-6.3
					c0,0-1.1-7.4,3.1-6c2.9,1,1.8,5.7,1.8,5.7l1.5-0.2c0,0,0.7-5.7,1.9-7.2c1.2-1.6,7.4-5,7.4-5s0.3-2.3-0.2-3.3
					C238.7,128,232.4,125.3,225.9,125.2z"/>
			</g>
			<g>
				<path class="st10" d="M269.7,150.3c0.2-2.9-14.1,1.7-14.1,3c0,1.3,2,7.9,1.2,14.5c-0.2,1.1,3.5,2.5,8.7,1.9c5.1-0.5,8-2.7,7-4.3
					C269,159.6,269.5,153.1,269.7,150.3z"/>
				<path class="st11" d="M251.5,133.2c-3.1,6-1.2,7.4-1.4,8.7c-0.5,3.9-0.9,6.7-1.2,7.9c-0.1,0.3,0.2,0.6,0.5,0.7l1.5,0.2
					c0,0,0.3,3.6,0.5,6.6c0.1,1.5,4.3,1.5,8,1.8c3.6,0.3,8.4-1.9,9.5-3c1.6-1.7,3.8-5.3,4.6-9.9c1.2-7.8-0.9-12.1-2.2-13.5
					C265.1,125.6,254,128.4,251.5,133.2z"/>
				<path class="st12" d="M265.3,125.2c-6.3,0.2-12.8,2.8-14.2,6c-0.5,1-0.2,3.3-0.2,3.3s6.2,3.4,7.4,5c1.2,1.6,1.9,7.2,1.9,7.2
					l1.5,0.2c0,0-1.2-4.6,1.8-5.7c4.2-1.4,3.1,6,3.1,6l1.7,6.3c0,0,3.6,4.6,3.9,2c0.8-4.6,5.3-9.5,5.1-14.9
					C277,135.9,273.4,124.9,265.3,125.2z"/>
			</g>
			<g>
				<path class="st13" d="M230.7,131.3c-0.4,0-0.7,0-0.9,0.1c-0.2-0.5-0.3-0.9-0.5-1.2c-1.3-1.7-3.3-2.5-5-2
					c-1.5,0.5-2.5,1.8-2.6,3.5c0,0.1,0,0.1,0,0.2c-1.1,0.3-2,0.9-2.8,1.8c-0.7,0.8-1.2,2.7-1,5c0.2,1.9,0.9,4.4,3.4,6.3
					c0,0.1,0,0.2,0,0.2c0.2,1.5,1.3,3.5,4.1,3.7c1.1,0.1,2-0.2,2.6-1c0.3-0.4,0.6-0.9,0.8-1.5c0.4,0.9,1,1.5,1.9,2
					c0.7,0.4,1.3,0.5,1.9,0.5c1.2,0,2.3-0.7,3.1-1.9c0.5-1,0.9-2.2,0.8-3.7c2.2-1.1,3.3-3.2,2.9-5.7
					C238.6,134.5,235.5,131.3,230.7,131.3z M230.8,138.8c-0.1-0.2-0.2-0.5-0.2-0.6c0.5-0.5,1-1.1,1.6-1.4c1.7,1.6,2.6,3.4,3,5.1
					c-0.3,0.4-0.7,0.8-1.2,1.1c-0.3,0-0.6-0.2-0.9-0.3c-0.3-0.2-0.5-0.4-0.8-0.6c0.4-0.3,0.5-0.7,0.5-1.2
					C233.1,140,232,139.3,230.8,138.8z M232.3,141c0,0.2-0.1,0.4-0.2,0.5c-0.4-0.5-0.6-1.1-0.9-1.7
					C231.8,140.2,232.3,140.6,232.3,141z M230.4,137.2c-0.1-0.6-0.2-1.3-0.2-2.1c0.5,0.4,1,0.7,1.5,1.1
					C231.2,136.5,230.8,136.8,230.4,137.2z M231.3,141.9L231.3,141.9c-0.7,0.2-1.5,0.2-2.3,0.1c0.2-0.9,0.5-1.8,0.9-2.6
					c0,0,0-0.1,0.1-0.1c0.1,0,0.2,0.1,0.2,0.1C230.4,140.3,230.8,141.1,231.3,141.9z M229.4,135.2c0.1,0.9,0.2,1.9,0.3,2.6
					c0,0.1,0,0.2,0.1,0.3c-0.1,0.2-0.2,0.2-0.2,0.4c-0.2-0.1-0.4-0.1-0.5-0.2c0.1-0.2,0.1-0.3,0.1-0.5c0-0.8-0.4-1.5-1.2-1.9
					c0-0.7,0.2-1.4,0.3-1.9c0.3,0.2,0.6,0.3,0.9,0.5c0.1,0.1,0.2,0.1,0.3,0.2C229.4,134.8,229.4,134.9,229.4,135.2z M228.3,137.7
					c0,0.2,0,0.3-0.1,0.4c-0.1,0-0.2,0-0.2,0c-0.1-0.5-0.1-0.9-0.1-1.2C228.1,137,228.3,137.3,228.3,137.7z M229.3,133.6
					c-0.2-0.2-0.5-0.3-0.7-0.4c0.1-0.1,0.1-0.2,0.2-0.2c0.2-0.2,0.2-0.3,0.4-0.4C229.2,132.8,229.3,133.2,229.3,133.6z M224.5,129
					c1.4-0.4,2.9,0.2,4.1,1.7c0.2,0.2,0.3,0.5,0.4,1c-0.3,0.2-0.6,0.5-0.9,0.8c-0.1,0.2-0.2,0.2-0.2,0.4c-1.7-0.8-3.3-1.2-4.6-1.2
					c-0.3,0-0.5,0-0.9,0.1C222.5,130.4,223.3,129.3,224.5,129z M224.8,138.6c-0.1-0.3-0.2-0.6-0.2-0.9c0.3,0.3,0.6,0.7,1.1,1.1
					c0.5,0.4,1,0.6,1.5,0.6c0.1,0.4,0.2,0.9,0.2,1.2c0.1,0.3,0.2,0.7,0.2,1c-0.1,0-0.2-0.1-0.3-0.1c-0.1-0.5-0.3-1.1-0.6-1.5
					C226.4,139.4,225.7,139,224.8,138.6z M226.6,141c-0.5-0.3-0.9-0.7-1.2-1.2c0.3,0.2,0.6,0.5,0.9,0.8
					C226.4,140.7,226.5,140.8,226.6,141z M223.9,138.1c-0.3-0.2-0.5-0.2-0.9-0.4c-0.1,0-0.2-0.1-0.2-0.1c0.1-1.1-0.1-2.2-0.2-3.2
					c0.1,0.1,0.2,0.2,0.2,0.2c0.4,0.4,0.6,0.9,0.9,1.3c0.1,0.2,0.2,0.4,0.3,0.6C223.9,137,223.8,137.5,223.9,138.1z M223.5,134.2
					c-0.3-0.4-0.6-0.6-1-0.8c-0.1-0.3-0.1-0.6-0.1-0.9c1.5-0.2,3.1,0.2,5,1.1c-0.2,0.5-0.3,1.2-0.4,1.9c-1-0.3-1.9-0.2-2.6,0.5
					c0-0.1-0.1-0.2-0.1-0.2C224.2,135.2,224,134.7,223.5,134.2z M227.2,138.6c-0.3,0-0.6-0.2-0.9-0.5c-0.7-0.5-1.1-1.1-1.4-1.5
					c0.1-0.1,0.1-0.1,0.2-0.2c0.5-0.5,1.2-0.5,1.9-0.2C227,137,227.1,137.8,227.2,138.6z M221.6,132.7c0,0.2,0,0.2,0.1,0.4
					c-0.4-0.1-0.7-0.1-1,0.1C221,132.9,221.3,132.8,221.6,132.7z M220.4,134.2c0.2-0.2,0.5-0.3,0.9-0.3c0.2,0,0.4,0,0.5,0.1
					c0,0.1,0,0.2,0.1,0.3c0.2,1,0.3,2,0.3,3.1c-0.8-0.3-1.4-0.7-1.8-1.1C219.7,135.5,219.9,134.6,220.4,134.2z M221.2,144
					c-1.9-1.7-2.5-3.9-2.6-5.4c-0.2-2.2,0.4-3.9,0.9-4.4c-0.4,0.8-0.4,1.8,0.4,2.6c0.5,0.6,1.4,1,2.3,1.4c-0.1,0.8-0.4,1.5-0.9,2.2
					l0.7,0.5c0.5-0.8,0.8-1.6,0.9-2.4c0.5,0.2,0.9,0.4,1.4,0.6c0.1,0.2,0.2,0.5,0.4,0.9c0.5,0.9,1.3,1.6,2.2,2.1
					c0,0.7-0.2,1.4-0.5,2c-0.9-0.4-1.4-0.9-1.8-1.3c-0.4-0.4-0.7-0.8-1.2-0.8c-0.1,0-0.2,0-0.4,0.1C222,142.4,221.4,143.1,221.2,144
					z M223.1,142.8c0.2-0.1,0.4,0,0.8,0.5c0.4,0.4,0.9,0.9,1.9,1.4c-0.6,0.5-1.9,1.2-3.7-0.1C222,143.8,222.4,143.1,223.1,142.8z
					 M227.3,147.4c-0.5,0.5-1.1,0.8-1.9,0.7c-2-0.2-3-1.3-3.3-2.5c1.9,1,3.4,0.5,4.3-0.5c0.1-0.1,0.1-0.1,0.2-0.2
					c0.5,0.2,0.9,0.2,1.5,0.3C227.9,146.2,227.7,146.9,227.3,147.4z M227,144.3c0.3-0.6,0.5-1.2,0.5-1.9c0.2,0.1,0.2,0.1,0.4,0.2
					c0,0.2,0.1,0.4,0.1,0.5c0,0.5,0,0.9,0.1,1.4C227.7,144.5,227.3,144.4,227,144.3z M228.5,140.7c0-0.1,0-0.2-0.1-0.2
					c-0.1-0.5-0.2-0.9-0.2-1.2c0.2-0.1,0.2-0.2,0.4-0.2c0.2,0.1,0.4,0.1,0.6,0.2C228.9,139.6,228.6,140.2,228.5,140.7z M228.9,143
					c0-0.1,0-0.2,0-0.2c0.9,0.2,1.9,0.1,2.6-0.1c0.2,0,0.3-0.1,0.4-0.2c0.3,0.4,0.7,0.7,1.1,0.9c0.1,0.1,0.2,0.1,0.3,0.2
					c-1.2,0.6-2.6,1-4.3,0.9C229,144.1,228.9,143.5,228.9,143z M234.9,146.7c-0.9,1.5-2.4,2-3.9,1.1c-0.9-0.5-1.5-1.4-1.9-2.5
					c2.2,0,3.9-0.6,5.3-1.5c0.4,0,0.8-0.1,1.2-0.2C235.6,144.8,235.4,145.9,234.9,146.7z M233.1,136.6c0.6-0.1,1.3,0,2.1,0.3
					c1,0.5,1.5,1.6,1.2,3c-0.1,0.4-0.2,0.8-0.5,1.1C235.5,139.5,234.5,137.9,233.1,136.6z M236.3,142.5c0-0.2-0.1-0.3-0.1-0.5
					c0.5-0.6,0.8-1.3,0.9-2c0.4-1.8-0.2-3.3-1.5-3.9c-1.1-0.5-2.1-0.5-3.1-0.2c-0.7-0.6-1.5-1.2-2.3-1.8c-0.1-0.7-0.2-1.3-0.2-1.9
					c0.2-0.1,0.5-0.1,0.8-0.1c4.4,0,7.3,2.9,7.7,5.7C238.8,139.9,238,141.6,236.3,142.5z"/>
				<g>
					<path class="st14" d="M245.6,124.1c-6.6-0.7-10.1,1.8-11.6,3.3c-0.8,0.8-1.3,1.6-1.7,2.5c-0.8-0.2-1.6-0.3-2.6-0.3
						c-0.1-0.1-0.1-0.1-0.2-0.2c-1.2-1.1-3.3-1.8-5.6-0.2c-0.9,0.6-1.3,1.5-1.4,2.4c0,0.5,0.2,1.1,0.4,1.6c-0.9-0.4-1.8-0.5-2.7-0.3
						c-2.2,0.5-3.3,2.2-2.9,4.3c0.2,1.1,0.9,2.3,1.8,3.3c-1,2.2-0.5,4.6,1.5,6.2c1.2,1,2.9,1.5,4.7,1.5c1.9,0,4-0.7,6-2.2
						c0.2-0.2,0.5-0.5,0.7-0.7c0.4,0.3,0.8,0.5,1.2,0.5c2.2,0.5,4.1-0.2,5-1.7c0.9-1.3,0.8-3-0.2-4.3c0,0,0-0.1-0.1-0.1
						c0.6-0.9,0.9-1.9,0.9-3.2c0-1-0.9-2.9-2.5-4.5c-0.8-0.8-1.9-1.6-3.3-2.1c0.4-0.8,0.9-1.5,1.5-2.2c1.4-1.5,4.7-3.8,10.9-3.1
						c9.2,1,13.9,7.7,13.9,7.7l0.7-0.5C260.1,132.1,255.2,125.2,245.6,124.1z M230.3,130.4c0.6,0,1.2,0.1,1.8,0.2
						c-0.3,0.9-0.4,1.7-0.2,2.6c0.2,0.9,0.5,1.7,0.9,2.4c-0.5,0.2-0.9,0.3-1.5,0.5c-0.2-0.2-0.5-0.3-0.9-0.4
						c-0.6-0.2-1.2-0.3-1.8-0.3c-0.5,0-0.9,0.1-1.3,0.2c-0.5-0.5-0.8-1.2-0.9-1.9c0.9-0.3,1.6-0.2,2.2-0.2c0.6,0.1,1.2,0.2,1.7-0.5
						C230.7,132.1,230.7,131.2,230.3,130.4z M237.2,137.3c-0.1,0.5-0.3,0.9-0.9,1.1c-0.1-0.1-0.2-0.2-0.2-0.2
						c-0.8-0.6-1.6-1.3-2.2-2.2c0.8-0.2,1.5-0.4,2.1-0.3C236.8,135.9,237.4,136.7,237.2,137.3z M237.8,138.3
						c-0.1,0.3-0.2,0.6-0.5,0.9c-0.1-0.1-0.2-0.2-0.3-0.2C237.3,138.8,237.5,138.6,237.8,138.3z M235.3,138.6c-0.1,0-0.2,0-0.3,0
						c-0.5-0.1-1-0.2-1.5-0.5c-0.2-0.1-0.4-0.2-0.6-0.3c-0.2-0.4-0.4-0.8-0.9-1.2c0.3-0.1,0.5-0.2,0.9-0.3c0.1,0,0.2-0.1,0.2-0.1
						C233.7,137.2,234.5,137.9,235.3,138.6z M220.9,141.1c0-0.5,0.1-1.1,0.2-1.6c0.2-0.2,0.5-0.3,0.9-0.4c0.3-0.1,0.6-0.1,1-0.1
						c-0.1,0.5,0,0.9,0.3,1.2c0.7,0.8,1.9,0.6,3.2,0.2c0.2,0.2,0.4,0.2,0.5,0.4c0,0.8-0.1,1.5-0.4,2.1
						C224.2,142.8,222.3,142.1,220.9,141.1z M226,143.8c-0.4,0.5-1,0.9-1.8,1.1c-1.1,0.3-2.2-0.3-2.9-1.5c-0.2-0.3-0.3-0.7-0.4-1.2
						C222.4,143.1,224,143.6,226,143.8z M224,138.5L224,138.5c0.5-0.6,1-1.2,1.7-1.5c0.5,0.8,0.8,1.6,1,2.5v0.1
						c-0.1,0-0.2,0.1-0.2,0.1C225.7,139.2,224.8,138.8,224,138.5z M225.4,140c-0.7,0.2-1.3,0.2-1.6-0.2c-0.2-0.2-0.2-0.3-0.2-0.5
						C224.2,139.4,224.8,139.6,225.4,140z M226.1,135.9c-0.2-0.2-0.3-0.2-0.4-0.4c-0.3-0.4-0.6-0.7-0.9-1c0.3-0.2,0.6-0.4,0.9-0.5
						c0.2,0.7,0.4,1.3,0.8,1.8C226.3,135.8,226.2,135.8,226.1,135.9z M225.1,136.1c0.1,0.1,0.1,0.2,0.2,0.2
						c-0.8,0.5-1.5,1.1-1.9,1.7c-0.1,0.2-0.2,0.2-0.2,0.4c-0.5-0.1-0.9-0.1-1.4,0c-0.2,0-0.2,0.1-0.4,0.1c0.5-1.2,1.3-2.4,2.7-3.5
						C224.4,135.3,224.7,135.7,225.1,136.1z M226.8,136.5c0.1,0,0.2-0.1,0.3-0.1c0.4,0.3,0.9,0.6,1.5,0.7c0.9,0.2,1.7,0.1,2.6-0.2
						c0.2,0.2,0.5,0.4,0.7,0.5c-0.5-0.1-0.9-0.2-1.5-0.2s-1.2,0.2-1.5,0.5c-0.3-0.2-0.7-0.5-1-0.8
						C227.2,136.9,227,136.6,226.8,136.5z M228.2,136.1c0.5-0.1,1.1,0,1.6,0.2c-0.4,0.1-0.8,0-1.2-0.1
						C228.5,136.2,228.3,136.2,228.2,136.1z M229,139.3c0.3,0.3,0.6,0.6,0.9,0.9c-0.4,0-0.6-0.2-0.9-0.5c-0.1-0.1-0.2-0.2-0.2-0.4
						C228.9,139.3,229,139.3,229,139.3z M227.1,137.7c0.4,0.2,0.7,0.5,1,0.8c-0.1,0.2-0.1,0.3-0.1,0.5c-0.2,0.1-0.4,0.2-0.5,0.3
						c-0.2-0.5-0.3-1.1-0.5-1.6C226.9,137.6,227,137.6,227.1,137.7z M227.6,141.5c0.5,0.4,0.9,0.9,1.5,1.5c-0.6,0.1-1.2,0.1-1.8,0.1
						C227.6,142.6,227.6,142.1,227.6,141.5z M227.9,140.7c-0.1-0.1-0.2-0.2-0.2-0.2c0-0.2,0-0.3-0.1-0.5c0.2-0.1,0.4-0.2,0.5-0.2
						c0.1,0.2,0.2,0.3,0.3,0.5c0.5,0.6,1.2,0.9,2.1,0.7c0.5,0.5,0.8,1.2,1,1.6c-0.3,0.1-0.7,0.2-1,0.2c-0.1,0-0.2,0-0.3,0.1
						c-0.2-0.2-0.3-0.2-0.4-0.4C229.1,141.7,228.4,141.1,227.9,140.7z M229.2,138.4c0.2-0.2,0.5-0.2,1-0.2c0.9,0,1.5,0.1,2,0.2
						c0,0.1,0,0.2,0,0.2c-0.1,0.6-0.5,1.2-1.4,1.4C230.3,139.5,229.8,139,229.2,138.4z M229.6,132.4c-0.2,0.2-0.3,0.2-0.9,0.2
						c-0.5-0.1-1.3-0.2-2.3,0.2c0.1-0.8,0.6-2.2,2.9-2.3C229.9,131.1,230,131.9,229.6,132.4z M224.5,130c0.8-0.6,1.6-0.9,2.3-0.9
						s1.3,0.2,1.9,0.6c-2,0.5-2.9,1.9-3,3.2c0,0.1,0,0.2,0,0.2c-0.4,0.2-0.9,0.5-1.4,0.8c-0.5-0.8-0.8-1.5-0.8-2.1
						C223.5,131.1,223.8,130.4,224.5,130z M218.1,137.2c-0.3-1.8,0.5-3.1,2.3-3.4c0.2-0.1,0.5-0.1,0.7-0.1c0.8,0,1.6,0.2,2.3,0.7
						c-1.7,1.4-2.6,3-3.1,4.6c-0.3,0.2-0.5,0.5-0.8,0.9C218.7,139,218.3,138.1,218.1,137.2z M230.8,145.5c-3.4,2.9-7.4,2.5-9.6,0.7
						c-1.6-1.3-2.1-3.1-1.4-5c0.1,0.1,0.2,0.2,0.4,0.3c0.1,0.8,0.3,1.5,0.6,2.1c0.9,1.6,2.2,2.4,3.8,1.9c1.1-0.3,2-0.9,2.6-1.8
						c0.9,0,1.9,0,2.9-0.2c0.5,0.5,0.9,0.9,1.4,1.3C231.2,145.2,231,145.4,230.8,145.5z M231.7,144.2c-0.2-0.2-0.5-0.5-0.8-0.7
						c0.3-0.1,0.5-0.1,0.9-0.2c0,0.1,0,0.2,0,0.3C231.7,143.8,231.7,144.1,231.7,144.2z M231.4,140.7c0.9-0.4,1.5-1.2,1.6-1.9
						c0.1,0,0.2,0.1,0.2,0.1c0.5,0.2,1,0.5,1.7,0.5c0.5,0.1,0.9,0,1.2,0c0.2,0.2,0.5,0.4,0.7,0.6c-0.9,1.1-2.5,1.9-4.6,2.5
						C232,141.8,231.7,141.3,231.4,140.7z M237.5,143.9c-0.8,1.2-2.4,1.7-4.2,1.3c-0.3-0.1-0.6-0.2-0.9-0.5c0.2-0.4,0.2-0.8,0.2-1.2
						c0-0.2,0-0.3-0.1-0.5c2.2-0.6,3.8-1.5,4.9-2.6C238.1,141.6,238.2,142.9,237.5,143.9z M235.8,132.8c1.5,1.5,2.2,3.2,2.2,3.9
						c-0.2-0.9-0.9-1.5-1.9-1.7c-0.2,0-0.3,0-0.5,0c-0.7,0-1.5,0.2-2.2,0.5c-0.4-0.7-0.7-1.4-0.9-2.3c-0.1-0.7,0-1.5,0.2-2.2
						C234.1,131.4,235.1,132.1,235.8,132.8z"/>
				</g>
			</g>
			<g>
				<circle class="st14" cx="262.9" cy="138.9" r="9.8"/>
				<g>
					<path class="st13" d="M253.4,136.5c-0.1,0.4-0.2,0.7-0.2,1.1c0.5,0.6,1,1.3,1.8,2c0.2-0.1,0.5-0.2,0.8-0.4
						C254.7,138.3,253.9,137.2,253.4,136.5z"/>
					<path class="st13" d="M255.6,140.2c0.2,0.2,0.5,0.4,0.8,0.5c0.3-0.2,0.5-0.2,0.9-0.4c-0.3-0.2-0.5-0.4-0.8-0.5
						C256.1,140,255.9,140.1,255.6,140.2z"/>
					<path class="st13" d="M260.3,141.5c-0.3,0.2-0.6,0.5-1,0.6c1.7,0.4,3.7,0.5,5.7,0.2c2.2-0.3,4.4-1.1,5.7-2.2l-0.5-0.6
						C268.1,141.2,263.7,142,260.3,141.5z"/>
					<path class="st13" d="M257.2,141.3c0.2,0.1,0.2,0.2,0.4,0.2c0.2,0.1,0.5,0.2,0.7,0.3c0.3-0.2,0.6-0.3,1-0.5
						c-0.4-0.2-0.8-0.2-1.2-0.5C257.8,141,257.4,141.1,257.2,141.3z"/>
					<path class="st13" d="M258,142.7c-0.3,0.2-0.7,0.3-1,0.4c0.1,0,0.2,0.1,0.2,0.1c1.9,0.9,4.7,1.2,7.4,0.8
						c2.2-0.3,4.4-1.1,5.7-2.2l-0.5-0.6C267.3,143.4,261.3,144.1,258,142.7z"/>
					<path class="st13" d="M253.1,139.8c0.1,0.1,0.2,0.2,0.2,0.3c0.2-0.1,0.5-0.2,0.9-0.2c-0.5-0.5-0.9-1.1-1.2-1.5
						C253,138.9,253.1,139.3,253.1,139.8z"/>
					<path class="st13" d="M254,140.8c0.2,0.2,0.4,0.4,0.6,0.6c0.3-0.1,0.5-0.2,0.9-0.3c-0.2-0.2-0.5-0.4-0.6-0.6
						C254.5,140.7,254.2,140.7,254,140.8z"/>
					<path class="st13" d="M255.3,142c0.2,0.2,0.5,0.4,0.9,0.6c0.3-0.1,0.6-0.2,0.9-0.3c-0.3-0.2-0.6-0.4-0.9-0.6
						C255.8,141.8,255.6,141.9,255.3,142z"/>
					<path class="st13" d="M259,140.3c0.4,0.2,0.9,0.2,1.2,0.3c0.2-0.2,0.4-0.3,0.6-0.5c0.1-0.1,0.2-0.2,0.2-0.2
						c-0.5-0.1-0.9-0.2-1.2-0.2C259.5,139.9,259.2,140.1,259,140.3z"/>
					<path class="st13" d="M262,140c-0.2,0.2-0.5,0.5-0.7,0.7c0,0,0,0-0.1,0.1c1.3,0.2,2.8,0.1,4.2-0.1c2.2-0.3,4.4-1.1,5.7-2.2
						l-0.5-0.6C268.8,139.4,265.2,140.2,262,140z"/>
					<path class="st13" d="M257.9,139c-0.2,0.2-0.5,0.3-0.8,0.5c0.2,0.2,0.5,0.3,0.9,0.5h0.1c0.2-0.2,0.5-0.3,0.8-0.5
						c-0.2-0.1-0.3-0.2-0.5-0.2C258.2,139.1,258.1,139,257.9,139z"/>
					<path class="st13" d="M253.9,135c-0.2,0.3-0.2,0.6-0.3,0.9c0.6,0.9,1.6,2,2.9,2.9c0.2-0.2,0.5-0.3,0.8-0.5
						C255.7,137.4,254.6,135.9,253.9,135z"/>
					<path class="st13" d="M253.5,141.7c0.1,0.2,0.2,0.5,0.2,0.8c0.4-0.1,0.9-0.2,1.5-0.4c-0.2-0.2-0.5-0.4-0.7-0.6
						C254.1,141.5,253.7,141.6,253.5,141.7z"/>
					<path class="st13" d="M255.4,141.1c0.2,0.2,0.5,0.4,0.7,0.6c0.3-0.2,0.7-0.3,1-0.5c-0.3-0.2-0.5-0.3-0.9-0.5
						C256.1,140.9,255.7,141,255.4,141.1z"/>
					<path class="st13" d="M259.8,138.6c-0.3,0.2-0.6,0.5-0.9,0.7c0.3,0.2,0.6,0.2,0.9,0.3c0.2-0.2,0.4-0.3,0.5-0.5
						c2.2-2,3.6-6.3,3.6-9.9c-0.2,0-0.5-0.1-0.8-0.1C263.2,132.6,261.8,136.8,259.8,138.6z"/>
					<path class="st13" d="M257.2,140.3c0.2,0.2,0.5,0.3,0.7,0.4c0.1,0,0.1,0,0.2,0.1c0.3-0.2,0.6-0.4,0.9-0.5
						c-0.3-0.1-0.6-0.2-0.9-0.4C257.8,140.1,257.5,140.2,257.2,140.3z"/>
					<path class="st13" d="M257.2,140.3c-0.3,0.2-0.5,0.3-0.9,0.4c0.2,0.2,0.5,0.4,0.9,0.5c0.3-0.2,0.5-0.3,0.9-0.5
						c-0.1,0-0.1,0-0.2-0.1C257.7,140.7,257.4,140.5,257.2,140.3z"/>
					<path class="st13" d="M254.6,141.4c0.2,0.2,0.5,0.4,0.7,0.6c0.3-0.1,0.6-0.2,0.9-0.3c-0.2-0.2-0.5-0.4-0.7-0.6
						C255.1,141.2,254.8,141.4,254.6,141.4z"/>
					<path class="st13" d="M258.1,139.9c0.3,0.2,0.6,0.2,0.9,0.4c0.3-0.2,0.5-0.4,0.8-0.6c-0.3-0.1-0.6-0.2-0.9-0.3
						C258.6,139.6,258.3,139.7,258.1,139.9z"/>
					<path class="st13" d="M259.2,141.3c0.4,0.1,0.7,0.2,1.2,0.2c0.3-0.2,0.6-0.5,0.9-0.7c-0.4-0.1-0.7-0.1-1.1-0.2
						C259.9,140.8,259.5,141,259.2,141.3z"/>
					<path class="st13" d="M254,143.1c0.2,0.2,0.2,0.5,0.4,0.8c0.6-0.2,1.5-0.4,2.6-0.7c-0.3-0.2-0.6-0.4-0.9-0.5
						C255.3,142.9,254.5,143.1,254,143.1z"/>
					<path class="st13" d="M264.3,129.3c0.5,3.5-0.9,8.4-3.3,10.6c0.3,0.1,0.7,0.1,1,0.1c2.2-2.5,3.4-7,3-10.5
						C264.8,129.4,264.5,129.3,264.3,129.3z"/>
					<path class="st13" d="M257.1,142.3c0.2,0.1,0.3,0.2,0.5,0.3c0.2,0.1,0.3,0.2,0.5,0.2c0.5-0.2,0.9-0.4,1.3-0.7
						c-0.4-0.1-0.8-0.2-1.1-0.3C257.8,142,257.4,142.1,257.1,142.3z"/>
					<path class="st13" d="M258.2,141.8c0.3,0.2,0.7,0.2,1.1,0.3c0.3-0.2,0.7-0.4,1-0.6c-0.4-0.1-0.8-0.2-1.2-0.2
						C258.9,141.4,258.6,141.7,258.2,141.8z"/>
					<path class="st13" d="M257.1,142.3c-0.3,0.2-0.6,0.2-0.9,0.3c0.3,0.2,0.6,0.4,0.9,0.5c0.3-0.2,0.7-0.2,1-0.4
						c-0.2-0.1-0.3-0.2-0.5-0.2C257.4,142.5,257.2,142.4,257.1,142.3z"/>
					<path class="st13" d="M260.9,140.1c-0.2,0.2-0.4,0.3-0.6,0.5c0.3,0.1,0.7,0.2,1.1,0.2c0,0,0,0,0.1-0.1c0.2-0.2,0.5-0.5,0.7-0.7
						c-0.3,0-0.7-0.1-1-0.1C260.9,140,260.9,140,260.9,140.1z"/>
					<path class="st13" d="M258.7,137.2c-0.5,0.5-0.9,0.9-1.5,1.2c0.2,0.2,0.5,0.3,0.7,0.5c0.5-0.3,0.9-0.7,1.3-1.1
						c1.9-1.8,3.1-5.4,3.3-8.6c-0.2,0-0.5,0-0.8,0.1C261.5,132.3,260.3,135.6,258.7,137.2z"/>
					<path class="st13" d="M255.7,139.3c0.2,0.2,0.5,0.4,0.7,0.5c0.2-0.2,0.5-0.2,0.8-0.4c-0.2-0.2-0.5-0.3-0.7-0.5
						C256.2,139,256,139.1,255.7,139.3z"/>
					<path class="st13" d="M253.2,140.2c0,0.1,0,0.1,0,0.2c0,0.2,0.1,0.4,0.2,0.6c0.2-0.1,0.4-0.1,0.7-0.2c-0.2-0.2-0.4-0.5-0.6-0.7
						C253.3,140.2,253.3,140.2,253.2,140.2z"/>
					<path class="st13" d="M254.2,139.9c0.2,0.2,0.4,0.5,0.6,0.6c0.2-0.1,0.5-0.2,0.8-0.3c-0.2-0.2-0.5-0.4-0.7-0.6
						C254.7,139.7,254.4,139.8,254.2,139.9z"/>
					<path class="st13" d="M255,139.6c0.2,0.2,0.5,0.4,0.7,0.6c0.2-0.1,0.5-0.2,0.8-0.4c-0.2-0.2-0.5-0.4-0.7-0.5
						C255.5,139.4,255.2,139.5,255,139.6z"/>
					<path class="st13" d="M253.4,140.1c0.2,0.2,0.4,0.5,0.6,0.7c0.2-0.1,0.5-0.2,0.9-0.3c-0.2-0.2-0.4-0.5-0.6-0.6
						C253.9,140,253.7,140,253.4,140.1z"/>
					<path class="st13" d="M256.4,138.9c0.2,0.2,0.5,0.3,0.7,0.5c0.2-0.2,0.5-0.3,0.8-0.5c-0.2-0.2-0.5-0.3-0.7-0.5
						C256.9,138.6,256.7,138.8,256.4,138.9z"/>
				</g>
				<path class="st13" d="M267.4,130.3c1.4,1.7,2.2,3.8,2.2,6.1c0,5.4-4.3,9.8-9.8,9.8c-1.6,0-3.3-0.4-4.6-1.2
					c1.8,2.2,4.5,3.6,7.6,3.6c5.4,0,9.8-4.3,9.8-9.8C272.6,135.2,270.5,131.9,267.4,130.3z"/>
			</g>
		</g>
		<g>
			<g>
				<path class="st15" d="M193.9,125.4H123c-1.8,0-3.2,1.5-3.2,3.2v47.6c0,1.8,1.5,3.2,3.2,3.2h70.9c1.8,0,3.2-1.5,3.2-3.2v-47.5
					C197.1,126.9,195.7,125.4,193.9,125.4z"/>
				<rect x="145.6" y="179.4" class="st16" width="25.9" height="8.8"/>
				<path class="st15" d="M173.4,188.1h-29.7c-1.4,0-2.7,0.7-3.5,1.9l-1.2,1.8h39l-1.2-1.8C176.1,188.9,174.7,188.1,173.4,188.1z"/>
				<path class="st17" d="M192.7,126.9h-68.5c-1.7,0-3.1,1.4-3.1,3.1v40.5h74.7V130C195.8,128.3,194.4,126.9,192.7,126.9z"/>
				<rect x="123.6" y="129.2" class="st18" width="69.5" height="38.2"/>
				<polygon class="st13" points="193.2,167.4 193.2,129.2 123.6,167.4 				"/>
				<polygon class="st19" points="145.6,188.1 171.4,182.2 171.4,179.4 145.6,179.4 				"/>
			</g>
			<g>
				<g>
					<path class="st20" d="M142.2,125c0,1.9,16,9.8,16,9.8s16-8.2,16-10.1v-12.4h-32L142.2,125L142.2,125z"/>
					<path class="st21" d="M142.2,125c0,1,6,4.4,10.2,6.7l21.8-17.7l-32-0.1V125z"/>
				</g>
				<g>
					<polygon class="st21" points="127.4,117.5 158.2,126.5 189.5,117.5 158.2,108.4 					"/>
					<rect x="127.4" y="116.7" class="st21" width="2.3" height="0.8"/>
					<rect x="187.1" y="116.7" class="st21" width="2.3" height="0.8"/>
					<polygon class="st22" points="127.4,116.7 158.2,125.7 189.5,116.7 158.2,107.7 					"/>
				</g>
				<g>
					<path class="st9" d="M158.2,114c-2.3,0.8-13.8,4.7-15.5,6.9c-1.6,2.1-1,20.7-0.9,26.3c0,0.5,0.4,0.8,0.8,0.8l0,0
						c0.5,0,0.8-0.4,0.8-0.9c-0.5-11.5-0.4-24.1,0.5-25.3c1.1-1.3,9.6-4.6,14.7-6.3c0.4-0.2,0.6-0.6,0.5-1
						C159.1,114.1,158.6,113.9,158.2,114z"/>
					<path class="st23" d="M144,121.7c-1.6,2.1-1,20.3-0.8,26.2c0.2-0.2,0.3-0.4,0.3-0.6c-0.5-11.5-0.4-24.1,0.5-25.3
						c1.1-1.3,9.6-4.6,14.7-6.3c0.3-0.1,0.5-0.4,0.5-0.7h-0.1C156.9,115.6,145.6,119.6,144,121.7z"/>
					<polygon class="st10" points="140.8,144.8 140.4,153.7 144.9,153.7 144.5,144.8 					"/>
					<polygon class="st9" points="141.2,153.7 142.1,153.7 141.8,145.8 					"/>
					<polygon class="st9" points="142.4,153.7 143.9,153.7 143.3,145.8 					"/>
					<polygon class="st9" points="143.8,153.7 144.4,153.6 143.8,146.4 					"/>
					<polygon class="st9" points="140.8,153.7 141.5,153.7 141.3,145.8 					"/>
					<polygon class="st9" points="140.4,153.7 141.2,153.7 140.9,145.8 					"/>
					<polygon class="st9" points="142.1,153.7 142.9,153.7 142.6,145.8 					"/>
					<polygon class="st9" points="143.2,153.7 144.9,153.6 144.2,146.4 					"/>
					<path class="st24" d="M142.6,142.3L142.6,142.3c-1.3,0-2.4,1.1-2.4,2.4v0.2c0,1.3,1.1,2.4,2.4,2.4l0,0c1.3,0,2.4-1.1,2.4-2.4
						v-0.2C145,143.4,143.9,142.3,142.6,142.3z"/>
					<g>
						<path class="st9" d="M142.6,142.3L142.6,142.3c-1.3,0-2.4,1.1-2.4,2.4v0.2c0,1.3,1.1,2.4,2.4,2.4l0,0c1.3,0,2.4-1.1,2.4-2.4
							v-0.2C145,143.4,143.9,142.3,142.6,142.3z"/>
					</g>
					<g>
						<path class="st10" d="M142.8,142.7h-0.2c-0.8,0.1-1.5,0.7-1.5,1.5c0,0.9,0.9,1.5,1.6,1.6c1.1,0,1.5-0.9,1.5-1.5
							C144.3,143.5,143.8,142.7,142.8,142.7z"/>
					</g>
				</g>
			</g>
		</g>
		<g>
			<g>
				<path class="st14" d="M120.5,167.1v19.2c1.5,0,2.9-1.3,2.9-2.9V170C123.4,168.4,122.1,167.1,120.5,167.1z"/>
				<path class="st14" d="M72.5,167.8v1.2c0,0.4,0.3,0.6,0.6,0.6h47.3v-2.5H73.1C72.8,167.1,72.5,167.4,72.5,167.8z"/>
				<path class="st14" d="M72.5,184.4v1.2c0,0.4,0.3,0.6,0.6,0.6h47.3v-2.5H73.1C72.8,183.8,72.5,184.1,72.5,184.4z"/>
				<rect x="74.2" y="169.5" class="st25" width="46.2" height="14.2"/>
				<path class="st15" d="M74.2,183.8h4.1c0,0,8.5-11.8,18.5-11.8c9.9,0,23.9,0,23.9,0v-2.4H74.2V183.8z"/>
				<path class="st4" d="M72.5,168.8v0.2c0,0.4,0.3,0.6,0.6,0.6h47.3c-0.5-0.5-1.2-0.9-2-0.9L72.5,168.8L72.5,168.8z"/>
				<path class="st2" d="M120.8,169.2h-0.4c-0.3,0-0.5,0.2-0.5,0.5v13.8c0,0.3,0.2,0.5,0.5,0.5h0.4c0.3,0,0.5-0.2,0.5-0.5v-13.8
					C121.3,169.5,121.1,169.2,120.8,169.2z"/>
				<g>
					<path class="st4" d="M72.5,185.6c0,0.4,0.3,0.6,0.6,0.6h47.3v-0.9H72.5V185.6z"/>
					<path class="st4" d="M120.5,185.4v0.9c1.5,0,2.9-1.3,2.9-2.9v-0.9C123.4,184.1,122.1,185.4,120.5,185.4z"/>
				</g>
				<g>
					<polygon class="st16" points="74.2,173.3 108.9,172.9 74.2,172.3 					"/>
					<polygon class="st16" points="74.2,179.8 96.3,179.5 74.2,178.9 					"/>
					<polygon class="st16" points="74.2,176.7 81.8,176.4 74.2,175.7 					"/>
				</g>
			</g>
			<g>
				<path class="st9" d="M63.5,189.4V201c0,1.8,1.4,3.2,3.2,3.2v-18C64.9,186.2,63.5,187.7,63.5,189.4z"/>
				<path class="st9" d="M131,186.3H66.6v2.7H131c0.4,0,0.7-0.3,0.7-0.7V187C131.8,186.6,131.5,186.3,131,186.3z"/>
				<path class="st9" d="M131,201.4H66.6v2.7H131c0.4,0,0.7-0.3,0.7-0.7v-1.3C131.8,201.8,131.5,201.4,131,201.4z"/>
				<rect x="66.7" y="189" class="st25" width="63.2" height="12.5"/>
				<path class="st15" d="M66.5,201.4h4.6c0,0,9.5-9.9,20.5-9.9s38.3,0,38.3,0v-2.6H66.5V201.4z"/>
				<path class="st26" d="M66.7,189h64.3c0.4,0,0.7-0.3,0.7-0.7v-0.2H69C68.1,188,67.3,188.4,66.7,189z"/>
				<path class="st2" d="M66.7,188.6h-0.4c-0.3,0-0.5,0.2-0.5,0.5v12.1c0,0.3,0.2,0.5,0.5,0.5h0.4c0.3,0,0.5-0.2,0.5-0.5v-12.1
					C67.3,188.9,67,188.6,66.7,188.6z"/>
				<path class="st26" d="M63.5,200.1v0.9c0,1.8,1.4,3.2,3.2,3.2l0,0H131c0.4,0,0.7-0.3,0.7-0.7v-0.2h-65
					C64.9,203.3,63.5,201.8,63.5,200.1z"/>
				<g>
					<polygon class="st16" points="130.1,192.6 130.1,191.7 95.4,192.3 					"/>
					<polygon class="st16" points="130.1,199.2 130.1,198.3 108.1,198.9 					"/>
					<polygon class="st16" points="130.1,196 130.1,195.1 122.6,195.7 					"/>
				</g>
			</g>
			<g>
				<path class="st2" d="M82,153.7v10.2c0,1.8,1.4,3.2,3.2,3.2v-16.6C83.4,150.5,82,152,82,153.7z"/>
				<path class="st2" d="M115.7,150.6H85.2v2.7h30.5c0.4,0,0.7-0.3,0.7-0.7v-1.3C116.4,150.9,116,150.6,115.7,150.6z"/>
				<path class="st2" d="M115.7,164.4H85.2v2.7h30.5c0.4,0,0.7-0.3,0.7-0.7V165C116.4,164.7,116,164.4,115.7,164.4z"/>
				<rect x="85.2" y="153.3" class="st25" width="29.3" height="11.1"/>
				<path class="st15" d="M85,164.4h4.6c0,0,1.3-8.4,20.5-8.4c1.2,0,4.5,0,4.5,0v-2.6H85.1L85,164.4L85,164.4z"/>
				<path class="st21" d="M85.2,153.3L85.2,153.3h30.5c0.4,0,0.7-0.3,0.7-0.7v-0.2h-29C86.5,152.3,85.8,152.7,85.2,153.3z"/>
				<path class="st13" d="M85.2,152.9h-0.4c-0.3,0-0.5,0.2-0.5,0.5V164c0,0.3,0.2,0.5,0.5,0.5h0.4c0.3,0,0.5-0.2,0.5-0.5v-10.6
					C85.8,153.2,85.5,152.9,85.2,152.9z"/>
				<g>
					<path class="st21" d="M85.2,167.1h30.5c0.4,0,0.7-0.3,0.7-0.7v-0.2H85.2V167.1z"/>
					<path class="st21" d="M82,163v0.9c0,1.8,1.4,3.2,3.2,3.2v-0.9C83.4,166.1,82,164.7,82,163z"/>
				</g>
				<g>
					<polygon class="st16" points="114.5,155.8 114.5,155.1 91.7,155.5 					"/>
					<polygon class="st16" points="114.5,161.4 114.5,160.6 100,161.2 					"/>
					<polygon class="st16" points="114.5,158.7 114.5,157.9 109.5,158.5 					"/>
				</g>
			</g>
		</g>
		<g>
			<g>
				<path class="st17" d="M207.4,151.4c-3.6,0-6.5,2.9-6.5,6.5c0,3.6,2.9,6.5,6.5,6.5c3.6,0,6.5-2.9,6.5-6.5
					C213.9,154.4,211.1,151.4,207.4,151.4z M207.4,163.2c-2.9,0-5.3-2.3-5.3-5.3c0-2.9,2.3-5.3,5.3-5.3s5.3,2.3,5.3,5.3
					C212.7,160.9,210.4,163.2,207.4,163.2z"/>
			</g>
			<circle class="st27" cx="207.5" cy="187.5" r="23.1"/>
			<ellipse class="st13" cx="207.5" cy="187.5" rx="20.5" ry="20.5"/>
			<circle class="st25" cx="207.5" cy="187.5" r="19.2"/>
			<path class="st15" d="M208.5,204.2c-10,0-18.1-8.1-18.1-18.1c0-7.4,4.5-13.9,10.9-16.6c-7.6,2.6-13,9.8-13,18.1
				c0,10.6,8.6,19.2,19.2,19.2s19.2-8.6,19.2-19.2c0-0.2,0-0.5,0-0.8C226.2,196.4,218.3,204.2,208.5,204.2z"/>
			<path class="st27" d="M208.7,159.7h-2.4c-1.3,0-2.5,1.1-2.5,2.5v2.6h7.3v-2.6C211.1,160.9,210,159.7,208.7,159.7z"/>
			<g>
				<g>
					<polygon class="st15" points="208.6,188.7 214.4,180.7 207.5,187.6 					"/>
				</g>
				<polygon class="st16" points="200.6,194.6 208.6,188.7 207.5,187.6 				"/>
				<polygon class="st16" points="207.5,187.6 214.4,180.7 206.4,186.6 				"/>
				<g>
					<polygon class="st15" points="200.6,194.6 207.5,187.6 206.4,186.6 					"/>
				</g>
				<polygon class="st16" points="206.4,188.7 207.5,187.6 200.6,180.7 				"/>
				<g>
					<polygon class="st15" points="206.4,188.7 214.4,194.6 207.5,187.6 					"/>
				</g>
				<g>
					<polygon class="st15" points="207.5,187.6 208.6,186.6 200.6,180.7 					"/>
				</g>
				<polygon class="st16" points="207.5,187.6 214.4,194.6 208.6,186.6 				"/>
				<g>
					<polygon class="st15" points="207.4,187.6 207.4,185.4 193.2,187.6 					"/>
				</g>
				<polygon class="st16" points="207.4,187.6 221.7,187.6 207.4,185.4 				"/>
				<polygon class="st16" points="207.5,189.8 207.5,187.6 193.3,187.6 				"/>
				<g>
					<polygon class="st15" points="207.5,189.8 221.7,187.6 207.5,187.6 					"/>
				</g>
				<g>
					<polygon class="st15" points="207.5,187.7 209.7,187.7 207.5,173.4 					"/>
				</g>
				<polygon class="st16" points="207.5,201.9 209.7,187.7 207.5,187.7 				"/>
				<polygon class="st16" points="207.5,187.7 207.5,173.5 205.3,187.7 				"/>
				<g>
					<polygon class="st15" points="207.5,201.9 207.5,187.7 205.3,187.7 					"/>
				</g>
			</g>
			<g>
				<path class="st16" d="M208.4,169.7H208v0.3l0.3,0.1c0,0.1,0.1,0.3,0.1,0.5v1.2l-1-1.4c-0.1-0.1-0.4-0.7-0.4-0.7l-0.1-0.1h-0.5
					c-0.2,0-0.5,0-0.5,0v0.3l0.3,0.1c0,0.1,0.1,0.3,0.1,0.5v1.5c0,0.1,0,0.3-0.1,0.4l-0.3,0.1v0.3c0,0,0.2,0,0.5,0
					c0.5,0,0.8,0,0.8,0v-0.3h-0.3c0-0.1-0.1-0.3-0.1-0.5v-1.2l1.5,2h0.6v-2.5c0-0.1,0-0.3,0.1-0.4h0.3v-0.4
					C209.2,169.7,208.8,169.7,208.4,169.7z"/>
			</g>
			<g>
				<path class="st16" d="M207,203.2c0-0.2,0.2-0.4,0.5-0.4c0.2,0,0.2,0.1,0.4,0.1c0,0.1,0.1,0.2,0.1,0.2v0.3h0.4l0.1-0.9
					c-0.3-0.1-0.7-0.2-1-0.2c-0.6,0-1.1,0.3-1.1,0.9c0,1.1,1.5,0.9,1.5,1.6c0,0.2-0.2,0.4-0.5,0.4s-0.4-0.1-0.5-0.2
					c0-0.1-0.1-0.2-0.1-0.2c0-0.1,0-0.3,0-0.3h-0.4l-0.1,0.9c0,0,0.5,0.2,1.1,0.2c0.6,0,1.2-0.4,1.2-1
					C208.4,203.7,207,203.8,207,203.2z"/>
			</g>
			<g>
				<path class="st16" d="M193.1,185.9c-0.2,0-0.5,0-0.5,0v0.3l0.3,0.1c0,0,0,0.1,0,0.2l-0.5,1.7l-0.6-2.1h-0.5l-0.6,2.1l-0.4-1.7
					c0-0.2,0-0.2,0-0.2l0.3-0.1v-0.3c0,0-0.5,0-0.9,0c-0.2,0-0.4,0-0.4,0v0.3l0.3,0.1c0,0,0.1,0.1,0.1,0.2l0.9,2.6h0.5l0.6-1.9
					l0.5,1.9h0.5l0.8-2.5c0.1-0.2,0.2-0.4,0.2-0.4h0.2v-0.3C193.7,185.8,193.4,185.9,193.1,185.9z"/>
			</g>
			<g>
				<path class="st16" d="M196.7,178.3h-0.3v0.2h0.2c0,0.1,0,0.2,0,0.3v0.9l-0.7-0.9c-0.1-0.1-0.2-0.5-0.2-0.5l-0.1-0.1h-0.3
					c-0.2,0-0.3,0-0.3,0v0.2h0.2c0,0,0,0.2,0,0.3v1.1c0,0.1,0,0.2,0,0.2H195v0.2c0,0,0.2,0,0.3,0c0.3,0,0.5,0,0.5,0v-0.2h-0.2
					c0,0,0-0.2,0-0.4v-0.8l1,1.4h0.4v-1.6c0-0.1,0-0.2,0-0.2h0.2v-0.2C197.2,178.3,196.9,178.3,196.7,178.3z"/>
				<path class="st16" d="M199.9,178.3c-0.2,0-0.3,0-0.3,0v0.2h0.2v0.1l-0.3,1.2l-0.4-1.4h-0.3l-0.4,1.4l-0.3-1.1c0-0.1,0-0.2,0-0.2
					h0.2v-0.2c0,0-0.3,0-0.6,0c-0.1,0-0.3,0-0.3,0v0.2h0.2c0,0,0.1,0.1,0.1,0.2l0.5,1.7h0.3l0.4-1.2l0.4,1.2h0.3l0.5-1.6
					c0.1-0.2,0.2-0.2,0.2-0.2h0.2v-0.2C200.4,178.3,200.1,178.3,199.9,178.3z"/>
			</g>
			<g>
				<path class="st16" d="M216.5,178.3h-0.3v0.2h0.2c0,0.1,0,0.2,0,0.3v0.9l-0.7-0.9c-0.1-0.1-0.2-0.5-0.2-0.5l-0.1-0.1h-0.3
					c-0.2,0-0.3,0-0.3,0v0.2h0.2c0,0,0,0.2,0,0.3v1.1c0,0.1,0,0.2,0,0.2h-0.2v0.2c0,0,0.2,0,0.3,0c0.3,0,0.5,0,0.5,0v-0.2h-0.2
					c0,0,0-0.2,0-0.4v-0.8l1,1.4h0.4v-1.6c0-0.1,0-0.2,0-0.2h0.2v-0.2C217,178.3,216.7,178.3,216.5,178.3z"/>
				<path class="st16" d="M218.6,180c0,0,0,0.1-0.1,0.2c-0.1,0-0.2,0-0.2,0h-0.4c0-0.1,0-0.2,0-0.3v-0.4h0.1h0.1c0.1,0,0.2,0,0.2,0
					v0.2h0.2c0,0,0-0.2,0-0.4c0-0.1,0-0.2,0-0.2h-0.2v0.2c0,0-0.1,0-0.2,0h-0.2h-0.1v-0.5c0-0.1,0-0.2,0-0.2h0.3c0.1,0,0.2,0,0.2,0
					v0.1c0,0.1,0,0.2,0,0.2h0.2v-0.5l-0.1-0.1h-0.3h-0.8c-0.1,0-0.3,0-0.3,0v0.2h0.2c0,0.1,0,0.2,0,0.3v1.1c0,0.1,0,0.2,0,0.2h-0.2
					v0.2c0,0,0.2,0,0.3,0h0.9c0.1,0,0.3,0,0.3,0l0.1-0.1l0.1-0.5h-0.2C218.6,179.9,218.6,180,218.6,180z"/>
			</g>
			<g>
				<path class="st16" d="M195.9,195.2c0-0.2,0.2-0.2,0.3-0.2c0.1,0,0.2,0,0.2,0.1c0,0.1,0,0.1,0,0.1v0.2h0.2l0.1-0.6
					c-0.2-0.1-0.5-0.1-0.7-0.1c-0.4,0-0.7,0.2-0.7,0.6c0,0.7,0.9,0.6,0.9,1.1c0,0.2-0.2,0.2-0.3,0.2s-0.2-0.1-0.3-0.1
					c0-0.1-0.1-0.1-0.1-0.2v-0.2h-0.2l-0.1,0.6c0,0,0.3,0.2,0.7,0.2c0.5,0,0.8-0.2,0.8-0.7C196.8,195.6,195.9,195.6,195.9,195.2z"/>
				<path class="st16" d="M199.5,194.8c-0.2,0-0.3,0-0.3,0v0.2h0.2v0.1l-0.3,1.2l-0.4-1.4h-0.3l-0.4,1.4l-0.3-1.1c0-0.1,0-0.2,0-0.2
					h0.2v-0.2c0,0-0.3,0-0.6,0c-0.1,0-0.3,0-0.3,0v0.2h0.2c0,0,0.1,0.1,0.1,0.2l0.5,1.7h0.3l0.4-1.2l0.4,1.2h0.3l0.5-1.6
					c0.1-0.2,0.2-0.2,0.2-0.2h0.2v-0.2C200,194.8,199.8,194.8,199.5,194.8z"/>
			</g>
			<g>
				<path class="st16" d="M215.6,195.2c0-0.2,0.2-0.2,0.3-0.2c0.1,0,0.2,0,0.2,0.1c0,0.1,0,0.1,0,0.1v0.2h0.2l0.1-0.6
					c-0.2-0.1-0.5-0.1-0.7-0.1c-0.4,0-0.7,0.2-0.7,0.6c0,0.7,0.9,0.6,0.9,1.1c0,0.2-0.2,0.2-0.3,0.2c-0.2,0-0.2-0.1-0.3-0.1
					c0-0.1-0.1-0.1-0.1-0.2v-0.2h-0.2l-0.1,0.6c0,0,0.3,0.2,0.7,0.2c0.5,0,0.8-0.2,0.8-0.7C216.6,195.6,215.6,195.6,215.6,195.2z"/>
				<path class="st16" d="M218.3,196.5c0,0,0,0.1-0.1,0.2c-0.1,0-0.2,0-0.2,0h-0.4c0-0.1,0-0.2,0-0.3v-0.4h0.1h0.1
					c0.1,0,0.2,0,0.2,0v0.2h0.2c0,0,0-0.2,0-0.4c0-0.1,0-0.2,0-0.2h-0.2v0.2c0,0-0.1,0-0.2,0h-0.2h-0.1v-0.5c0-0.1,0-0.2,0-0.2h0.3
					c0.1,0,0.2,0,0.2,0v0.1c0,0.1,0,0.2,0,0.2h0.2v-0.5l-0.1-0.1h-0.3h-0.8c-0.1,0-0.3,0-0.3,0v0.2h0.2c0,0.1,0,0.2,0,0.3v1.1
					c0,0.1,0,0.2,0,0.2h-0.2v0.2c0,0,0.2,0,0.3,0h0.9c0.1,0,0.3,0,0.3,0l0.1-0.1l0.1-0.5h-0.2C218.3,196.4,218.3,196.5,218.3,196.5z
					"/>
			</g>
			<g>
				<path class="st16" d="M225.2,188.4c0,0.1-0.1,0.1-0.1,0.2c-0.1,0-0.2,0-0.4,0h-0.5c0-0.1,0-0.3,0-0.5v-0.5h0.2h0.2
					c0.1,0,0.3,0,0.3,0l0.1,0.3h0.3c0,0,0-0.4,0-0.5c0-0.1,0-0.4,0-0.4h-0.3l-0.1,0.3c0,0-0.1,0.1-0.2,0.1h-0.2c0,0-0.1,0-0.2,0
					v-0.6c0-0.1,0-0.3,0-0.4h0.5c0.2,0,0.2,0,0.4,0l0.1,0.1c0,0.1,0,0.2,0.1,0.2h0.3V186l-0.1-0.1c0,0-0.4,0.1-0.5,0.1h-1.2
					c-0.2,0-0.5,0-0.5,0v0.3l0.3,0.1c0,0.1,0.1,0.3,0.1,0.5v1.5c0,0.1,0,0.3-0.1,0.4l-0.3,0.1v0.3c0,0,0.2,0,0.5,0h1.2
					c0.1,0,0.5,0,0.5,0l0.1-0.1l0.1-0.8L225.2,188.4C225.2,188.3,225.2,188.4,225.2,188.4z"/>
			</g>
			<g>
				<g>
					<polygon class="st9" points="207.5,187.4 210.1,186.2 199.2,170.5 					"/>
					<polygon class="st14" points="207.5,187.4 215.7,204.3 210.1,186.2 					"/>
					<polygon class="st26" points="204.9,188.7 207.5,187.4 199.2,170.5 					"/>
					<polygon class="st4" points="204.9,188.7 215.7,204.4 207.5,187.4 					"/>
				</g>
				<path class="st27" d="M207.5,186.3c-0.6,0-1.2,0.5-1.2,1.2c0,0.6,0.5,1.2,1.2,1.2s1.2-0.5,1.2-1.2
					C208.7,186.9,208.1,186.3,207.5,186.3z"/>
			</g>
			<path class="st21" d="M230.4,187c0,12.5-10.1,22.5-22.5,22.5c-12.5,0-22.5-10.1-22.5-22.5c0-12.5,10.1-22.5,22.5-22.5
				c2.2,0,4.4,0.3,6.5,0.9c-2.2-0.7-4.5-1.1-6.9-1.1c-12.7,0-23.1,10.3-23.1,23.1c0,12.7,10.3,23.1,23.1,23.1s23.1-10.3,23.1-23.1
				c0-2.1-0.3-4.1-0.8-6C230.2,183.3,230.4,185.2,230.4,187z"/>
		</g>
		<g>
			<g>
				<g>
					<path class="st28" d="M80.5,117.4c-0.3,0.1-0.5,0.4-0.5,0.7c0.1,0.3,0.4,0.5,0.7,0.5c0.3-0.1,0.5-0.4,0.5-0.7
						C81.1,117.6,80.8,117.3,80.5,117.4z"/>
				</g>
				<g>
					<path class="st28" d="M84.1,117c-0.3,0-0.6,0.3-0.5,0.6c0,0.3,0.3,0.5,0.6,0.5c0.3,0,0.5-0.3,0.5-0.6S84.5,116.9,84.1,117z"/>
				</g>
				<g>
					<path class="st28" d="M87.7,117c-0.3,0-0.6,0.2-0.6,0.5s0.2,0.6,0.5,0.6c0.3,0,0.6-0.2,0.6-0.5C88.2,117.3,88,117,87.7,117z"/>
				</g>
				<g>
					<path class="st28" d="M91.3,117.6c-0.3-0.1-0.6,0.2-0.7,0.5c-0.1,0.3,0.2,0.6,0.5,0.7c0.3,0.1,0.6-0.2,0.7-0.5
						C91.8,118,91.6,117.7,91.3,117.6z"/>
				</g>
				<g>
					<path class="st28" d="M94.7,118.6c-0.3-0.2-0.6,0-0.8,0.3c-0.1,0.3,0.1,0.6,0.3,0.8c0.3,0.2,0.6,0,0.8-0.3
						C95.1,119.1,95,118.7,94.7,118.6z"/>
				</g>
				<g>
					<path class="st28" d="M98,120.1c-0.3-0.2-0.6,0-0.8,0.2c-0.2,0.3,0,0.6,0.2,0.8c0.3,0.2,0.6,0,0.8-0.2
						C98.4,120.5,98.3,120.2,98,120.1z"/>
				</g>
				<g>
					<path class="st28" d="M100.3,122c-0.2,0.3-0.1,0.6,0.2,0.8c0.2,0.2,0.6,0.2,0.8-0.2c0.2-0.2,0.2-0.6-0.2-0.9
						C100.8,121.7,100.5,121.8,100.3,122z"/>
				</g>
				<g>
					<path class="st28" d="M103.1,124.2c-0.2,0.2-0.2,0.6,0,0.9s0.6,0.2,0.9,0c0.2-0.2,0.2-0.6,0-0.9
						C103.7,123.9,103.3,123.9,103.1,124.2z"/>
				</g>
				<g>
					<path class="st28" d="M105.5,126.7c-0.2,0.2-0.3,0.5-0.2,0.9c0.2,0.2,0.5,0.3,0.8,0.2c0.2-0.2,0.3-0.5,0.2-0.9
						C106.1,126.5,105.7,126.5,105.5,126.7z"/>
				</g>
				<g>
					<path class="st28" d="M107.5,129.7c-0.3,0.2-0.4,0.5-0.2,0.8c0.2,0.3,0.5,0.4,0.8,0.2c0.3-0.2,0.5-0.5,0.3-0.8
						C108.1,129.6,107.8,129.5,107.5,129.7z"/>
				</g>
				<g>
					<path class="st28" d="M108.9,132.8c-0.3,0.1-0.5,0.5-0.4,0.8c0.1,0.3,0.5,0.5,0.8,0.4c0.3-0.1,0.5-0.5,0.4-0.8
						C109.5,132.9,109.2,132.8,108.9,132.8z"/>
				</g>
				<g>
					<path class="st28" d="M109.9,136.2c-0.3,0.1-0.5,0.4-0.5,0.7c0.1,0.3,0.4,0.5,0.7,0.5c0.3-0.1,0.5-0.4,0.5-0.7
						C110.6,136.4,110.2,136.2,109.9,136.2z"/>
				</g>
				<g>
					<path class="st28" d="M110.5,139.7c-0.3,0-0.5,0.3-0.5,0.6c0,0.3,0.3,0.5,0.6,0.5c0.3,0,0.5-0.3,0.5-0.6
						C111.1,139.9,110.8,139.6,110.5,139.7z"/>
				</g>
			</g>
			<polygon class="st29" points="110.9,144.8 113.1,138.2 107.7,138.4 			"/>
		</g>
		<g>
			<g>
				<g>
					<path class="st28" d="M260.6,184.9c-0.3-0.1-0.6,0.2-0.7,0.5c-0.1,0.3,0.1,0.6,0.4,0.7c0.3,0.1,0.6-0.1,0.7-0.5
						C261.2,185.3,260.9,184.9,260.6,184.9z"/>
				</g>
				<g>
					<path class="st28" d="M259.5,188.3c-0.3-0.2-0.6,0-0.8,0.3c-0.2,0.3,0,0.6,0.3,0.8c0.3,0.2,0.6,0,0.8-0.3
						C259.9,188.8,259.8,188.4,259.5,188.3z"/>
				</g>
				<g>
					<path class="st28" d="M257.8,191.5c-0.3-0.2-0.6-0.1-0.9,0.2s-0.2,0.6,0.2,0.9c0.2,0.2,0.6,0.2,0.9-0.2
						C258.1,192.1,258.1,191.7,257.8,191.5z"/>
				</g>
				<g>
					<path class="st28" d="M254.7,194.4c-0.2,0.2-0.2,0.6,0,0.9c0.2,0.2,0.6,0.2,0.9,0c0.2-0.2,0.2-0.6,0-0.9
						C255.3,194.2,255,194.2,254.7,194.4z"/>
				</g>
				<g>
					<path class="st28" d="M252,196.8c-0.2,0.2-0.3,0.5-0.2,0.9c0.2,0.2,0.6,0.3,0.9,0.1c0.2-0.2,0.3-0.6,0.1-0.9
						C252.6,196.6,252.3,196.6,252,196.8z"/>
				</g>
				<g>
					<path class="st28" d="M249.1,198.7c-0.3,0.2-0.4,0.5-0.2,0.9c0.2,0.3,0.5,0.4,0.9,0.2c0.3-0.2,0.4-0.5,0.2-0.9
						C249.7,198.7,249.3,198.6,249.1,198.7z"/>
				</g>
				<g>
					<path class="st28" d="M245.8,200.2c-0.3,0.1-0.5,0.5-0.4,0.8c0.1,0.3,0.5,0.5,0.8,0.4c0.3-0.1,0.5-0.5,0.4-0.8
						C246.5,200.2,246.1,200,245.8,200.2z"/>
				</g>
				<g>
					<path class="st28" d="M242.3,201.1c-0.3,0.1-0.5,0.4-0.5,0.7c0.1,0.3,0.4,0.5,0.7,0.5c0.3-0.1,0.5-0.4,0.5-0.7
						C243,201.2,242.7,201,242.3,201.1z"/>
				</g>
				<g>
					<path class="st28" d="M238.8,201.4c-0.3,0-0.6,0.3-0.5,0.6c0,0.3,0.3,0.5,0.6,0.5c0.3,0,0.6-0.3,0.5-0.6
						C239.4,201.7,239.2,201.4,238.8,201.4z"/>
				</g>
				<g>
					<path class="st28" d="M235.2,201.4c-0.3,0-0.6,0.2-0.6,0.5c0,0.3,0.2,0.6,0.6,0.6c0.3,0,0.6-0.2,0.6-0.5
						C235.8,201.8,235.5,201.5,235.2,201.4z"/>
				</g>
				<g>
					<path class="st28" d="M231.7,201.1c-0.3-0.1-0.6,0.2-0.7,0.5c-0.1,0.3,0.2,0.6,0.5,0.7c0.3,0.1,0.6-0.2,0.7-0.5
						C232.2,201.5,232,201.2,231.7,201.1z"/>
				</g>
			</g>
			<polygon class="st29" points="257.4,185.9 262.6,186.7 260.8,180 			"/>
		</g>
	</g>
</g>
</svg>
