<?xml version="1.0" encoding="utf-8"?>
<!-- Generator: Adobe Illustrator 24.1.0, SVG Export Plug-In . SVG Version: 6.00 Build 0)  -->
<svg version="1.1" id="fa905f8f-095c-41f4-b37d-f1ac86376786"
	 xmlns="http://www.w3.org/2000/svg" xmlns:xlink="http://www.w3.org/1999/xlink" x="0px" y="0px" viewBox="0 0 835.2 784.9"
	 style="enable-background:new 0 0 835.2 784.9;" xml:space="preserve">
<style type="text/css">
	.st0{opacity:0.5;}
	.st1{fill:url(#SVGID_1_);}
	.st2{fill:#FFFFFF;}
	.st3{opacity:0.3;fill:#C00115;enable-background:new    ;}
	.st4{clip-path:url(#SVGID_3_);}
	.st5{fill:none;stroke:#FFFFFF;stroke-width:4;stroke-miterlimit:10;}
	.st6{fill:#DBDBDB;}
	.st7{fill:#C00115;}
	.st8{fill:#FFB9B9;}
	.st9{fill:#2F2E41;}
	.st10{fill:#575A89;}
	.st11{opacity:0.1;enable-background:new    ;}
	.st12{fill:url(#SVGID_4_);}
</style>
<g class="st0">

		<linearGradient id="SVGID_1_" gradientUnits="userSpaceOnUse" x1="379.6778" y1="24.5158" x2="664.2114" y2="696.3954" gradientTransform="matrix(1 -2.430892e-03 -2.430892e-03 -1 -193.7644 736.1746)">
		<stop  offset="0" style="stop-color:#808080;stop-opacity:0.25"/>
		<stop  offset="0.5351" style="stop-color:#808080;stop-opacity:0.12"/>
		<stop  offset="1" style="stop-color:#808080;stop-opacity:0.1"/>
	</linearGradient>
	<path class="st1" d="M492.8,49.4l-332.5,0.8c-7.5,0-13.7,6.1-13.6,13.7l1.5,621.9c0,7.5,6.2,13.6,13.7,13.6l332.5-0.8
		c7.5,0,13.7-6.1,13.6-13.7c0,0,0,0,0,0l-1.5-621.9C506.4,55.5,500.3,49.4,492.8,49.4z"/>
</g>
<path class="st2" d="M165.1,58.7L488,57.9c7.5,0,13.7,6.1,13.7,13.6l1.5,604.7c0,7.5-6.1,13.7-13.6,13.7l-322.8,0.8
	c-7.5,0-13.7-6.1-13.7-13.6l-1.5-604.7C151.5,64.9,157.6,58.7,165.1,58.7z"/>
<path class="st3" d="M414.5,74c-2.1,13.9-13.9,24.1-27.9,24.2l-120.9,0.3c-14,0-25.9-10.2-28-24.1l-64.1,0.2
	c-7.3,0-13.3,6-13.3,13.3l1.4,573.7c0,7.3,6,13.3,13.3,13.3l306-0.7c7.3,0,13.3-6,13.3-13.3l-1.4-573.7c0-7.3-6-13.3-13.3-13.3
	c0,0,0,0,0,0L414.5,74z"/>
<g>
	<defs>
		<path id="SVGID_2_" d="M414.5,74c-2.1,13.9-13.9,24.1-27.9,24.2l-120.9,0.3c-14,0-25.9-10.2-28-24.1l-64.1,0.2
			c-7.3,0-13.3,6-13.3,13.3l1.4,573.7c0,7.3,6,13.3,13.3,13.3l306-0.7c7.3,0,13.3-6,13.3-13.3l-1.4-573.7c0-7.3-6-13.3-13.3-13.3
			c0,0,0,0,0,0L414.5,74z"/>
	</defs>
	<clipPath id="SVGID_3_">
		<use xlink:href="#SVGID_2_"  style="overflow:visible;"/>
	</clipPath>
	<g class="st4">
		<polyline class="st5" points="70,113 546.1,502.9 552.3,183.8 14.6,164.8 99.5,246.2 638.1,287.6 77.1,429 585.1,593.8
			583.2,656.3 59,625.2 74.9,782.7 305.1,762.2 428.5,0.3 		"/>
	</g>
</g>
<path class="st6" d="M286.4,82.3l74-1.1c1.1,0,2,0.9,2,2l0,0.9c0,1.1-0.9,2-2,2l-74,1.1c-1.1,0-2-0.9-2-2l0-0.9
	C284.4,83.2,285.3,82.3,286.4,82.3z"/>
<circle class="st6" cx="379" cy="82.9" r="2.9"/>
<rect x="487.9" y="229.5" transform="matrix(0.9992 -3.874900e-02 3.874900e-02 0.9992 -9.0735 19.5192)" class="st7" width="22.2" height="28.6"/>
<path class="st8" d="M409.3,329.2c0,0-30.8-14.7-30.3-2s31,21.1,31,21.1L409.3,329.2z"/>
<path class="st9" d="M426.2,436.7c0,0-14.5,35.5-19.9,61.2s-13.5,60.9-3,86s40.4,98.6,40.7,106.5s-2.6,16,3.8,15.8
	s40.9-11.1,42.3-16s-11.8-17-11.8-17L445.7,571l34-66.5l24.5,99.2l4.8,123.8c0,0,23.6-7.3,27-1c0,0,10.6-14.7,11.9-21.1
	s-5-128.6-5-128.6s21.6-139.2,4.2-138.5S461.2,397.1,426.2,436.7z"/>
<path class="st9" d="M447.5,699.8c0,0-16.1,35.6-17.6,37.3s-12,18-4.1,17.6s26.7-9,40.5-22.2s32-36.2,30.3-37.7s-12.9-5.9-12.9-5.9
	L447.5,699.8z"/>
<path class="st9" d="M511.9,719.5c0,0-1,15.9-3.9,22.4s-2.6,16,5.4,15.7s28.5-4.3,28.5-4.3s1.2-9.6-0.4-11.1s-8.7-18.7-5.7-23.6
	S511.9,719.5,511.9,719.5z"/>
<path class="st8" d="M523.6,202.3c0,0,16.9,26.4,23.5,32.5s-12,19.5-12,19.5l-33.2,4.5c0,0,0.4-30.2-1.3-33.3
	S523.6,202.3,523.6,202.3z"/>
<path class="st7" d="M494.8,236.8c0,0,6.8,12.5,13.2,12.2s39.2-14.2,40.6-19.1s10.9,34.6,10.9,34.6L479.1,406l-19.6-13.5l9.5-83
	l7.8-44.8L494.8,236.8z"/>
<path class="st10" d="M551.5,363.4c-3.2,6.7-5.2,13.7-4.9,20.9c0,0.3,0,0.6,0.1,1c0.8,14.7,6.2,31.7,8.1,44c1.4,8.9,1,15.3-4.2,16.9
	c-12.6,3.7,1.8,6.3-46.8,22.5c-48.7,16.2-57.2,2.2-57.3-1s6.9-27.3,5.2-28.8s-23.1,20-29.5,17s-0.7-19.1-0.7-19.1s14.6-34,14.3-41.9
	s22.1-45.4,22.1-45.4l15.2-99.2c0,0,5.9-12.9,13.7-14.8s14.4,2.6,14.4,2.6L488,267.3l-13.9,51.4l2.3,19c0,0,16.2-34,26.8-47.1
	s33.3-44.2,33.3-44.2s5.3-17.8,1.3-23.2c-4-5.3,16.6-6.1,25.4,15.8c4.7,11.6,12.2,28.9,17,45.1c4.2,14.3,6.2,27.6,2,35.3
	C575.8,331,559.7,346.3,551.5,363.4z"/>
<path class="st11" d="M582.2,319.3c-6.4,11.7-22.5,27-30.7,44.1c-2.1-7.7-4.8-15.7-4.8-15.7s-10-53.7,19.6-67.5
	c4.9-0.5,9.8,0.9,13.8,3.9C584.4,298.3,586.4,311.7,582.2,319.3z"/>
<path class="st10" d="M464.4,315.9l-25.2,7.3l-34.9,1.4l-3.6,30.3l57.4,4.1C458.2,359.1,472.5,318.8,464.4,315.9z"/>
<path class="st8" d="M505.5,418c0,0-33.7,5.6-26,15.7s37.5-0.5,37.5-0.5L505.5,418z"/>
<path class="st11" d="M546.6,385.2c0.8,14.7,6.2,31.7,8.1,44c-10.7,10.1-20.9,19.1-24.8,19.2c-7.9,0.3-20.7-0.8-25.4,1
	s-7.5-28.3-7.5-28.3s2.8-9.6,15.3-14.9C520.9,402.7,537.1,393.1,546.6,385.2z"/>
<path class="st10" d="M566,270.6c0,0,26.9-4.2,25.4,40.4s2.8,73-8,81.4s-45.9,46.3-53.8,46.6s-20.7-0.8-25.4,1s-7.5-28.3-7.5-28.3
	s2.8-9.6,15.3-14.9s42-23.9,41.8-30.2s-7.5-28.3-7.5-28.3S536.4,284.5,566,270.6z"/>
<circle class="st8" cx="499.9" cy="206.4" r="35"/>
<path class="st9" d="M476.4,156.3c-0.8,0.7-1.9,1.2-2.9,1.5c-1.1,0.2-2.2-0.5-2.4-1.7c-0.8,1.7-1.7,3.4-3.3,4.3
	c-1.6,0.9-4.2,0.1-4.4-1.7c-0.2,1.4-0.9,2.7-1.8,3.7c-1,1-2.8,1.2-3.7,0.1c0.7,3.9,0.3,7.9,0.5,11.9c0.2,4,1.3,8.2,4.3,10.8
	c4.4,3.8,10.9,2.9,16.7,2.1c0.9-0.2,1.8-0.1,2.6,0.1c2.2,0.9,2.1,3.9,2.1,6.3c0.4,8.5,6.8,15.5,15.2,16.5c2.3,0.4,4.6-0.2,6.5-1.6
	c1.6-1.4,2.5-3.6,4.3-4.7c3-1.7,6.7,0.8,9,3.5c2.2,2.7,4.4,6,7.9,6.5c4.6,0.6,8-4,9.7-8.3c4.7-12.1,4.4-25.6-1-37.5
	C526.1,147.5,493.6,144.2,476.4,156.3z"/>
<linearGradient id="SVGID_4_" gradientUnits="userSpaceOnUse" x1="579.3054" y1="457.135" x2="579.3054" y2="630.9534" gradientTransform="matrix(0.9905 0.1373 0.1373 -0.9905 -267.9301 726.9949)">
	<stop  offset="0" style="stop-color:#808080;stop-opacity:0.25"/>
	<stop  offset="0.5351" style="stop-color:#808080;stop-opacity:0.12"/>
	<stop  offset="1" style="stop-color:#808080;stop-opacity:0.1"/>
</linearGradient>
<path class="st12" d="M444.6,250.5c-4.6,33.5-73.5,103.5-73.5,103.5s-52.1-86.8-47.4-120.3c4.5-33.4,35.3-56.8,68.7-52.3
	c33.4,4.5,56.8,35.3,52.3,68.7C444.6,250.4,444.6,250.5,444.6,250.5z"/>
<path class="st7" d="M440.6,251.6c-4.4,31.4-69,97.1-69,97.1s-48.8-81.4-44.5-112.8c4.3-31.3,33.1-53.3,64.5-49s53.3,33.1,49,64.5
	C440.6,251.4,440.6,251.5,440.6,251.6L440.6,251.6z"/>
<ellipse transform="matrix(0.1373 -0.9905 0.9905 0.1373 94.8008 587.2376)" class="st2" cx="384.5" cy="239.2" rx="28.7" ry="28.6"/>
</svg>
