<?xml version="1.0" encoding="utf-8"?>
<!-- Generator: Adobe Illustrator 24.0.1, SVG Export Plug-In . SVG Version: 6.00 Build 0)  -->
<svg version="1.1" id="Layer_1" xmlns="http://www.w3.org/2000/svg" xmlns:xlink="http://www.w3.org/1999/xlink" x="0px" y="0px"
	 viewBox="0 0 595.28 141.73" style="enable-background:new 0 0 595.28 141.73;" xml:space="preserve">
<style type="text/css">
	.st0{fill:#5B488F;}
	.st1{fill:none;stroke:#000000;stroke-miterlimit:10;}
	.st2{fill:#1A95C5;}
	.st3{fill:url(#SVGID_1_);}
</style>
<g>
	<g>
		<rect x="264.47" y="70.33" class="st0" width="50.53" height="11.49"/>
		
			<rect x="409.08" y="50.37" transform="matrix(1.471509e-03 -1 1 1.471509e-03 338.5859 490.3495)" class="st0" width="11.49" height="50.53"/>
	</g>
	<path class="st1" d="M347.71,82.42"/>
	<path class="st1" d="M352.38,70.93"/>
	<path class="st1" d="M368.95,70.93"/>
	<g>
		<rect x="264.47" y="51.67" class="st2" width="50.53" height="11.49"/>
		
			<rect x="409.06" y="68.9" transform="matrix(1.469958e-03 -1 1 1.469958e-03 320.0258 508.8266)" class="st2" width="11.49" height="50.53"/>
		<polygon class="st2" points="480.7,51.67 469.21,51.67 446.23,51.67 446.23,63.16 469.21,63.16 469.21,99.89 480.7,99.89 
			480.7,63.16 503.68,63.16 503.68,51.67 		"/>
		<path class="st2" d="M368.9,70.13h-5.48h-2.95h-3.63c0-0.01,0-0.01,0-0.02h-19.13c-1.92,0-3.48-1.56-3.48-3.48
			s1.56-3.48,3.48-3.48h1.33h17.84h82.85V51.67h-95.67h-5.02h-3.4c-7.12,0-12.89,5.77-12.89,12.89v3.97
			c0,7.12,5.77,12.89,12.89,12.89h5.07v0.02h6.99h15.74h3.4c1.92,0,3.48,1.56,3.48,3.48s-1.56,3.48-3.48,3.48h-1.33h-17.84h-82.85
			v11.49h95.67h5.02h3.4c7.12,0,12.89-5.77,12.89-12.89v-3.97C381.79,75.91,376.02,70.13,368.9,70.13z"/>
		<path class="st2" d="M244.15,51.67h-6.77h-1.66h-30h-11.49v11.49v36.73h11.49V63.16h17.19h14.47h4.69c1.92,0,3.48,1.56,3.48,3.48
			s-1.56,3.48-3.48,3.48h-15.09h-4.04h-12.3l25.52,29.77h16.34l-15.83-18.47h7.48c7.12,0,12.89-5.77,12.89-12.89v-3.97
			C257.04,57.44,251.27,51.67,244.15,51.67z"/>
	</g>
	<linearGradient id="SVGID_1_" gradientUnits="userSpaceOnUse" x1="82.1758" y1="35.1416" x2="149.604" y2="121.4416">
		<stop  offset="0" style="stop-color:#EDD828"/>
		<stop  offset="0.1896" style="stop-color:#CB6808"/>
		<stop  offset="0.373" style="stop-color:#BF0027"/>
		<stop  offset="0.5994" style="stop-color:#9E006B"/>
		<stop  offset="0.8249" style="stop-color:#49197B"/>
		<stop  offset="1" style="stop-color:#3268A5"/>
	</linearGradient>
	<path class="st3" d="M110.4,119.09v-26.8l11.76-5.31l-11.76-9.39V62.22l25.67,17.75l-12.83,6.67l32.62,23.41l-20.92,10.29
		l-16.06-11.76c0,0,28.16-13.57,35.62-17.3s10.63-12.44,0-21.26s-37.32-29.74-44.67-35.17c-7.35-5.43-18.09-1.81-18.09,7.58
		s0,63.66,0,63.66L110.4,119.09z"/>
</g>
</svg>
