<?xml version="1.0" encoding="utf-8"?>
<!-- Generator: Adobe Illustrator 24.0.1, SVG Export Plug-In . SVG Version: 6.00 Build 0)  -->
<svg version="1.1" id="Layer_1" xmlns="http://www.w3.org/2000/svg" xmlns:xlink="http://www.w3.org/1999/xlink" x="0px" y="0px"
	 viewBox="0 0 595.3 141.7" style="enable-background:new 0 0 595.3 141.7;" xml:space="preserve">
<style type="text/css">
	.st0{fill:#FFFFFF;}
	.st1{fill:#FFFFFF;stroke:#000000;stroke-miterlimit:10;}
</style>
<g>
	<g>
		<rect x="264.5" y="70.3" class="st0" width="50.5" height="11.5"/>
		
			<rect x="409.1" y="50.4" transform="matrix(1.471507e-03 -1 1 1.471507e-03 338.5852 490.3554)" class="st0" width="11.5" height="50.5"/>
	</g>
	<path class="st1" d="M347.7,82.4"/>
	<path class="st1" d="M352.4,70.9"/>
	<path class="st1" d="M369,70.9"/>
	<g>
		<rect x="264.5" y="51.7" class="st0" width="50.5" height="11.5"/>
		
			<rect x="409.1" y="68.9" transform="matrix(1.469956e-03 -1 1 1.469956e-03 320.0309 508.8217)" class="st0" width="11.5" height="50.5"/>
		<polygon class="st0" points="480.7,51.7 469.2,51.7 446.2,51.7 446.2,63.2 469.2,63.2 469.2,99.9 480.7,99.9 480.7,63.2 
			503.7,63.2 503.7,51.7 		"/>
		<path class="st0" d="M368.9,70.1h-5.5h-3h-3.6c0,0,0,0,0,0h-19.1c-1.9,0-3.5-1.6-3.5-3.5s1.6-3.5,3.5-3.5h1.3h17.8h82.9V51.7
			h-95.7h-5h-3.4c-7.1,0-12.9,5.8-12.9,12.9v4c0,7.1,5.8,12.9,12.9,12.9h5.1v0h7h15.7h3.4c1.9,0,3.5,1.6,3.5,3.5s-1.6,3.5-3.5,3.5
			h-1.3h-17.8h-82.9v11.5h95.7h5h3.4c7.1,0,12.9-5.8,12.9-12.9v-4C381.8,75.9,376,70.1,368.9,70.1z"/>
		<path class="st0" d="M244.1,51.7h-6.8h-1.7h-30h-11.5v11.5v36.7h11.5V63.2h17.2h14.5h4.7c1.9,0,3.5,1.6,3.5,3.5s-1.6,3.5-3.5,3.5
			H227h-4h-12.3l25.5,29.8h16.3l-15.8-18.5h7.5c7.1,0,12.9-5.8,12.9-12.9v-4C257,57.4,251.3,51.7,244.1,51.7z"/>
	</g>
	<path class="st0" d="M110.4,119.1V92.3l11.8-5.3l-11.8-9.4V62.2L136.1,80l-12.8,6.7l32.6,23.4l-20.9,10.3l-16.1-11.8
		c0,0,28.2-13.6,35.6-17.3s10.6-12.4,0-21.3s-37.3-29.7-44.7-35.2S91.7,33,91.7,42.4s0,63.7,0,63.7L110.4,119.1z"/>
</g>
</svg>
