<?xml version="1.0" encoding="utf-8"?>
<!-- Generator: Adobe Illustrator 24.0.1, SVG Export Plug-In . SVG Version: 6.00 Build 0)  -->
<svg version="1.1" id="OBJECTS" xmlns="http://www.w3.org/2000/svg" xmlns:xlink="http://www.w3.org/1999/xlink" x="0px" y="0px"
	 viewBox="0 0 750 500" style="enable-background:new 0 0 750 500;" xml:space="preserve">
<style type="text/css">
	.st0{fill:#A0BBD8;}
	.st1{fill:#DCEAFF;}
	.st2{fill:#FFFFFF;}
	.st3{fill:#CDDBF3;}
	.st4{fill:#C8621E;}
	.st5{fill:#853500;}
	.st6{fill:#E7772A;}
	.st7{fill:#44270E;}
	.st8{fill:url(#SVGID_1_);}
	.st9{fill:url(#SVGID_2_);}
	.st10{fill:url(#SVGID_3_);}
	.st11{fill:#F2D024;}
	.st12{fill:#1A1A1A;}
	.st13{fill:#471007;}
	.st14{fill:#474343;}
	.st15{font-family:'Montserrat-Black';}
	.st16{font-size:18.2676px;}
	.st17{font-size:33.5496px;}
	.st18{fill:none;stroke:#FFFFFF;stroke-width:2;stroke-miterlimit:10;}
	.st19{fill:none;stroke:#FFFFFF;stroke-width:2;stroke-linecap:round;stroke-linejoin:round;stroke-miterlimit:10;}
</style>
<g>
	<g>
		<g>
			<rect x="384.9" y="54.5" class="st0" width="126.7" height="332.7"/>
			<rect x="384.9" y="54" class="st1" width="126.7" height="23.2"/>
			<circle class="st0" cx="397.7" cy="65.3" r="5.1"/>
			<path class="st2" d="M416.9,65.3c0,2.8-2.3,5.1-5.1,5.1c-2.8,0-5.1-2.3-5.1-5.1c0-2.8,2.3-5.1,5.1-5.1
				C414.7,60.2,416.9,62.5,416.9,65.3z"/>
		</g>
		<g>
			<path class="st2" d="M401.1,271.5h90.1c5.2,0,9.3,4.2,9.3,9.3v66.5c0,5.2-4.2,9.3-9.3,9.3h-90.1c-5.2,0-9.3-4.2-9.3-9.3v-66.5
				C391.7,275.6,395.9,271.5,401.1,271.5z"/>
			<g>
				<path class="st3" d="M468.8,299c-1.1,0.4-2.1,1-2.9,1.7c-0.3,0.3-0.6,0.7-1,1c-1.3,1.2-2.9,2-4.5,2.7c-1.3,0.6-2.7,1.1-4,1.6
					c-1.8,0.7-3.5,1.7-4.9,3.1c-1.6,1.5-2.8,3.3-3.5,5.4c-1.3,3.7-1.1,7.3,0.5,10.8c1.2,2.6,3.1,4.6,5.5,6.1
					c2.6,1.6,5.4,2.2,8.4,1.9c4-0.4,7.3-2.1,9.9-5.3c1.7-2.1,2.8-4.6,3-7.4c0.2-2.2,0.6-4.4,1.5-6.5c0.3-0.7,0.8-1.4,1.3-2.1
					c0.4-0.7,0.9-1.4,1.4-2.3c1,1,2.1,1.9,3.1,3c0.6,0.6,1.2,1.2,1.5,2c0.6,1.5,1.2,3,0.6,4.6c-0.4,1-1,1.8-1.8,2.4
					c-1.2,1.1-2.1,2.4-2.9,3.9c-0.7,1.4-1.4,2.9-2,4.4c-1.4,3.1-3.7,5.4-6.8,7c-2.8,1.4-5.8,2.1-8.8,2.4c-4.1,0.4-8.3,0.5-12.4,0.3
					c-3.5-0.2-6.9-0.4-10.4-0.7c-4.7-0.4-9.3-0.9-13.9-1.4c-4.1-0.4-8.1-1.1-11.9-2.7c-2.8-1.1-5.3-2.7-7.2-5.2
					c-1.3-1.7-2-3.6-2.4-5.7c-0.2-1.5-0.3-3,0-4.5c0.3-1.7,1.1-3.3,2.1-4.7c1.6-2.3,3.6-4.1,5.7-5.9c2.2-1.7,4.4-3.3,6.8-4.7
					c3.8-2.2,7.7-4.2,11.8-5.7c3.3-1.2,6.6-2.3,10-3.2c4.3-1.1,8.7-1.5,13.2-1.3c2.5,0.1,5,0.4,7.5,1.1c2.6,0.8,5,1.9,7.2,3.4
					C468.7,298.9,468.8,299,468.8,299z M420.7,320.5c0.2-0.1,0.2-0.2,0.3-0.3c0.9-0.6,1.8-1.2,2.8-1.6c1.7-0.7,2.8-1.9,3.5-3.6
					c0.6-1.4,0.9-2.9,0.9-4.5c0-1.6,0-3.2-0.1-4.9c0-0.6-0.7-0.9-1.2-0.6c-0.2,0.1-0.3,0.3-0.5,0.4c-0.7,0.9-1.4,1.7-2,2.6
					c-1.1,1.5-2.2,3-3.4,4.4c-2,2.6-4,5.2-6,7.9c-0.7,0.9-0.8,1.9-0.3,2.9c0.5,1,1.1,1.9,1.8,2.8c1.7,2.2,3.8,3.8,6.2,5.1
					c2.6,1.5,5.3,2.4,8.2,3.1c0.9,0.2,1.9,0.2,2.9,0c2.5-0.6,4.2-2.7,4.5-5.3c0.2-2.6-1.3-5.2-3.7-6.1c-2.1-0.8-4.4-1.4-6.6-1.8
					c-2.3-0.4-4.5-0.7-6.8-0.5C421,320.6,420.9,320.5,420.7,320.5z"/>
				<path class="st3" d="M448.4,319.5c0.1-3.6,1.2-6.7,3.7-9.2c1.5-1.6,3.4-2.7,5.5-3.4c2.6-0.9,5-2,7.2-3.6c0.5-0.4,1-0.8,1.4-1.2
					c2.6-2.9,7.1-3.2,10.1-0.7c3,2.6,3.4,6.9,0.9,10.1c-1.1,1.4-1.7,3.1-2.2,4.8c-0.4,1.4-0.6,2.9-0.7,4.4c-0.1,1.6-0.6,3.2-1.4,4.6
					c-1.1,2.1-2.7,3.8-4.8,5.1c-2.3,1.4-4.8,2-7.4,1.8c-2.7-0.2-5.1-1-7.2-2.7C450.2,327,448.5,323.6,448.4,319.5z"/>
				<path class="st3" d="M478.4,302.1c-0.8-1-1.7-1.9-2.9-2.5c0.3-0.3,0.5-0.6,0.8-0.9c1.2-1.5,2.4-3,3.7-4.4
					c0.6-0.8,0.7-1.6,0.2-2.4c-0.5-0.9-0.5-1.8,0.1-2.6c0.5-0.7,1.3-1.1,2.2-1c1,0.1,1.7,0.6,2,1.5c0.3,0.8,0.9,1.2,1.7,1.4
					c1.3,0.3,2.2,1.6,1.9,2.9c-0.3,1.3-1.6,2.2-3,1.8c-0.9-0.2-1.5,0.1-2.1,0.7c-1.2,1.4-2.3,2.8-3.4,4.1
					C479.2,301.1,478.8,301.5,478.4,302.1z"/>
				<path class="st3" d="M427.1,306.6c0,1.1,0,2.1,0,3.1c-0.1,1.7-0.3,3.3-0.9,4.9c-0.6,1.5-1.6,2.4-3.1,3c-1,0.5-1.9,1.1-2.9,1.7
					c-0.7,0.4-0.9,1.1-0.7,1.6c0.2,0.5,0.9,0.9,1.6,0.8c4.1-0.2,8,0.6,11.8,1.9c0.7,0.2,1.3,0.5,1.9,0.8c2.1,1.3,2.8,3.8,1.8,6
					c-1,2.2-3.4,3.3-5.7,2.6c-2.3-0.6-4.5-1.3-6.6-2.4c-1.7-0.9-3.3-1.9-4.8-3.1c-1.3-1.1-2.4-2.4-3.2-3.8c-0.2-0.4-0.4-0.7-0.6-1.1
					c-0.2-0.5-0.2-1.1,0.2-1.6c0.9-1.2,1.8-2.4,2.7-3.5c1.2-1.6,2.5-3.3,3.7-4.9c1.5-2,3-4,4.5-5.9
					C426.9,306.7,427,306.7,427.1,306.6z"/>
			</g>
		</g>
		<g>
			<g>
				<rect x="461.6" y="98.2" class="st2" width="41.1" height="36.3"/>
				<circle class="st0" cx="483.5" cy="115.5" r="15"/>
				<polygon class="st2" points="479.4,106.1 479.4,124.3 492.1,114.9 				"/>
			</g>
			<g>
				<rect x="461.6" y="154.9" class="st2" width="41.1" height="36.3"/>
				<circle class="st0" cx="483.5" cy="172.2" r="15"/>
				<polygon class="st2" points="479.4,162.8 479.4,181 492.1,171.6 				"/>
			</g>
			<g>
				<rect x="461.6" y="210.2" class="st2" width="41.1" height="36.3"/>
				<circle class="st0" cx="483.5" cy="227.5" r="15"/>
				<polygon class="st2" points="479.4,218.1 479.4,236.3 492.1,226.9 				"/>
			</g>
			<path class="st2" d="M465.9,137.9h33.5c0.7,0,1.2,0.5,1.2,1.2l0,0c0,0.7-0.5,1.2-1.2,1.2h-33.5c-0.7,0-1.2-0.5-1.2-1.2l0,0
				C464.7,138.4,465.2,137.9,465.9,137.9z"/>
			<path class="st2" d="M465.9,194.6h33.5c0.7,0,1.2,0.5,1.2,1.2l0,0c0,0.7-0.5,1.2-1.2,1.2h-33.5c-0.7,0-1.2-0.5-1.2-1.2l0,0
				C464.7,195.1,465.2,194.6,465.9,194.6z"/>
			<path class="st2" d="M465.9,251.3h33.5c0.7,0,1.2,0.5,1.2,1.2l0,0c0,0.7-0.5,1.2-1.2,1.2h-33.5c-0.7,0-1.2-0.5-1.2-1.2l0,0
				C464.7,251.8,465.2,251.3,465.9,251.3z"/>
		</g>
		<g>
			<g>
				<rect x="396.1" y="102.2" class="st3" width="53.7" height="17.2"/>
				<rect x="396.1" y="122.3" class="st3" width="53.6" height="2.9"/>
			</g>
			<g>
				<rect x="396.1" y="158.9" class="st3" width="53.7" height="17.2"/>
				<rect x="396.1" y="179" class="st3" width="53.6" height="2.9"/>
			</g>
			<g>
				<rect x="396.1" y="215.6" class="st3" width="53.7" height="17.2"/>
				<rect x="396.1" y="235.7" class="st3" width="53.6" height="2.9"/>
			</g>
		</g>
	</g>
	<rect x="38.1" y="86.4" class="st0" width="252.1" height="213.7"/>
	<g>
		<g>
			<path class="st4" d="M389.9,219.8c0,0,11.5-8.5,13.8,6.2c2.3,14.7-17,14.2-17,14.2L389.9,219.8z"/>
			<path class="st5" d="M391.5,225.6L391.5,225.6C391.5,225.5,391.5,225.5,391.5,225.6c0-0.1,0-0.1,0.1-0.1c0.2-0.3,0.2-0.9,0.2-1.2
				c0.1-0.3,0.2-0.7,0.3-1c0.2-0.6,0.5-1.3,1-1.8c0.8-1,2.1-1.6,3.4-1.4c1.5,0.1,2.8,1,3.7,2.1c1,1.2,1.9,2.9,2.1,4.4
				c0,0.2-0.3,0.4-0.4,0.2c-0.7-1.1-1.1-2.4-1.8-3.5c-0.8-1.1-1.8-2-3.2-2.3c-1.3-0.3-2.6,0.2-3.4,1.2c-0.4,0.5-0.6,1-0.8,1.6
				c-0.1,0.2-0.2,0.5-0.3,0.9c1-0.6,2.5-0.3,3.1,0.9c0.8,1.5-0.1,2.9-1.2,4c0.6,0.3,1,0.9,1,1.7c0,2.2-2.5,3.2-3.5,4.9
				c-0.2,0.3-0.6,0.1-0.6-0.2c0.2-1.2,1.2-1.9,2.1-2.7c0.6-0.5,1.2-1.1,1.2-1.8c0-0.6-0.5-1.3-1.1-1.1c-0.1,0.1-0.3,0.2-0.4,0.3
				c-0.4,0.3-1-0.2-0.7-0.7c0,0,0.1-0.1,0.1-0.1c0,0,0,0,0,0c0,0,0,0,0.1-0.1c0.1-0.1,0.2-0.2,0.3-0.3c0.8-0.7,1.9-1.7,1.9-2.7
				c0-0.5-0.5-1-1-1.1c-0.6-0.1-1,0.2-1.4,0.6C392,226.6,391.3,226.1,391.5,225.6z"/>
		</g>
		<g>
			<path class="st4" d="M298.9,219.8c0,0-11.5-8.5-13.8,6.2c-2.3,14.7,17,14.2,17,14.2L298.9,219.8z"/>
			<path class="st5" d="M297.3,225.6C297.3,225.6,297.3,225.6,297.3,225.6C297.3,225.5,297.3,225.5,297.3,225.6c0-0.1,0-0.1-0.1-0.1
				c-0.2-0.3-0.2-0.9-0.2-1.2c-0.1-0.3-0.2-0.7-0.3-1c-0.2-0.6-0.5-1.3-1-1.8c-0.8-1-2.1-1.6-3.4-1.4c-1.5,0.1-2.8,1-3.7,2.1
				c-1,1.2-1.9,2.9-2.1,4.4c0,0.2,0.3,0.4,0.4,0.2c0.7-1.1,1.1-2.4,1.8-3.5c0.8-1.1,1.8-2,3.2-2.3c1.3-0.3,2.6,0.2,3.4,1.2
				c0.4,0.5,0.6,1,0.8,1.6c0.1,0.2,0.2,0.5,0.3,0.9c-1-0.6-2.5-0.3-3.1,0.9c-0.8,1.5,0.1,2.9,1.2,4c-0.6,0.3-1,0.9-1,1.7
				c0,2.2,2.5,3.2,3.5,4.9c0.2,0.3,0.6,0.1,0.6-0.2c-0.2-1.2-1.2-1.9-2.1-2.7c-0.6-0.5-1.2-1.1-1.2-1.8c0-0.6,0.5-1.3,1.1-1.1
				c0.1,0.1,0.3,0.2,0.4,0.3c0.4,0.3,1-0.2,0.7-0.7c0,0-0.1-0.1-0.1-0.1c0,0,0,0,0,0c0,0,0,0-0.1-0.1c-0.1-0.1-0.2-0.2-0.3-0.3
				c-0.8-0.7-1.9-1.7-1.9-2.7c0-0.5,0.5-1,1-1.1c0.6-0.1,1,0.2,1.4,0.6C296.8,226.6,297.5,226.1,297.3,225.6z"/>
		</g>
		<path class="st4" d="M350.2,327.4h-12.9c-5.6,0-10.2-4.6-10.2-10.2V273c0-5.6,4.6-10.2,10.2-10.2h12.9c5.6,0,10.2,4.6,10.2,10.2
			v44.2C360.4,322.8,355.8,327.4,350.2,327.4z"/>
		<path class="st6" d="M391.6,205.8c0-26.2-21.2-47.5-47.5-47.5c-26.2,0-47.5,21.2-47.5,47.5c0,2.7,0.2,5.3,0.7,7.8
			c0.8,8.7,3.6,38,5.5,43.1c1.5,4.1,19.8,15.3,31.7,22.3c6.2,3.6,13.9,3.6,20.1-0.1c11.7-7,29.6-18.1,31-22.2
			c2.2-6.1,5.7-45.5,5.7-45.5l-0.2-0.1C391.5,209.3,391.6,207.6,391.6,205.8z"/>
		<path class="st7" d="M403.8,194.3c0-3.2-2.4-5.9-5.5-6.4c1.4-1.2,2.3-2.9,2.3-4.9c0-3.4-2.7-6.2-6-6.5c0.8-1.1,1.2-2.4,1.2-3.8
			c0-3.6-2.9-6.5-6.5-6.5c-0.7,0-1.3,0.1-1.9,0.3c0.6-2.2,0-4.6-1.7-6.3c-1.8-1.8-4.3-2.3-6.5-1.6c0.1-1.8-0.5-3.6-1.9-5
			c-2.2-2.2-5.6-2.5-8.2-0.8c-0.1-1.4-0.8-2.9-1.9-4c-2.5-2.5-6.6-2.5-9.2,0c-0.3,0.3-0.5,0.6-0.7,0.9c-0.1-1.5-0.7-3-1.9-4.2
			c-2.5-2.5-6.6-2.5-9.2,0c-0.1,0.1-0.2,0.2-0.3,0.3c-0.3-0.8-0.8-1.5-1.4-2.1c-2.5-2.5-6.6-2.5-9.2,0c-0.7,0.7-1.2,1.6-1.5,2.5
			c-2.5-2.5-6.6-2.4-9.1,0.1c-0.7,0.7-1.1,1.4-1.4,2.2c-2.5-2.2-6.4-2.1-8.8,0.3c-1.8,1.8-2.3,4.4-1.5,6.7c-2.4-1.2-5.4-0.8-7.4,1.2
			c-1.8,1.8-2.3,4.3-1.6,6.6c-0.2,0-0.3,0-0.5,0c-3.6,0-6.5,2.9-6.5,6.5c0,1,0.2,1.9,0.6,2.7c0,0-0.1,0-0.1,0
			c-3.6,0-6.5,2.9-6.5,6.5c0,1.5,0.5,2.9,1.4,4c-0.1,0-0.2,0-0.4,0c-3.6,0-6.5,2.9-6.5,6.5c0,2.8,1.7,5.1,4.2,6
			c-1.6,1.2-2.7,3.1-2.7,5.3c0,2.9,2,5.4,4.6,6.2c-0.9,1.1-1.4,2.5-1.4,4c0,3.6,2.9,6.5,6.5,6.5c3.4,0,6.1-2.6,6.5-5.9
			c1.2,1.5,3,2.5,5.1,2.5c3.6,0,6.5-2.9,6.5-6.5c0-0.5-0.1-1-0.2-1.5c1.1,0.7,2.3,1.2,3.7,1.2c3.6,0,6.5-2.9,6.5-6.5
			c0-0.2,0-0.4,0-0.6c0.9,2.5,3.3,4.3,6.1,4.3c3.6,0,6.5-2.9,6.5-6.5c0-0.1,0-0.3,0-0.4c1.2,1.5,3,2.5,5.1,2.5
			c3.1,0,5.8-2.2,6.4-5.2c1,0.6,2.2,1,3.5,1c1.5,0,2.8-0.5,3.9-1.3c0,3.1,2.2,5.6,5,6.3c0,3.6,2.9,6.4,6.5,6.4c0.3,0,0.6,0,0.8-0.1
			c0.4,3.2,3.1,5.7,6.4,5.7c0.9,0,1.7-0.2,2.5-0.5c1.1,1.9,3.2,3.1,5.5,3.1c0,0,0,0,0,0c0.8,2.6,3.3,4.6,6.2,4.6
			c3.6,0,6.5-2.9,6.5-6.5c0-1-0.2-2-0.6-2.8c3.1-0.5,5.5-3.2,5.5-6.4c0-1.5-0.5-2.9-1.4-4C401.8,199.7,403.8,197.2,403.8,194.3z"/>
		<g>
			<linearGradient id="SVGID_1_" gradientUnits="userSpaceOnUse" x1="344.8063" y1="221.2249" x2="344.3286" y2="262.3118">
				<stop  offset="7.000000e-08" style="stop-color:#E7772A"/>
				<stop  offset="1" style="stop-color:#E63530"/>
			</linearGradient>
			<path class="st8" d="M344.1,220.2l-6.8,32.8c0,0,9.1,5.9,14.2-0.5l-5.7-32.2C345.7,219.3,344.3,219.3,344.1,220.2z"/>
			<g>
				<path d="M333.5,228.1c-0.1-0.1-0.1-0.2-0.2-0.3c-0.4-0.4-1.1-0.6-1.6-0.2c-1,0.7-1.9,1.5-2.9,2.1c-1,0.6-2.1,1.1-3.2,1.5
					c-2.2,0.8-4.6,1.2-7,1.1c-2.5-0.1-4.9-0.6-7.3-1.5c-2.4-0.9-4.7-1.7-6.8-3.2c0,0,0,0,0,0c1.8,1.9,3.8,3.9,6.2,5
					c2.5,1.2,5.1,1.9,7.8,2.1c2.6,0.2,5.2-0.1,7.7-1c2.4-0.8,5.3-2.1,6.9-4.1C333.6,229.3,333.9,228.6,333.5,228.1z"/>
				<path d="M313.6,232.8c0,0-4.3-1.6-5.2-5.4c2.3,2.8,5.7,4.5,8.8,5.4C315,233.4,313.6,232.8,313.6,232.8z"/>
				<path d="M310.7,228c0,0,0.8,3.8,5.6,4.8l2.3,0.3C318.6,233.1,313.4,231.4,310.7,228z"/>
			</g>
			<g>
				<path d="M355.7,228.1c0.1-0.1,0.1-0.2,0.2-0.3c0.4-0.4,1.1-0.6,1.6-0.2c1,0.7,1.9,1.5,2.9,2.1c1,0.6,2.1,1.1,3.2,1.5
					c2.2,0.8,4.6,1.2,7,1.1c2.5-0.1,4.9-0.6,7.3-1.5c2.4-0.9,4.7-1.7,6.8-3.2c0,0,0,0,0,0c-1.8,1.9-3.8,3.9-6.2,5
					c-2.5,1.2-5.1,1.9-7.8,2.1c-2.6,0.2-5.2-0.1-7.7-1c-2.4-0.8-5.3-2.1-6.9-4.1C355.6,229.3,355.3,228.6,355.7,228.1z"/>
			</g>
			<linearGradient id="SVGID_2_" gradientUnits="userSpaceOnUse" x1="303.2856" y1="249.5642" x2="327.5285" y2="249.5642">
				<stop  offset="7.000000e-08" style="stop-color:#E7772A"/>
				<stop  offset="1" style="stop-color:#E63530"/>
			</linearGradient>
			<path class="st9" d="M327.5,249.6c0,6.7-5.4,12.1-12.1,12.1c-6.7,0-12.1-5.4-12.1-12.1c0-6.7,5.4-12.1,12.1-12.1
				C322.1,237.4,327.5,242.9,327.5,249.6z"/>
			<linearGradient id="SVGID_3_" gradientUnits="userSpaceOnUse" x1="358.7567" y1="249.5642" x2="382.9996" y2="249.5642">
				<stop  offset="7.000000e-08" style="stop-color:#E7772A"/>
				<stop  offset="1" style="stop-color:#E63530"/>
			</linearGradient>
			<circle class="st10" cx="370.9" cy="249.6" r="12.1"/>
			<path class="st2" d="M354.4,260.9c0,0-10.4,9.5-20.9,0"/>
			<path d="M326.1,218.7c-0.8-0.9-1.8-1.7-2.8-2.4c-2.1-1.4-4.6-2.2-7.1-2.4c-4.7-0.3-10.5,2-12.7,6.5c-0.2,0.5,0.3,0.9,0.7,0.5
				c1.8-1.5,3.6-2.8,5.7-3.7c2.2-0.9,4.4-1.2,6.7-1.1c2.3,0.1,4.5,0.9,6.5,2c1,0.6,2,1.2,2.9,2c0.1,0.1,1,1.1,1.2,0.7
				C327.6,220,326.5,219.1,326.1,218.7z"/>
			<path d="M360.3,218.7c0.8-0.9,1.8-1.7,2.8-2.4c2.1-1.4,4.6-2.2,7.1-2.4c4.7-0.3,10.5,2,12.7,6.5c0.2,0.5-0.3,0.9-0.7,0.5
				c-1.8-1.5-3.6-2.8-5.7-3.7c-2.2-0.9-4.4-1.2-6.7-1.1c-2.3,0.1-4.5,0.9-6.5,2c-1,0.6-2,1.2-2.9,2c-0.1,0.1-1,1.1-1.2,0.7
				C358.7,220,359.9,219.1,360.3,218.7z"/>
			<g>
				<path d="M355.7,228.2c0.1-0.1,0.1-0.2,0.2-0.3c0.4-0.4,1.1-0.6,1.6-0.2c1,0.7,1.9,1.5,2.9,2.1c1,0.6,2.1,1.1,3.2,1.5
					c2.2,0.8,4.6,1.2,7,1.1c2.5-0.1,4.9-0.6,7.3-1.5c2.4-0.9,4.7-1.7,6.8-3.2c0,0,0,0,0,0c-1.8,1.9-3.8,3.9-6.2,5
					c-2.5,1.2-5.1,1.9-7.8,2.1c-2.6,0.2-5.2-0.1-7.7-1c-2.4-0.8-5.3-2.1-6.9-4.1C355.6,229.4,355.3,228.7,355.7,228.2z"/>
				<path d="M375.6,232.9c0,0,4.3-1.6,5.2-5.4c-2.3,2.8-5.7,4.5-8.8,5.4C374.2,233.5,375.6,232.9,375.6,232.9z"/>
				<path d="M378.5,228.1c0,0-0.8,3.8-5.6,4.8l-2.3,0.3C370.6,233.2,375.8,231.5,378.5,228.1z"/>
			</g>
		</g>
	</g>
	<path class="st11" d="M397.2,286.3c-12.7-0.3-25.8,0.1-36.5,0.6l-0.6,0.2c0,0-15.8,15.4-33.7,0c0,0-0.1-0.1-0.1-0.1
		c-11-0.6-25.1-1-38.7-0.7c-28.4,0.7-71.8,85.5-71.8,85.5l47.2,28.7l15.6,42.9h127.7l15.6-42.9l47.2-28.7
		C469,371.8,425.6,287,397.2,286.3z"/>
	<g>
		<g>
			<rect x="48.6" y="442.5" class="st12" width="663.3" height="3.5"/>
		</g>
	</g>
	<g>
		<g>
			<path class="st6" d="M221.9,376.5c0,0-23.2,51.8-11.1,56.7c12.1,4.8,58.1,7.3,58.1,7.3l-3.4-47.5L221.9,376.5z"/>
		</g>
		<g>
			<path class="st13" d="M263,401.8h-33.8c-0.7,0-1.3-0.6-1.3-1.3c0-0.7,0.6-1.3,1.3-1.3H263c0.7,0,1.3,0.6,1.3,1.3
				C264.3,401.2,263.7,401.8,263,401.8z"/>
		</g>
	</g>
	<g>
		<g>
			<path class="st6" d="M460.2,376.5c0,0,23.2,51.8,11.1,56.7c-12.1,4.8-58.1,7.3-58.1,7.3l3.4-47.5L460.2,376.5z"/>
		</g>
		<g>
			<path class="st13" d="M449.6,401.8h-33.8c-0.7,0-1.3-0.6-1.3-1.3c0-0.7,0.6-1.3,1.3-1.3h33.8c0.7,0,1.3,0.6,1.3,1.3
				C450.9,401.2,450.3,401.8,449.6,401.8z"/>
		</g>
	</g>
	<g>
		<g>
			<path class="st14" d="M268,336.8h140.6c4.5,0,8.2,3.7,8.2,8.2v90.2c0,4.5-3.7,8.2-8.2,8.2H268c-4.5,0-8.2-3.7-8.2-8.2V345
				C259.8,340.5,263.5,336.8,268,336.8z"/>
		</g>
		<g>
			<path class="st14" d="M269,443.4h11.6c1.7-1.4,121-106.1,121.3-106.6h-45.5c-5.7,6.4-89.4,88.6-96.5,95.8v1.6
				C259.8,439.3,263.9,443.4,269,443.4z"/>
		</g>
		<g>
			<path class="st14" d="M416.8,357.5v-11.6c0-0.5,0-0.9-0.1-1.4c0.1,0.6-108.2,99.3-108.3,98.9h13.8
				C336.6,430,399.1,372.1,416.8,357.5z"/>
		</g>
		<circle class="st2" cx="342.5" cy="393.1" r="11.7"/>
	</g>
	<g>
		<g>
			<path class="st1" d="M63.8,128.5h142.8c6.6,0,12,5.4,12,12v82.4c0,6.6-5.4,12-12,12H63.8c-6.6,0-12-5.4-12-12v-82.4
				C51.8,133.9,57.2,128.5,63.8,128.5z"/>
			<g>
				<g>
					<text transform="matrix(1 0 0 1 80.901 171.736)" class="st2 st15 st16">Courso online</text>
				</g>
				<g>
					<text transform="matrix(1 0 0 1 96.8912 200.86)" class="st2 st15 st17">Cheff</text>
				</g>
			</g>
		</g>
		<g>
			<path class="st3" d="M58.3,243.9h123.4c1.3,0,2.3,1,2.3,2.3l0,0c0,1.3-1,2.3-2.3,2.3H58.3c-1.3,0-2.3-1-2.3-2.3l0,0
				C56,244.9,57,243.9,58.3,243.9z"/>
			<path class="st3" d="M58.3,258.1h95.9c1.3,0,2.3,1,2.3,2.3l0,0c0,1.3-1,2.3-2.3,2.3H58.3c-1.3,0-2.3-1-2.3-2.3l0,0
				C56,259.1,57,258.1,58.3,258.1z"/>
			<path class="st3" d="M58.3,272.2h106.2c1.3,0,2.3,1,2.3,2.3l0,0c0,1.3-1,2.3-2.3,2.3H58.3c-1.3,0-2.3-1-2.3-2.3l0,0
				C56,273.3,57,272.2,58.3,272.2z"/>
		</g>
	</g>
	<g>
		<path class="st3" d="M269.4,292.2h-26.5c-6.6,0-12-5.4-12-12v-155c0-6.6,5.4-12,12-12h26.5c6.6,0,12,5.4,12,12v155
			C281.4,286.8,276,292.2,269.4,292.2z"/>
		<g>
			<rect x="234.9" y="126.3" class="st2" width="41.1" height="36.3"/>
			<circle class="st0" cx="256.8" cy="143.7" r="15"/>
			<polygon class="st2" points="252.7,134.2 252.7,152.4 265.3,143.1 			"/>
		</g>
		<g>
			<rect x="234.9" y="183" class="st2" width="41.1" height="36.3"/>
			<circle class="st0" cx="256.8" cy="200.4" r="15"/>
			<polygon class="st2" points="252.7,190.9 252.7,209.1 265.3,199.8 			"/>
		</g>
		<g>
			<rect x="234.9" y="238.3" class="st2" width="41.1" height="36.3"/>
			<circle class="st0" cx="256.8" cy="255.6" r="15"/>
			<polygon class="st2" points="252.7,246.2 252.7,264.4 265.3,255 			"/>
		</g>
		<path class="st2" d="M239.2,166h33.5c0.7,0,1.2,0.5,1.2,1.2l0,0c0,0.7-0.5,1.2-1.2,1.2h-33.5c-0.7,0-1.2-0.5-1.2-1.2l0,0
			C238,166.6,238.5,166,239.2,166z"/>
		<path class="st2" d="M239.2,222.7h33.5c0.7,0,1.2,0.5,1.2,1.2l0,0c0,0.7-0.5,1.2-1.2,1.2h-33.5c-0.7,0-1.2-0.5-1.2-1.2l0,0
			C238,223.3,238.5,222.7,239.2,222.7z"/>
		<path class="st2" d="M239.2,279.4h33.5c0.7,0,1.2,0.5,1.2,1.2v0c0,0.7-0.5,1.2-1.2,1.2h-33.5c-0.7,0-1.2-0.5-1.2-1.2v0
			C238,280,238.5,279.4,239.2,279.4z"/>
	</g>
	<path class="st1" d="M38.1,105.1c1,0.3,2.1,0.4,3.2,0.4h248.9V86.4H38.1V105.1z"/>
	<path class="st0" d="M55.4,95.8c0,3.1-2.5,5.6-5.6,5.6s-5.6-2.5-5.6-5.6c0-3.1,2.5-5.6,5.6-5.6S55.4,92.7,55.4,95.8z"/>
	<path class="st2" d="M69.6,95.8c0,3.1-2.5,5.6-5.6,5.6c-3.1,0-5.6-2.5-5.6-5.6c0-3.1,2.5-5.6,5.6-5.6
		C67.1,90.2,69.6,92.7,69.6,95.8z"/>
	<g>
		<path class="st18" d="M378.5,81.7c-7.4,0-13.9,3.6-18,9.1c-4.1-5.5-10.6-9.1-18-9.1c-7.4,0-13.9,3.6-18,9.1
			c-4.1-5.5-10.6-9.1-18-9.1c-12.4,0-22.4,10-22.4,22.4c0,12.4,10,22.4,22.4,22.4c7.4,0,13.9-3.6,18-9.1c4.1,5.5,10.6,9.1,18,9.1
			c7.4,0,13.9-3.6,18-9.1c4.1,5.5,10.6,9.1,18,9.1c12.4,0,22.4-10,22.4-22.4C400.8,91.7,390.8,81.7,378.5,81.7z"/>
		<path class="st18" d="M304.6,168.5h79.6c2.7,0,4.9,2.2,4.9,4.9l0,0c0,2.7-2.2,4.9-4.9,4.9h-79.6c-2.7,0-4.9-2.2-4.9-4.9l0,0
			C299.7,170.7,301.9,168.5,304.6,168.5z"/>
		<path class="st2" d="M319.2,163.8L319.2,163.8c0.5,0,0.9-0.4,0.9-0.9v-31.5c0-0.5-0.4-0.9-0.9-0.9l0,0c-0.5,0-0.9,0.4-0.9,0.9
			v31.5C318.3,163.4,318.7,163.8,319.2,163.8z"/>
		<path class="st2" d="M367.7,163.8L367.7,163.8c0.5,0,0.9-0.4,0.9-0.9v-31.5c0-0.5-0.4-0.9-0.9-0.9l0,0c-0.5,0-0.9,0.4-0.9,0.9
			v31.5C366.8,163.4,367.2,163.8,367.7,163.8z"/>
		<path class="st18" d="M376.4,126.3c-6.5-0.6-12.2-4-15.9-9c-4.1,5.5-10.6,9.1-18,9.1c-6.8,0-12.8-3-16.9-7.7l-2.4,0.3
			c-3.2,3.6-7.6,6.2-12.6,7.1c1.7,9.6,3.4,29.4-6.8,42.7l82-0.2C385.7,168.5,373.7,147.1,376.4,126.3z"/>
	</g>
	<g>
		<rect x="522.5" y="195.5" class="st0" width="175.5" height="218.9"/>
		<path class="st1" d="M549.9,223.8h120.5c9,0,16.3,7.3,16.3,16.3v103.6c0,9-7.3,16.3-16.3,16.3H549.9c-9,0-16.3-7.3-16.3-16.3
			V240.1C533.6,231.1,540.9,223.8,549.9,223.8z"/>
		<rect x="522.5" y="195.5" class="st1" width="175.3" height="18.8"/>
		<g>
			<g>
				<path class="st2" d="M552.3,323c0.4-0.8,0.4-1.6,0-2.5c-1.1-2.6-2.4-5.2-4.6-7.1c3.5,1.5,5.9,4.1,7.9,7.2
					c4.2-1.7,8.4-3.4,12.6-5.1c-0.6-0.7-1.1-1.4-1.7-2.1c1.1,0,2,0,2.9,0c2,0.1,4,0.2,6,0.2c2.5,0,4.5-1.3,6.6-2.5
					c1.2-0.7,2.4-1.3,3.8-2.1c0,1.3,0,2.3,0,3.4c9.4,0.1,17.7,2.8,24.7,9.3c-0.4,0.4-0.6,0.7-0.8,0.9c-3.2,2.9-6.9,5-10.9,6.5
					c-0.9,0.3-1.6,0.1-2.2-0.6c-0.7-0.9-1.3-1.8-1.9-2.7c-0.1,0-0.1,0-0.2,0c0.4,1.4,0.8,2.8,1.2,4.3c-2.8,0.4-5.7,0.8-8.7,1.2
					c-0.1,0.5-0.2,1.1-0.4,1.9c-0.3-0.4-0.6-0.7-0.8-1c-0.6-1-1.4-1.2-2.5-1.3c-2-0.2-3.9-0.4-5.8-0.8c-2.3-0.5-4.6-0.8-6.9-0.1
					c-1,0.3-2,0.3-3.1,0.5c0.4-1,0.7-1.7,0.9-2.5c-4.3-1.7-8.5-3.5-12.8-5.2c-1.9,2.9-4.2,5.5-7.6,7
					C550,327.9,551.2,325.5,552.3,323z M601.1,321.8c0,0.9,0.8,1.6,1.6,1.6c0.9,0,1.7-0.8,1.7-1.7c0-0.9-0.7-1.6-1.7-1.6
					C601.8,320.2,601.1,320.9,601.1,321.8z"/>
				<path class="st2" d="M635.5,273.7c-4.7-1.1-8.9-3.3-13-5.8c-5.7-3.5-10.9-7.5-15.7-12.1c-2-1.9-3.8-4-5.6-6.1
					c-0.5-0.6-0.6-1.7-1-2.5c0.9-0.2,1.8-0.7,2.7-0.7c4.8,0.1,9.5,1.2,14.1,2.4c7.4,1.9,14.6,4.3,21.1,8.4c3.5,2.2,7.1,4.4,7.2,9.6
					c2.6-0.1,5.1-0.1,7.8-0.2c0.3,0.9,0.7,2,1.2,3.3c-1.3,0.2-2.5,0.4-3.7,0.6c0,0.1,0,0.2,0,0.2c1.2,0.6,2.4,1.2,3.6,1.9
					c-0.6,1.1-1.1,2.2-1.7,3.3c-1.3-0.6-2.5-1.2-3.8-1.9c0.5,1.3,1,2.4,1.6,3.6c-1.3,0.4-2.4,0.7-3.6,1c-1.1-2.4-2.4-4.6-4.4-6.3
					C640.2,274.2,637.9,274.2,635.5,273.7z M634.7,266.1c-0.6,1.1-1.1,2.2-1.7,3.2c-0.3,0.6-0.3,1.1,0.4,1.3c0.3,0.1,1-0.2,1.2-0.5
					c0.7-1.1,1.3-2.3,1.8-3.4c0.4-0.8-0.1-1.5-1.1-1.3C635.1,265.6,634.8,265.8,634.7,266.1z M627.1,262.6c-0.6,1.2-1.3,2.3-1.8,3.5
					c-0.1,0.3,0.2,0.9,0.3,1.3c0.4-0.1,1.1-0.2,1.2-0.5c0.7-1.1,1.2-2.3,1.8-3.4c0.1-0.3,0.1-0.8-0.1-1.1c-0.1-0.2-0.5-0.3-0.8-0.5
					C627.5,262.2,627.2,262.3,627.1,262.6z M619.8,258.5c-0.6,1.1-1.2,2.2-1.7,3.4c-0.1,0.3,0.2,0.8,0.3,1.3
					c0.4-0.1,1.1-0.1,1.3-0.4c0.7-1.2,1.3-2.4,1.8-3.6c0.3-0.7-0.3-1.3-1.1-1.2C620.3,258,620,258.2,619.8,258.5z"/>
				<path class="st2" d="M559.3,303c3,2.9,6.2,2.1,8.3-0.6c2.7-3.6,4.2-7.6,3.8-12.2c-0.5-4.5-6.7-6.6-9.8-4.2
					c-0.1,0.1-0.3,0.2-0.5,0.3c-0.2-1.3-0.3-2.5-0.6-3.7c-0.6-2.5-2-3.8-3.9-4c-0.3,0-0.6,0-0.9,0c-0.9,0.1-1.5,0.6-1.5,1.5
					c0,0.8,0.6,1.5,1.5,1.4c1-0.1,1.4,0.4,1.6,1.2c0.3,1.2,0.5,2.5,0.7,3.7c-0.1,0-0.2,0.1-0.3,0.1c-0.2-0.1-0.4-0.2-0.6-0.4
					c-2.1-1.7-4.4-1.5-6.7-0.5c-2.2,1-3.4,2.8-3.4,5.3c-0.1,4.5,1.3,8.6,4.3,12c2,2.3,4.9,2.4,7.3,0.5
					C558.9,303.3,559.1,303.2,559.3,303z"/>
				<path class="st2" d="M631.2,288.2c0.9,0.7,1.9,1.3,1.7,2.5c-0.1,0.6-0.4,1.1-0.8,1.6c-1.3,1.5-1.2,3.1,0.2,4.2
					c1.6,1.3,3.6,1.1,4.7-0.6c1.1-1.7,1.2-3.6,0.7-5.5c-0.8-2.8-2.6-5-4.8-6.8c-3.3-2.6-7.1-4.1-11.3-3.9c-2.4,0.1-4.5,0.9-5.9,3
					c-1.6,2.3-0.2,4.9,2.5,5.1c1.2,0.1,2.1-0.6,2.6-2c0.6-1.8,1.6-2.6,4-1.3c-0.4,0.2-0.7,0.3-1.1,0.5c-2.3,1-3.8,2.8-4.8,5
					c-0.7,1.5-0.4,2.8,1.1,3.6c1.9,1.2,3.9,2.3,5.9,3.3c1.3,0.7,2.4,0.4,3.3-0.7c1.6-2,2.4-4.3,2.2-6.9
					C631.3,289.1,631.2,288.8,631.2,288.2z"/>
				<path class="st2" d="M650.9,284.2c0,0.2,0,0.5,0.1,1c-2.1,0.4-4.2,0.8-6.3,1.2c0.8,0.8,2.1,0.6,3.6,0.5
					c-0.4,0.6-0.7,1.1-0.9,1.6c-2.2,4.6,0.7,9.2,5.8,9.6c3.7,0.3,7.3-2.2,8.3-5.8c1.1-3.7-1.2-7.4-5.1-8.2c-0.4-0.1-0.9-0.2-1.5-0.3
					c1.2-1,2-2.1,2-3.8c-1.2,2.3-3.2,3.4-5.3,4.4c-0.2-0.2-0.4-0.4-0.6-0.7C651.1,284,651,284.1,650.9,284.2z"/>
				<path class="st2" d="M563.9,258.9c-0.2,0.1-0.5,0.2-1,0.4c-0.9-1.9-1.9-3.9-2.8-5.8c-0.6,1,0,2.2,0.4,3.6
					c-0.7-0.2-1.2-0.4-1.7-0.5c-4.9-1-8.8,2.9-7.9,8c0.6,3.6,4,6.5,7.7,6.6c3.9,0.1,6.9-3,6.7-6.9c0-0.5-0.1-0.9-0.1-1.5
					c1.2,0.9,2.5,1.5,4.2,1c-2.5-0.6-4.1-2.2-5.6-4c0.2-0.3,0.3-0.5,0.5-0.8C564.1,259,564,259,563.9,258.9z"/>
				<g>
					<path class="st2" d="M583.4,284.7c-2.7-2.7-4-5.6-3.9-9.1c0.2-4.6,2.3-8.1,6.5-10.1c1.8-0.8,2.9-2.3,4.2-3.6
						c0.3-0.3,0.5-0.6,0.7-1c1.3,1.2,2.4,2.3,3.5,3.4c0.3,0.3,0.7,0.6,1,0.7c7.5,3.2,9.6,12,4.5,18.4c-0.1,0.2-0.3,0.4-0.3,0.8
						c0.4-0.2,0.9-0.4,1.3-0.7c4.4-3.1,6.6-7.4,4.9-12.6c-0.9-3-3.1-5.1-5.7-6.6c-1.1-0.6-2.4-1-3.6-1.6c-0.5-0.2-1-0.5-1.5-0.8
						c-1.2-0.9-2.3-1.9-3.4-2.7c-0.2-0.2-0.8-0.2-1,0c-1.3,0.9-2.4,2-3.7,2.9c-0.4,0.3-0.9,0.5-1.4,0.6c-4.6,1.6-8.2,4.2-9.4,9.2
						c-0.8,3.4,0.3,6.4,2.5,9C579.8,282.7,581.3,283.8,583.4,284.7z"/>
					<path class="st2" d="M591.2,269.5c-0.9,0.7-1.8,1.4-2.7,2.2c-2.3,2-2.8,4.7-2.5,7.5c0.1,0.9,0.4,1.8,0.7,2.6
						c1.1,2.6,3.4,3.8,6.1,2.8c1-0.4,1.8-1.5,2.4-2.4c1.8-2.9,1.3-8.3-1.7-10.6C592.7,270.8,591.9,270.1,591.2,269.5z"/>
					<path class="st2" d="M586.3,284.5c-1.3-1.8-2.1-3.7-2.2-5.7c-0.2-3.8,0.8-7.1,4.3-9.3c0.5-0.3,0.9-1,1.3-1.5
						c0.4-0.5,0.8-1.1,1.2-1.6c0,0,0.1,0,0.2-0.1c0.2,0.2,0.4,0.4,0.6,0.7c0.9,1.3,1.9,2.4,3.2,3.4c2.5,2,3.2,4.8,3.2,7.8
						c0,2.3-0.7,4.3-2,6.1c2-1,3.3-2.7,4.1-4.7c1.8-4.5,0.3-9.4-3.8-11.9c-1.9-1.2-3.8-2.2-5.1-3.9c-0.2,0.1-0.3,0.1-0.3,0.1
						c-1.4,1.9-3.5,2.8-5.4,4c-5.9,4-5.5,12.5,0.2,16.3C585.8,284.3,586,284.3,586.3,284.5z"/>
				</g>
				<g>
					<path class="st2" d="M643.3,304.1c-2.4,0.1-4.8,0-7.2,0.4c-5.1,0.8-8.9,5.6-9.1,10.8c-0.2,6,3.8,11,9.2,11.9
						c2.8,0.5,5.6,0.3,8.5,0.3c2,0,4.1,0.1,6.1-0.3c6.1-1.1,10-7.1,9-13.4c-1-5.7-5.4-9.5-11.2-9.6c-1.7,0-3.4,0-5.2,0
						C643.3,304.2,643.3,304.1,643.3,304.1z"/>
					<path class="st2" d="M620.9,315.8c-1.7,1.6-1.6,3.7,0.1,4.8c1.6,1,3.5,0.4,4.2-1.3c0.3-0.7,0.6-0.8,1.3-0.8c0.9,0,1.9,0,2.8,0
						c0-1.8,0-3.6,0-5.5c-0.9,0-2,0-3,0c-0.3,0-0.8-0.3-0.9-0.6c-0.5-1.2-1.4-2-2.8-2c-1.1,0-2.3,0.7-2.6,1.7
						c-0.5,1.3-0.2,2.5,0.8,3.4C620.8,315.6,620.9,315.7,620.9,315.8z"/>
					<path class="st2" d="M657.6,318.5c1,0,2.1,0,3.1,0c0.3,0,0.7,0.3,0.8,0.5c0.5,1.3,1.4,2,2.7,2c1.1,0.1,2.2-0.7,2.7-1.8
						c0.5-1.2,0.2-2.3-0.8-3.2c-0.1-0.1-0.1-0.2-0.1-0.1c0.4-0.9,0.9-1.7,1-2.6c0.2-1.3-0.9-2.6-2.1-2.9c-1.5-0.3-2.8,0.2-3.3,1.6
						c-0.3,0.8-0.7,0.9-1.4,0.9c-0.9-0.1-1.8,0-2.7,0C657.6,314.9,657.6,316.6,657.6,318.5z"/>
				</g>
				<g>
					<path class="st2" d="M599.9,290.7c-4.2,0.5-8.7,1.9-12.1,5.5c-1.9,2-1.7,4.1,0.2,6.1c2,2.1,4.6,3.3,7.3,4.2
						c2.4,0.8,4.9,1.5,7.5,0.8c3.6-0.9,6.7-2.7,7.8-6.6c0.8-2.7-0.3-4.9-2.2-6.8C606.1,291.8,603.5,290.7,599.9,290.7z"/>
					<path class="st2" d="M579.4,299.1c-1,1.4-0.9,2.6,0.3,3c0.9,0.4,1.7,0.1,2.1-0.7c0.3-0.6,0.7-0.6,1.2-0.6c1.6,0,3.1,0,4.6,0
						c0-1.1,0-2.2,0-3.4c-1.5,0-3.1,0-4.7,0c-0.3,0-0.8-0.2-0.9-0.4c-0.8-1.1-1.7-1.4-2.6-0.8c-0.8,0.6-0.9,1.6-0.1,2.6
						C579.3,298.9,579.3,299,579.4,299.1z"/>
				</g>
				<path class="st2" d="M622.4,264.7c0.1-0.1,0.1-0.2,0.2-0.3c-0.2-0.6-0.5-1.3-0.7-1.9c-0.2,0.1-0.4,0.2-0.5,0.2
					C621.7,263.3,622,264,622.4,264.7z"/>
				<g>
					<path class="st2" d="M667.2,342.8c-0.3-2.8-2.1-4.3-5.2-4.3c-9.5,0-19,0-28.5,0c-16.3,0-32.5,0-48.8,0c-10.1,0-20.2,0-30.2,0
						c-2.1,0-3.6,0.8-4.4,2.3v19.6h117.2V342.8z"/>
				</g>
				<g>
					<path class="st2" d="M570.4,243.2c3.7-0.9,7.5-0.6,11.2,0.1c2,0.4,4,0.9,6,1.4c2,0.5,3.9,1.1,5.6,2.1c0.5,0.3,0.3,1.3-0.3,1.2
						c-5.7-0.3-11.9,0.9-15.9,5.1c0.5,0.5,0.9,1.2,1.1,2c0.6,2.4-0.8,4.9-3.2,5.5s-4.9-0.8-5.5-3.2c-0.6-2.4,0.8-4.9,3.2-5.5
						c1.3-0.3,2.6-0.1,3.6,0.6c3.3-4,8.5-5.6,13.6-5.8c-0.9-0.3-1.8-0.5-2.6-0.8c-1.9-0.5-3.8-1-5.8-1.4c-3.5-0.7-7.1-1-10.6-0.2
						c0.5,2.4-0.9,4.8-3.3,5.4c-2.4,0.6-4.9-0.8-5.5-3.2c-0.6-2.4,0.8-4.9,3.2-5.5C567.4,240.6,569.4,241.5,570.4,243.2z"/>
					<path class="st2" d="M595.1,240.2c0.8-2.7,0.5-5.4,0-8.1c-0.1-0.5-0.7-0.7-1-0.4c-2.1,1.8-3.5,4.4-4.3,7
						c-0.4,1.3-0.6,2.7-0.7,4c0,1.2-0.1,2.7,1.1,3.4c0.6,0.4,1.3-0.3,1.1-0.8C593.1,244.3,594.4,242.3,595.1,240.2z"/>
				</g>
				<g>
					<path class="st2" d="M657.5,239c-0.7-0.2-1.6,0.1-2.3,0.4c-0.4,0.2-0.7,0.5-1.1,0.8c0.1-0.6,0.2-1.3-0.1-1.8
						c-0.3-0.6-1-0.6-1.5-0.3c-0.7,0.5-1.3,1.4-1.6,2.3c-0.3-1.3-0.8-2.4-2.1-3.1c-0.4-0.2-0.9-0.1-1,0.5c-0.3,2.1,0,4.2,0.9,6.1
						c-0.5-0.3-1-0.6-1.6-0.8c-1-0.5-2.2-0.7-3.3-0.1c-0.4,0.2-0.4,0.6-0.2,0.9c1,1.5,2.7,2.5,4.4,3c0,0.1,0.1,0.2,0.2,0.3
						c0.5,0.6,1.1,1.2,1.9,1.4c0.8,0.2,1.6,0,2.1-0.7c0.5-0.6,0.8-1.3,1.4-1.9c0.6-0.6,1.2-1.1,1.8-1.6c1.1-0.9,2.7-2.2,3-3.7
						C658.6,239.9,658.2,239.2,657.5,239z M652.8,239.6C652.9,239.6,652.9,239.6,652.8,239.6C652.9,239.6,652.9,239.6,652.8,239.6
						c0,0.5,0,1-0.1,1.5c-0.2,1.1-0.5,2.1-0.8,3.1C651.5,242.6,651.9,240.9,652.8,239.6z M651.6,246.1c-0.2,0.3-0.3,0.6-0.5,0.8
						c-0.5,0.7-1.3-0.3-1.7-0.7c-0.3-0.3-0.6-0.3-0.9-0.2c-1.2-0.6-2.4-1.2-3.3-2.2c0.7,0,1.3,0.3,1.9,0.6c1,0.5,2,1.1,2.9,1.7
						c0.6,0.4,1.3-0.3,0.8-0.9c-1.3-1.8-1.9-3.9-1.9-6.1c0.4,0.6,0.7,1.3,0.8,2c0.3,1.3,0.4,2.7,1.1,3.9c0.3,0.6,1.2,0.3,1.2-0.3
						c0.1,0.1,0.3,0.2,0.4,0.2c0,0-0.1,0.1-0.1,0.1C652.1,245.5,651.9,245.8,651.6,246.1z M657,240.7c-0.3,0.6-0.9,1.2-1.4,1.6
						c-0.7,0.7-1.6,1.3-2.3,2c0.5-1.4,1.2-2.9,2.5-3.6c0.3-0.2,0.7-0.3,1.1-0.3c0.1,0,0.2,0,0.2,0C657.1,240.5,657,240.7,657,240.7z
						"/>
					<g>
						<path class="st2" d="M659.7,245.3c-1.4-2-4.1-2-6.3-1.5c-1.8,0.5-3.6,1.4-4.9,2.9c0,0,0,0,0,0c-1.5,1.3-1.8,3.1-1.1,4.9
							c0.8,1.9,2.5,3.5,3.9,5c1.6,1.7,3.4,3.4,5.2,4.9c1.3,1.1,3.1,2.8,4.9,1.9c1.8-0.9,1.8-3.4,1.8-5.1c-0.1-2.3-0.4-4.6-1-6.9
							C661.6,249.4,660.9,247.1,659.7,245.3z M650.7,252.2c-0.1-0.2,0-0.5,0.2-0.6l3.7-1.7c0.2-0.1,0.5,0,0.6,0.2
							c0.1,0.2,0,0.5-0.2,0.6l-3.7,1.7C651,252.5,650.8,252.4,650.7,252.2z M656.7,253.2l-3.7,1.7c-0.2,0.1-0.5,0-0.6-0.2
							c-0.1-0.2,0-0.5,0.2-0.6l3.7-1.7c0.2-0.1,0.5,0,0.6,0.2C657,252.9,656.9,253.1,656.7,253.2z"/>
					</g>
				</g>
			</g>
		</g>
		<path class="st0" d="M538.5,203c0,2.7-2.2,4.8-4.8,4.8c-2.7,0-4.8-2.2-4.8-4.8c0-2.7,2.2-4.8,4.8-4.8
			C536.3,198.2,538.5,200.4,538.5,203z"/>
		<path class="st2" d="M552.7,203c0,2.7-2.2,4.8-4.8,4.8c-2.7,0-4.8-2.2-4.8-4.8c0-2.7,2.2-4.8,4.8-4.8
			C550.5,198.2,552.7,200.4,552.7,203z"/>
		<path class="st1" d="M543.7,372.4h127.2c0.9,0,1.7,0.7,1.7,1.7l0,0c0,0.9-0.7,1.7-1.7,1.7H543.7c-0.9,0-1.7-0.7-1.7-1.7l0,0
			C542.1,373.1,542.8,372.4,543.7,372.4z"/>
		<path class="st1" d="M570.3,387h74.2c0.9,0,1.7-0.7,1.7-1.7l0,0c0-0.9-0.7-1.7-1.7-1.7h-74.2c-0.9,0-1.7,0.7-1.7,1.7l0,0
			C568.6,386.3,569.3,387,570.3,387z"/>
		<path class="st1" d="M562.4,395h89.9c0.9,0,1.7,0.7,1.7,1.7l0,0c0,0.9-0.7,1.7-1.7,1.7h-89.9c-0.9,0-1.7-0.7-1.7-1.7l0,0
			C560.7,395.8,561.5,395,562.4,395z"/>
	</g>
	<g>
		<g>
			<g>
				<path class="st2" d="M195.9,433.8H59.1l-0.3-1.3c-0.1-0.3-0.1-0.6-0.2-0.8c-3.8-18.4-0.3-37.2,10-52.9
					c10.3-15.7,26.1-26.5,44.5-30.3c18.4-3.8,37.2-0.3,52.9,10c15.7,10.3,26.5,26.1,30.3,44.5c2.1,10,2,20.1-0.3,30L195.9,433.8z
					 M60.7,431.8h133.7c2-9.4,2.1-18.9,0.1-28.4c-3.7-17.9-14.2-33.2-29.5-43.3c-15.3-10-33.5-13.5-51.4-9.8
					c-17.9,3.7-33.2,14.2-43.3,29.5c-10,15.3-13.5,33.5-9.8,51.4C60.6,431.5,60.6,431.7,60.7,431.8z"/>
			</g>
			<g>
				<path class="st2" d="M200,437.4H55.1c-1.5,0-2.7-1.2-2.7-2.7s1.2-2.7,2.7-2.7H200c1.5,0,2.7,1.2,2.7,2.7S201.5,437.4,200,437.4z
					 M55.1,434c-0.4,0-0.7,0.3-0.7,0.7c0,0.4,0.3,0.7,0.7,0.7H200c0.4,0,0.7-0.3,0.7-0.7c0-0.4-0.3-0.7-0.7-0.7H55.1z"/>
			</g>
			<g>
				<path class="st2" d="M51.7,440.9h153.4c0.9,0,1.7-0.8,1.7-1.7l0,0c0-0.9-0.8-1.7-1.7-1.7H51.7c-0.9,0-1.7,0.8-1.7,1.7l0,0
					C50,440.1,50.7,440.9,51.7,440.9z"/>
			</g>
			<g>
				<path class="st2" d="M126.8,349.1c-4.2,0-7.5-3.4-7.5-7.5c0-4.2,3.4-7.5,7.5-7.5c4.2,0,7.5,3.4,7.5,7.5
					C134.3,345.7,130.9,349.1,126.8,349.1z M126.8,336c-3.1,0-5.5,2.5-5.5,5.5c0,3.1,2.5,5.5,5.5,5.5c3.1,0,5.5-2.5,5.5-5.5
					C132.3,338.5,129.8,336,126.8,336z"/>
			</g>
			<g>
				<path class="st2" d="M68.9,410.4c-0.1,0-0.1,0-0.2,0c-0.5-0.1-0.9-0.6-0.8-1.2c9.8-46.7,51-50.9,51.4-51c0.5,0,1,0.4,1.1,0.9
					c0.1,0.5-0.4,1-0.9,1.1c-0.4,0-40.2,4.2-49.6,49.4C69.8,410,69.4,410.4,68.9,410.4z"/>
			</g>
		</g>
		<path class="st19" d="M114,287.5c0,0-7,12,0.7,19.9s2.6,19-0.7,21.4"/>
		<path class="st19" d="M136.5,287.5c0,0-7,12,0.7,19.9s2.6,19-0.7,21.4"/>
	</g>
</g>
</svg>
