<?xml version="1.0" encoding="utf-8"?>
<!-- Generator: Adobe Illustrator 24.0.1, SVG Export Plug-In . SVG Version: 6.00 Build 0)  -->
<svg version="1.1" id="Layer_1" xmlns="http://www.w3.org/2000/svg" xmlns:xlink="http://www.w3.org/1999/xlink" x="0px" y="0px"
	 viewBox="0 0 300 300" style="enable-background:new 0 0 300 300;" xml:space="preserve">
<style type="text/css">
	.st0{fill:#F57F2D;}
	.st1{fill:#6FCEF5;}
	.st2{fill:#43ADE2;}
	.st3{fill:#3E3E3E;}
	.st4{fill:#FBBC90;}
	.st5{fill:#565F67;}
	.st6{fill:#D2D2D2;}
	.st7{fill:#FFFFFF;}
	.st8{fill:#0093BE;}
	.st9{fill:#0A0B12;}
	.st10{fill:#3D3D3D;}
	.st11{fill:#242424;}
	.st12{fill:#F9A367;}
	.st13{fill:#A29F95;}
	.st14{fill:#333333;}
	.st15{fill:#FBC0AB;}
	.st16{fill:#F9AA8C;}
	.st17{fill:#E5E5E5;}
	.st18{fill:#D0CFCB;}
	.st19{fill:#4D4C4A;}
	.st20{fill:#363533;}
	.st21{fill:#B45326;}
	.st22{fill:#9F4723;}
	.st23{fill:#D6D7D7;}
	.st24{fill:#6C747B;}
	.st25{fill:#ACABAD;}
	.st26{fill:#E2E3E4;}
	.st27{fill:#066C9B;}
	.st28{fill:#48515A;}
	.st29{fill:#727275;}
	.st30{fill:#087AAE;}
	.st31{fill:#499AD4;}
	.st32{fill:#50BEED;}
	.st33{opacity:0.4;fill:#E6EFEF;enable-background:new    ;}
	.st34{fill:#9CA4AB;}
	.st35{fill:#C9C8C1;}
	.st36{opacity:0.4;fill:#FFFFFF;enable-background:new    ;}
</style>
<g>
	<g>
		<g>
			
				<ellipse transform="matrix(0.7071 -0.7071 0.7071 0.7071 -60.914 158.3276)" class="st0" cx="160.7" cy="152.7" rx="68.5" ry="68.5"/>
			<path class="st1" d="M142.5,121c-1.4,0-2.7,0.5-3.8,1.3c-1.4-3-4.1-5.1-7.4-5.1c-2.7,0-5.2,1.5-6.7,3.9c-0.9-0.5-2-0.8-3-0.8
				c-3.8,0-6.9,3.5-6.9,7.8c0,0.1,0,0.3,0,0.3l0,0c-1.8,0-3.3,1.6-3.3,3.7s1.5,3.7,3.3,3.7h28.6v-0.1c3.3-0.4,6-3.6,6-7.4
				C149.3,124.3,146.2,121,142.5,121z"/>
			<path class="st2" d="M199.8,130.5c-1,0-2,0.3-2.7,0.9c-0.9-2.1-2.9-3.7-5.2-3.7c-2,0-3.8,1.1-4.8,2.8c-0.7-0.3-1.4-0.6-2.1-0.6
				c-2.7,0-5,2.5-5,5.6c0,0.1,0,0.2,0,0.3l0,0c-1.3,0-2.4,1.2-2.4,2.7c0,1.5,1,2.7,2.4,2.7h20.4l0,0c2.4-0.3,4.3-2.6,4.3-5.3
				C204.6,132.9,202.5,130.5,199.8,130.5z"/>
			<g>
				<rect x="161.6" y="104.7" class="st3" width="1.1" height="18.3"/>
				<polygon class="st4" points="162.7,115.5 176.8,110.7 162.7,104.7 				"/>
			</g>
			<g>
				<polygon class="st3" points="105.4,223.1 163.2,223.1 162.3,121.9 				"/>
				<polygon class="st5" points="163.2,223.1 219.3,223.1 162.3,121.9 				"/>
				<polygon class="st6" points="153.8,148 152.6,156 158.5,148.9 162.3,165.5 162.3,121.7 145.2,152.4 				"/>
				<polygon class="st7" points="162.3,121.7 162.3,165.5 166.1,148.9 171.9,156 170.8,148 179.3,152.4 				"/>
			</g>
			<g>
				<polygon class="st3" points="127.7,223.1 127.7,153.2 89.3,223.1 				"/>
				<polygon class="st5" points="127.7,223.1 166.7,223.1 127.7,153.2 				"/>
			</g>
			<g>
				<polygon class="st3" points="202.9,223.1 202.9,157.8 166.2,223.1 				"/>
				<polygon class="st5" points="202.9,223.1 240.9,223.1 202.9,157.8 				"/>
			</g>
		</g>
		<g>
			<g>
				<g>
					<g>
						<path class="st2" d="M74.2,156.7c-1.9,2.7-1.4,6.1-1.4,6.1s3.5-0.9,5.3-3.7c1.9-2.7,1.4-6.1,1.4-6.1S76,154,74.2,156.7z
							 M76.2,158.2c-0.3,0.6-0.8,1.1-1.1,1.7c-0.3,0.5-0.7,1-1,1.5c-0.6,0.9-1,1.4-1,1.4l0,0c0,0,0.3-0.6,0.9-1.5
							c0.3-0.4,0.6-0.9,0.9-1.5c0.3-0.5,0.8-1.1,1.2-1.6c1.6-2.2,3.2-4.4,3.2-4.4l0,0C79.2,153.6,77.6,155.9,76.2,158.2z"/>
					</g>
					<g>
						<path class="st8" d="M73.2,167.8c-3,1.5-4.4,4.7-4.4,4.7s3.5,0.8,6.6-0.7c3-1.5,4.4-4.7,4.4-4.7S76.2,166.3,73.2,167.8z
							 M79.1,167.5c0,0-2.5,1.3-5,2.6c-0.6,0.3-1.3,0.6-1.8,0.9c-0.6,0.3-1.1,0.5-1.6,0.8c-0.9,0.4-1.6,0.7-1.6,0.7l0,0
							c0,0,0.6-0.3,1.5-0.9c0.4-0.3,1-0.5,1.6-0.9c0.6-0.3,1.2-0.6,1.9-0.9C76.5,168.6,79.1,167.4,79.1,167.5L79.1,167.5z"/>
					</g>
					<g>
						<path class="st8" d="M71.2,178.8c-2.2,2.5-2.2,5.9-2.2,5.9s3.6-0.5,5.8-3c2.2-2.5,2.2-5.9,2.2-5.9S73.5,176.3,71.2,178.8z
							 M76.5,176.3L76.5,176.3c0,0-1.8,2.1-3.6,4.1c-0.4,0.5-0.9,1-1.4,1.5c-0.4,0.5-0.9,0.9-1.2,1.3c-0.8,0.8-1.3,1.2-1.3,1.2l0,0
							c0,0,0.4-0.5,1.1-1.4c0.3-0.4,0.8-0.9,1.2-1.3c0.4-0.4,0.9-0.9,1.4-1.5C74.6,178.4,76.5,176.3,76.5,176.3z"/>
					</g>
					<g>
						<path class="st8" d="M84.7,198.9c-0.9,3.2,0.8,6.2,0.8,6.2s3-2,3.8-5.1c0.9-3.2-0.8-6.2-0.8-6.2S85.5,195.8,84.7,198.9z
							 M87,199.6c-0.2,0.7-0.3,1.3-0.5,1.9s-0.3,1.2-0.5,1.6c-0.3,0.9-0.5,1.6-0.5,1.6l0,0c0,0,0.1-0.7,0.3-1.6
							c0.1-0.5,0.3-1,0.4-1.7c0.2-0.6,0.3-1.3,0.5-1.9c0.8-2.6,1.5-5.2,1.5-5.2l0,0C88.4,194.4,87.7,197.1,87,199.6z"/>
					</g>
					<g>
						<path class="st8" d="M77.1,199.1c0,0,3.6-0.1,6.2-2.2c2.6-2.1,3-5.6,3-5.6s-3.6,0.1-6.2,2.2C77.6,195.7,77.1,199.1,77.1,199.1
							z M85.9,191.9L85.9,191.9c0,0-2.1,1.8-4.2,3.7c-0.5,0.4-1,0.9-1.5,1.4c-0.5,0.4-0.9,0.8-1.4,1.1c-0.9,0.6-1.4,1-1.4,1l0,0
							c0,0,0.5-0.5,1.3-1.2c0.4-0.3,0.9-0.8,1.4-1.2s1-0.9,1.6-1.3C83.6,193.6,85.9,191.9,85.9,191.9z"/>
					</g>
					<g>
						<path class="st8" d="M71.7,189.7c0.1,3.2,2.5,5.7,2.5,5.7s2.3-2.7,2.2-5.9c-0.1-3.2-2.5-5.7-2.5-5.7S71.6,186.5,71.7,189.7z
							 M74,184.5c0,0,0.1,2.7,0.3,5.4c0,0.7,0.1,1.4,0.1,2s0,1.2,0,1.7c0,1-0.1,1.7-0.1,1.7l0,0c0,0-0.1-0.7-0.2-1.7
							c0-0.5-0.1-1.1-0.1-1.7s0-1.3,0-2C73.9,187.2,73.9,184.5,74,184.5L74,184.5z"/>
					</g>
					<g>
						<path class="st8" d="M90.8,199.4c0,0-0.1,3.4,2.1,5.9c2.2,2.5,5.7,3.1,5.7,3.1s0.1-3.4-2.1-5.9
							C94.3,200,90.8,199.4,90.8,199.4z M98.5,208.2L98.5,208.2c0,0-0.5-0.4-1.2-1.2c-0.3-0.3-0.8-0.9-1.2-1.3
							c-0.4-0.5-0.9-1-1.3-1.5c-1.8-2.1-3.5-4.2-3.5-4.2l0,0c0,0,1.9,2.1,3.7,4.1c0.4,0.5,0.9,1,1.4,1.5c0.4,0.5,0.8,0.9,1.1,1.4
							C98.1,207.7,98.5,208.2,98.5,208.2z"/>
					</g>
					<g>
						<path class="st2" d="M67.2,157.7c0,0-1.9,2.9-1.3,6.2c0.6,3.2,3.3,5.4,3.3,5.4s1.9-2.9,1.3-6.2
							C70,159.8,67.2,157.7,67.2,157.7z M69.3,168.9c0,0-0.2-0.7-0.4-1.6c-0.1-0.5-0.3-1.1-0.3-1.7s-0.2-1.3-0.3-2
							c-0.4-2.7-0.9-5.3-0.9-5.3l0,0c0,0,0.5,2.7,1.1,5.3c0.2,0.7,0.3,1.3,0.4,2c0.1,0.6,0.2,1.2,0.3,1.7
							C69.3,168.3,69.3,168.9,69.3,168.9L69.3,168.9z"/>
					</g>
					<g>
						<path class="st2" d="M61.9,168.1c0,0-0.8,3.3,0.9,6.2c1.6,2.8,5,4,5,4s0.8-3.3-0.9-6.2C65.3,169.3,61.9,168.1,61.9,168.1z
							 M67.7,178.1L67.7,178.1c0,0-0.4-0.5-0.9-1.4c-0.3-0.4-0.6-0.9-0.9-1.5c-0.3-0.5-0.7-1.1-0.9-1.7c-1.4-2.4-2.7-4.7-2.7-4.7
							l0,0c0,0,1.5,2.3,2.8,4.6c0.3,0.6,0.7,1.2,1,1.7c0.3,0.5,0.6,1.1,0.9,1.5C67.5,177.5,67.7,178.1,67.7,178.1z"/>
					</g>
					<g>
						<path class="st2" d="M65,184c-3.1-1.4-6.6-0.5-6.6-0.5s1.5,3.2,4.5,4.5c3.1,1.4,6.6,0.5,6.6,0.5S68.1,185.4,65,184z
							 M69.3,188.4L69.3,188.4c0,0-0.7-0.2-1.6-0.6c-0.5-0.2-1-0.4-1.6-0.7c-0.6-0.3-1.2-0.6-1.9-0.9c-2.6-1.2-5.1-2.4-5.1-2.4l0,0
							c0,0,2.6,1.1,5.2,2.2c0.7,0.3,1.3,0.5,1.9,0.8s1.1,0.5,1.6,0.8C68.7,188,69.3,188.4,69.3,188.4z"/>
					</g>
					<g>
						<path class="st2" d="M62.6,197.5c0,0,2.7,2.3,6.1,2.4c3.4,0.1,6.2-2.1,6.2-2.1s-2.7-2.3-6.1-2.4
							C65.5,195.4,62.6,197.5,62.6,197.5z M71.1,197.6c0.7,0,1.3,0.1,1.8,0.1c1,0.1,1.8,0.2,1.8,0.2l0,0c0,0-0.7,0-1.8,0.1
							c-0.5,0-1.1,0-1.8,0c-0.7,0-1.4-0.1-2.1-0.1c-2.8-0.1-5.6-0.3-5.6-0.3l0,0c0,0,2.8,0,5.6,0.1
							C69.8,197.6,70.5,197.6,71.1,197.6z"/>
					</g>
					<g>
						<path class="st2" d="M75,204.7c-3.1,1.4-4.5,4.5-4.5,4.5s3.5,0.9,6.6-0.5c3.1-1.4,4.5-4.5,4.5-4.5S78.1,203.3,75,204.7z
							 M81.4,204.3L81.4,204.3c0,0-0.6,0.3-1.5,0.9c-0.5,0.3-1,0.5-1.6,0.8c-0.6,0.3-1.3,0.5-1.9,0.9c-2.6,1.1-5.1,2.3-5.1,2.3l0,0
							c0,0,2.6-1.2,5-2.5c0.6-0.3,1.3-0.6,1.9-0.9c0.6-0.3,1.2-0.5,1.6-0.7C80.7,204.5,81.4,204.3,81.4,204.3z"/>
					</g>
					<g>
						<path class="st2" d="M80.6,216.4c0,0,3.6-0.5,5.8-2.9c2.2-2.4,2.3-5.9,2.3-5.9s-3.6,0.5-5.8,2.9
							C80.6,213,80.6,216.4,80.6,216.4z M86,210.3c0.4-0.5,0.9-0.9,1.2-1.3c0.7-0.8,1.2-1.2,1.2-1.2l0,0c0,0-0.4,0.5-1.1,1.4
							c-0.3,0.4-0.7,0.9-1.2,1.3c-0.4,0.4-0.9,0.9-1.4,1.5c-1.9,2-3.8,4-3.8,4l0,0c0,0,1.8-2.1,3.7-4.1
							C85.2,211.3,85.6,210.8,86,210.3z"/>
					</g>
					<path class="st9" d="M73.4,162.9c-1.1,0-2.1,0.9-2.1,2s0.9,2,2.1,2c1.1,0,2.1-0.9,2.1-2S74.6,162.9,73.4,162.9z M74.1,165.4
						c-0.4,0-0.7-0.3-0.7-0.7s0.3-0.7,0.7-0.7c0.4,0,0.7,0.3,0.7,0.7C74.8,165.2,74.5,165.4,74.1,165.4z"/>
					<path class="st9" d="M66,179.3c-1.1,0-2.1,0.9-2.1,2s0.9,2,2.1,2c1.1,0,2.1-0.9,2.1-2S67.2,179.3,66,179.3z M66.8,181.9
						c-0.4,0-0.7-0.3-0.7-0.7c0-0.3,0.3-0.7,0.7-0.7c0.3,0,0.7,0.3,0.7,0.7C67.5,181.5,67.1,181.9,66.8,181.9z"/>
					<path class="st9" d="M74.9,199.4c-1.1,0-2.1,0.9-2.1,2s0.9,2,2.1,2c1.1,0,2.1-0.9,2.1-2S76.1,199.4,74.9,199.4z M75.7,202
						c-0.4,0-0.7-0.3-0.7-0.7s0.3-0.7,0.7-0.7c0.3,0,0.7,0.3,0.7,0.7S76,202,75.7,202z"/>
					<path class="st9" d="M92.6,209.6c-1.1,0-2.1,0.9-2.1,2c0,1.1,0.9,2,2.1,2s2.1-0.9,2.1-2C94.7,210.4,93.8,209.6,92.6,209.6z
						 M93.4,212.1c-0.4,0-0.7-0.3-0.7-0.7s0.3-0.7,0.7-0.7c0.4,0,0.7,0.3,0.7,0.7C94.1,211.8,93.7,212.1,93.4,212.1z"/>
					<path class="st10" d="M111.8,216.9c-0.3-0.6-0.7-1.5-1.5-2.5c-0.8-0.9-1.8-2.1-3.2-3.1c-1.4-0.9-3.1-1.9-5-2.5
						c-1-0.3-2.1-0.6-3.1-0.8c-0.5-0.1-1.1-0.2-1.6-0.3c-0.5-0.1-1-0.2-1.5-0.3c-2.1-0.3-4.3-0.9-6.5-1.7s-4.4-1.8-6.5-3.1
						c-2.1-1.3-4-2.8-5.7-4.5c-0.4-0.4-0.9-0.9-1.2-1.4c-0.4-0.5-0.9-0.9-1.2-1.5c-0.8-0.9-1.5-2-2.1-3c-1.2-2.1-2.2-4.2-2.9-6.3
						c-1.4-4.4-1.6-8.6-1.2-12.2c0.4-3.6,1.5-6.5,2.6-8.5c0.5-0.9,0.9-1.7,1.3-2.1c0.3-0.5,0.5-0.8,0.5-0.8s-0.2,0.3-0.5,0.7
						c-0.3,0.5-0.9,1.2-1.4,2.1c-1.1,1.9-2.3,4.8-3,8.5c-0.6,3.7-0.6,8.1,0.6,12.6c0.6,2.3,1.5,4.5,2.7,6.8c0.6,1.1,1.3,2.1,2.1,3.2
						c0.3,0.5,0.8,1,1.1,1.5c0.4,0.5,0.9,1,1.3,1.5c1.7,1.9,3.8,3.6,5.9,5c2.1,1.5,4.4,2.6,6.8,3.5c2.3,0.9,4.6,1.6,6.8,2.1
						c0.5,0.1,1.1,0.3,1.7,0.3c0.6,0.1,1,0.2,1.5,0.3c0.9,0.2,1.9,0.4,2.7,0.7c1.7,0.6,3.2,1.3,4.3,2.1c1.1,0.9,2,1.7,2.5,2.5
						c0.6,0.8,0.9,1.5,1.1,1.9c0.1,0.3,0.2,0.4,0.2,0.5s0,0.2,0,0.2l2.9-0.6c0,0,0-0.2-0.1-0.3C112,217.4,111.9,217.2,111.8,216.9z"
						/>
				</g>
				<g>
					<g>
						<path class="st2" d="M129.7,153c0,0-0.5,3.4,1.4,6.1c1.9,2.7,5.3,3.7,5.3,3.7s0.5-3.4-1.4-6.1C133.2,154,129.7,153,129.7,153z
							 M136.4,162.6L136.4,162.6c0,0-0.4-0.5-1.1-1.4c-0.3-0.4-0.7-0.9-1-1.5c-0.3-0.5-0.8-1.1-1.1-1.7c-1.5-2.3-3-4.5-3-4.5l0,0
							c0,0,1.6,2.2,3.2,4.4c0.4,0.5,0.8,1.1,1.2,1.6c0.3,0.5,0.7,1,0.9,1.5C136,162,136.4,162.6,136.4,162.6z"/>
					</g>
					<g>
						<path class="st2" d="M136.1,167.8c-3-1.5-6.6-0.7-6.6-0.7s1.4,3.2,4.4,4.7c3,1.5,6.6,0.7,6.6,0.7S139.1,169.3,136.1,167.8z
							 M140.3,172.4L140.3,172.4c0,0-0.7-0.3-1.6-0.7c-0.5-0.3-1-0.4-1.6-0.8c-0.6-0.3-1.2-0.6-1.8-0.9c-2.5-1.3-5-2.6-5-2.6l0,0
							c0,0,2.6,1.2,5.1,2.4c0.6,0.3,1.3,0.6,1.9,0.9c0.6,0.3,1.1,0.6,1.6,0.9C139.7,172,140.3,172.4,140.3,172.4z"/>
					</g>
					<g>
						<path class="st2" d="M132.3,175.8c0,0,0,3.4,2.2,5.9c2.2,2.5,5.8,3,5.8,3s0-3.4-2.2-5.9C135.9,176.3,132.3,175.8,132.3,175.8z
							 M140.2,184.4L140.2,184.4c0,0-0.5-0.4-1.3-1.2c-0.3-0.3-0.8-0.8-1.2-1.3c-0.4-0.5-0.9-1-1.4-1.5c-1.8-2.1-3.7-4.1-3.7-4.1
							l0,0c0,0,1.9,2,3.8,4c0.5,0.5,0.9,1,1.4,1.5c0.4,0.5,0.9,0.9,1.2,1.3C139.7,183.9,140.2,184.4,140.2,184.4z"/>
					</g>
					<g>
						<path class="st2" d="M120.7,193.7c0,0-1.6,3.1-0.8,6.2c0.9,3.2,3.8,5.1,3.8,5.1s1.6-3.1,0.8-6.2
							C123.7,195.8,120.7,193.7,120.7,193.7z M123.7,204.9c0,0-0.3-0.6-0.5-1.6c-0.2-0.5-0.3-1-0.5-1.6c-0.2-0.6-0.3-1.3-0.5-1.9
							c-0.7-2.7-1.3-5.2-1.3-5.2l0,0c0,0,0.8,2.6,1.5,5.2c0.2,0.7,0.3,1.3,0.5,1.9s0.3,1.2,0.4,1.7
							C123.6,204.2,123.7,204.9,123.7,204.9L123.7,204.9z"/>
					</g>
					<g>
						<path class="st2" d="M129.1,193.6c-2.6-2.1-6.2-2.2-6.2-2.2s0.5,3.4,3,5.6c2.6,2.1,6.2,2.2,6.2,2.2S131.6,195.7,129.1,193.6z
							 M131.9,199L131.9,199c0,0-0.6-0.3-1.5-1c-0.4-0.3-0.9-0.7-1.4-1.1c-0.5-0.4-1-0.9-1.5-1.4c-2.1-1.8-4.2-3.6-4.2-3.6l0,0
							c0,0,2.1,1.7,4.4,3.5c0.5,0.4,1.1,0.9,1.6,1.3s0.9,0.9,1.4,1.2C131.5,198.4,131.9,199,131.9,199z"/>
					</g>
					<g>
						<path class="st2" d="M132.9,189.6c-0.1,3.2,2.2,5.9,2.2,5.9s2.4-2.6,2.5-5.7c0.1-3.2-2.2-5.9-2.2-5.9S133,186.4,132.9,189.6z
							 M135.4,189.9c0,0.7,0,1.4,0,2s-0.1,1.2-0.1,1.7c-0.1,1-0.2,1.7-0.2,1.7l0,0c0,0-0.1-0.7-0.1-1.7c0-0.5,0-1.1,0-1.7
							s0.1-1.3,0.1-2c0.1-2.7,0.3-5.4,0.3-5.4l0,0C135.4,184.5,135.4,187.2,135.4,189.9z"/>
					</g>
					<g>
						<path class="st2" d="M112.8,202.5c-2.1,2.5-2.1,5.9-2.1,5.9s3.6-0.6,5.7-3.1c2.1-2.5,2.1-5.9,2.1-5.9S114.9,200,112.8,202.5z
							 M114.5,204.2c-0.4,0.5-0.9,1-1.3,1.5c-0.4,0.5-0.9,0.9-1.2,1.3c-0.7,0.8-1.2,1.2-1.2,1.2l0,0c0,0,0.4-0.6,1-1.4
							c0.3-0.4,0.7-0.9,1.1-1.4c0.4-0.5,0.9-1,1.4-1.5c1.9-2.1,3.7-4.1,3.7-4.1l0,0C118,199.9,116.3,202,114.5,204.2z"/>
					</g>
					<g>
						<path class="st2" d="M138.7,163c-0.6,3.2,1.3,6.2,1.3,6.2s2.8-2.2,3.3-5.4c0.6-3.2-1.3-6.2-1.3-6.2S139.3,159.8,138.7,163z
							 M141.1,163.6c-0.1,0.7-0.3,1.4-0.3,2s-0.3,1.2-0.3,1.7c-0.3,1-0.4,1.6-0.4,1.6l0,0c0,0,0.1-0.7,0.2-1.7
							c0.1-0.5,0.2-1.1,0.3-1.7c0.1-0.6,0.3-1.3,0.4-2c0.5-2.7,1.1-5.3,1.1-5.3l0,0C141.9,158.3,141.5,161,141.1,163.6z"/>
					</g>
					<g>
						<path class="st2" d="M142.4,172.1c-1.6,2.8-0.9,6.2-0.9,6.2s3.4-1.2,5-4s0.9-6.2,0.9-6.2S144,169.3,142.4,172.1z M144.4,173.5
							c-0.3,0.6-0.7,1.2-0.9,1.7c-0.3,0.5-0.7,1-0.9,1.5c-0.5,0.9-0.9,1.5-0.9,1.5l0,0c0,0,0.3-0.6,0.8-1.5c0.3-0.4,0.5-0.9,0.9-1.5
							c0.3-0.5,0.7-1.1,1-1.7c1.5-2.3,2.8-4.6,2.8-4.6l0,0C147.1,168.7,145.7,171.1,144.4,173.5z"/>
					</g>
					<g>
						<path class="st2" d="M144.3,184c-3.1,1.4-4.5,4.5-4.5,4.5s3.5,0.9,6.6-0.5c3.1-1.4,4.5-4.5,4.5-4.5S147.3,182.5,144.3,184z
							 M150.2,183.8c0,0-2.6,1.2-5.1,2.4c-0.6,0.3-1.3,0.6-1.9,0.9c-0.6,0.3-1.2,0.5-1.6,0.7c-0.9,0.4-1.6,0.6-1.6,0.6l0,0
							c0,0,0.6-0.3,1.5-0.8c0.5-0.3,1-0.5,1.6-0.8c0.6-0.3,1.3-0.5,1.9-0.8C147.6,184.9,150.2,183.8,150.2,183.8L150.2,183.8z"/>
					</g>
					<g>
						<path class="st2" d="M134.3,197.9c0,0,2.8,2.1,6.2,2.1c3.4-0.1,6.1-2.4,6.1-2.4s-2.8-2.1-6.2-2.1
							C137.1,195.5,134.3,197.9,134.3,197.9z M146,197.6c0,0-2.8,0.1-5.6,0.3c-0.7,0-1.5,0.1-2.1,0.1c-0.7,0-1.3,0-1.8,0
							c-1,0-1.8-0.1-1.8-0.1l0,0c0,0,0.7-0.1,1.8-0.2c0.5,0,1.1-0.1,1.8-0.1c0.7,0,1.4,0,2.1,0C143.1,197.6,146,197.5,146,197.6
							L146,197.6z"/>
					</g>
					<g>
						<path class="st2" d="M134.3,204.7c-3.1-1.4-6.6-0.5-6.6-0.5s1.5,3.2,4.5,4.5c3.1,1.4,6.6,0.5,6.6,0.5S137.3,206.1,134.3,204.7
							z M138.1,209c0,0-2.6-1.1-5.1-2.3c-0.7-0.3-1.3-0.6-1.9-0.9c-0.6-0.3-1.1-0.5-1.6-0.8c-0.9-0.5-1.5-0.9-1.5-0.9l0,0
							c0,0,0.7,0.3,1.6,0.7c0.5,0.2,1,0.4,1.6,0.7c0.6,0.3,1.2,0.6,1.9,0.9C135.6,207.8,138.1,209,138.1,209L138.1,209z"/>
					</g>
					<g>
						<path class="st2" d="M120.6,207.6c0,0,0,3.4,2.3,5.9c2.2,2.4,5.8,2.9,5.8,2.9s0-3.4-2.3-5.9
							C124.2,208.1,120.6,207.6,120.6,207.6z M128.2,215.9c0,0-1.9-2-3.8-4c-0.5-0.5-0.9-1-1.4-1.5c-0.4-0.5-0.9-0.9-1.2-1.3
							c-0.7-0.8-1.1-1.4-1.1-1.4l0,0c0,0,0.5,0.4,1.2,1.2c0.3,0.3,0.8,0.8,1.2,1.3c0.4,0.5,0.9,1,1.4,1.5
							C126.4,213.8,128.2,215.9,128.2,215.9L128.2,215.9z"/>
					</g>
					<path class="st9" d="M135.9,162.9c-1.1,0-2.1,0.9-2.1,2s0.9,2,2.1,2s2.1-0.9,2.1-2S137,162.9,135.9,162.9z M135.2,165.4
						c-0.4,0-0.7-0.3-0.7-0.7s0.3-0.7,0.7-0.7c0.4,0,0.7,0.3,0.7,0.7C135.9,165.2,135.5,165.4,135.2,165.4z"/>
					<path class="st9" d="M143.2,179.3c-1.1,0-2.1,0.9-2.1,2s0.9,2,2.1,2c1.1,0,2.1-0.9,2.1-2S144.4,179.3,143.2,179.3z
						 M142.5,181.9c-0.4,0-0.7-0.3-0.7-0.7c0-0.3,0.3-0.7,0.7-0.7c0.4,0,0.7,0.3,0.7,0.7C143.2,181.5,142.9,181.9,142.5,181.9z"/>
					<path class="st9" d="M134.3,199.4c-1.1,0-2.1,0.9-2.1,2s0.9,2,2.1,2c1.1,0,2.1-0.9,2.1-2S135.5,199.4,134.3,199.4z M133.7,202
						c-0.4,0-0.7-0.3-0.7-0.7s0.3-0.7,0.7-0.7c0.3,0,0.7,0.3,0.7,0.7S134,202,133.7,202z"/>
					<path class="st9" d="M116.6,209.6c-1.1,0-2.1,0.9-2.1,2c0,1.1,0.9,2,2.1,2s2.1-0.9,2.1-2C118.7,210.4,117.7,209.6,116.6,209.6z
						 M116,212.1c-0.4,0-0.7-0.3-0.7-0.7s0.3-0.7,0.7-0.7c0.3,0,0.7,0.3,0.7,0.7C116.6,211.8,116.3,212.1,116,212.1z"/>
					<path class="st11" d="M138.4,165.5c-0.5-0.9-1-1.6-1.4-2.1c-0.3-0.4-0.5-0.7-0.5-0.7s0.2,0.3,0.5,0.8
						C137.3,164,137.8,164.7,138.4,165.5c0.9,2,2.1,4.9,2.5,8.6c0.4,3.6,0.3,8-1.2,12.2c-0.7,2.1-1.7,4.3-2.9,6.3
						c-0.6,1-1.3,2.1-2.1,3c-0.3,0.5-0.8,0.9-1.2,1.5c-0.3,0.4-0.8,0.9-1.2,1.4c-1.7,1.7-3.7,3.2-5.7,4.5c-2.1,1.3-4.3,2.3-6.5,3.1
						c-2.2,0.8-4.4,1.4-6.5,1.7c-0.5,0.1-1,0.2-1.5,0.3c-0.5,0.1-1.1,0.2-1.6,0.3c-1.1,0.2-2.1,0.4-3.1,0.8c-2,0.6-3.7,1.5-5,2.5
						s-2.4,2.1-3.2,3.1c-0.8,0.9-1.2,1.9-1.5,2.5c-0.2,0.3-0.3,0.6-0.3,0.8c-0.1,0.2-0.1,0.3-0.1,0.3l2.9,0.6c0,0,0-0.1,0-0.2
						c0-0.1,0.1-0.3,0.2-0.5c0.2-0.4,0.5-1.1,1.1-1.9c0.6-0.8,1.4-1.6,2.5-2.5c1.1-0.9,2.6-1.5,4.3-2.1c0.9-0.3,1.8-0.5,2.7-0.7
						c0.5-0.1,0.9-0.2,1.5-0.3c0.5-0.1,1.1-0.2,1.7-0.3c2.2-0.5,4.5-1.2,6.8-2.1c2.3-0.9,4.6-2.1,6.8-3.5c2.1-1.5,4.2-3.2,5.9-5
						c0.4-0.5,0.9-0.9,1.3-1.5c0.3-0.5,0.8-0.9,1.1-1.5c0.8-1,1.4-2.1,2.1-3.2c1.2-2.2,2.1-4.4,2.7-6.8c1.3-4.5,1.3-9,0.6-12.6
						C140.7,170.3,139.4,167.4,138.4,165.5z"/>
				</g>
			</g>
			<g>
				<path class="st4" d="M126.9,154.3h10.9c-0.3,3.1-1.5,10.5-6.2,17.4c-5.7,8.7-14.9,10.6-15,10.6l0.6,2.8
					c0.4-0.1,10.5-2.1,16.9-11.9c6.3-9.6,6.7-19.9,6.7-20.4l0.1-1.5h-14.1L126.9,154.3L126.9,154.3z"/>
				<path class="st12" d="M79.4,145.1c0,0.1,0,0.1,0,0.2c0,27.1,10.9,49.1,24.3,49.1c13.4,0,24.3-22,24.3-49.1c0-0.1,0-0.1,0-0.2
					L79.4,145.1L79.4,145.1z"/>
				<path class="st12" d="M79.4,145.1c0,0.1,0,0.1,0,0.2c0,27.1,10.9,49.1,24.3,49.1c13.4,0,24.3-22,24.3-49.1c0-0.1,0-0.1,0-0.2
					L79.4,145.1L79.4,145.1z"/>
				<g>
					<path class="st12" d="M97.4,208.9c-4,8-7,8.2-7,8.2v1.8h-2.5v4.2h15.9v-28.4l-4.3,0.3C99.4,194.9,100.2,203.3,97.4,208.9z"/>
					<g>
						<path class="st4" d="M117.1,217.1c0,0-3-0.3-7-8.2c-2.8-5.6-2.1-13.9-2.1-13.9l-4.3-0.3v28.4h15.9v-4.2h-2.5V217.1z"/>
					</g>
				</g>
				<path class="st12" d="M75.2,171.9c-4.5-6.9-5.8-14.4-6.2-17.4h10.9v-2.9H65.8l0.1,1.5c0,0.4,0.3,10.8,6.7,20.4
					c6.4,9.8,16.5,11.8,16.9,11.9l0.6-2.8C90,182.4,80.9,180.6,75.2,171.9z"/>
				<g>
					<g>
						<path class="st4" d="M85.7,145.3h-1.3c0,0.1,0,0.1,0,0.2c0,15,2.7,28.4,6.9,37.4c-3.5-9-5.7-22.4-5.7-37.4
							C85.7,145.4,85.7,145.4,85.7,145.3z"/>
					</g>
					<g>
						<path class="st4" d="M118.1,145.3c0,0.1,0,0.1,0,0.2c0,26.1-6.7,47.4-15.1,49c0.4,0.1,0.9,0.1,1.3,0.1
							c10.9,0,19.8-22,19.8-49.1c0-0.1,0-0.1,0-0.2H118.1z"/>
					</g>
				</g>
				<path class="st4" d="M110.5,192.3H97.1c-0.9,0-1.5,0.7-1.5,1.5v2.2c0,0.9,0.7,1.5,1.5,1.5h13.4c0.9,0,1.5-0.7,1.5-1.5v-2.2
					C111.9,193,111.2,192.3,110.5,192.3z"/>
				<rect x="90.2" y="217.2" class="st12" width="26.8" height="2.1"/>
				<path class="st4" d="M128.4,143.5H79.2c-0.6,0-1.1,0.5-1.1,1.1s0.5,1.1,1.1,1.1h49.2c0.6,0,1.1-0.5,1.1-1.1
					S129,143.5,128.4,143.5z"/>
			</g>
		</g>
		<g>
			<path class="st11" d="M40,122.3c-3.8,3.8-6.2,7.4-5.3,8.1c0.8,0.8,4.4-1.6,8.1-5.3c3.8-3.8,6.2-7.4,5.3-8.1
				C47.4,116.1,43.7,118.5,40,122.3z"/>
			<path class="st13" d="M42.2,124.6c-3.4,3.2-5.6,6.6-4.8,7.4c0.8,0.9,4.3-1.1,7.7-4.4c3.4-3.2,5.6-6.6,4.8-7.4
				C49.1,119.3,45.7,121.3,42.2,124.6z"/>
			<path class="st14" d="M66.7,116.8c-0.8,0.8,1.6,4.4,5.3,8.1c3.8,3.8,7.4,6.2,8.1,5.3c0.8-0.8-1.6-4.4-5.3-8.1
				C71.1,118.4,67.5,116,66.7,116.8z"/>
			<path class="st13" d="M72.7,124.5c-3.4-3.2-6.8-5.2-7.7-4.4c-0.8,0.9,1.4,4.2,4.8,7.4c3.4,3.2,6.8,5.2,7.7,4.4
				C78.2,131.1,76.1,127.7,72.7,124.5z"/>
			
				<rect x="63.6" y="118.4" transform="matrix(0.7071 -0.7071 0.7071 0.7071 -67.0519 87.7912)" class="st15" width="17.8" height="12.8"/>
			<path class="st15" d="M70.3,125.8c-3.2-3.2-8.6-3.2-11.9,0l-6.1,6.1c-3.2,3.2-3.2,8.6,0,11.9l0.6,0.6c3.2,3.2,8.6,3.2,11.9,0
				l6.1-6.1c3.2-3.2,3.2-8.6,0-11.9L70.3,125.8z"/>
			
				<rect x="37.6" y="117.6" transform="matrix(0.7071 -0.7071 0.7071 0.7071 -76.5259 68.1385)" class="st16" width="12.8" height="17.8"/>
			<path class="st16" d="M58.1,127.5c-3.2-3.2-8.6-3.2-11.9,0l-0.6,0.6c-3.2,3.2-3.2,8.6,0,11.9l6.1,6.1c3.2,3.2,8.6,3.2,11.9,0
				l0.6-0.6c3.2-3.2,3.2-8.6,0-11.9L58.1,127.5z"/>
			<path class="st15" d="M60.2,123c-0.5,0.2-7.3,2.2-7.4,2.7c-0.2,0.5-2.1,5-2.1,5.8c-0.1,0.9,1.9,1.4,2.7,0.7
				c0.9-0.7,3-3.3,4.6-3.8c2-0.5,3.8-0.8,5.1-0.9c0.6,0,3.3-0.2,5.2-0.3l4.1-3.1c0,0-4.4-0.9-5.5-0.9
				C65.9,123.4,60.8,122.9,60.2,123z"/>
			<path class="st15" d="M50.9,135.3c-0.8-0.8-2.1-0.8-2.8,0l-4,4c-0.8,0.8-0.8,2.1,0,2.8c0.8,0.8,2.1,0.8,2.8,0l4-4
				C51.6,137.4,51.6,136.1,50.9,135.3L50.9,135.3z"/>
			<g>
				<path class="st16" d="M55.3,141.5c-0.8-0.8-2-0.8-2.7,0l-0.1,0.1c-0.8,0.8-0.8,2,0,2.7l5.7,5.7c0.8,0.8,2,0.8,2.7,0l0.1-0.1
					c0.8-0.8,0.8-2,0-2.7L55.3,141.5z"/>
				<path class="st16" d="M56.6,137.2c-0.8-0.8-2-0.8-2.7,0l-0.1,0.1c-0.8,0.8-0.8,2,0,2.7l8.1,8.1c0.8,0.8,2,0.8,2.7,0l0.1-0.1
					c0.8-0.8,0.8-2,0-2.7L56.6,137.2z"/>
				<path class="st16" d="M59.3,134.3c-0.8-0.8-2-0.8-2.7,0l-0.1,0.1c-0.8,0.8-0.8,2,0,2.7l8.1,8.1c0.8,0.8,2,0.8,2.7,0l0.1-0.1
					c0.8-0.8,0.8-2,0-2.7L59.3,134.3z"/>
				<path class="st16" d="M63.7,133.1c-0.8-0.8-2-0.8-2.7,0l-0.1,0.1c-0.8,0.8-0.8,2,0,2.7l5.7,5.7c0.8,0.8,2,0.8,2.7,0l0.1-0.1
					c0.8-0.8,0.8-2,0-2.7L63.7,133.1z"/>
			</g>
			<path class="st15" d="M52.1,136.9l-6,6c-0.8,0.8-0.8,2.1,0,2.8s2.1,0.8,2.8,0l6-6c0.8-0.8,0.8-2.1,0-2.8
				C54.1,136.1,52.8,136.1,52.1,136.9z"/>
			<path class="st15" d="M55,139.6l-6,6c-0.8,0.8-0.8,2.1,0,2.8c0.8,0.8,2.1,0.8,2.8,0l6-6c0.8-0.8,0.8-2.1,0-2.8
				C57,138.8,55.7,138.8,55,139.6z"/>
			<path class="st15" d="M59.3,143.7c-0.8-0.8-2.1-0.8-2.8,0l-4,4c-0.8,0.8-0.8,2.1,0,2.8c0.8,0.8,2.1,0.8,2.8,0l4-4
				C60,145.8,60,144.5,59.3,143.7L59.3,143.7z"/>
			<path class="st17" d="M65,120c0,0,1.6,0.5,7,5.5c4.3,3.9,5.3,6.6,5.3,6.6l8.3-8.1l-12.2-12.2L65,120z"/>
			<path class="st17" d="M29.3,124l8.3,8.1c0,0,1-2.7,5.3-6.6c5.4-4.9,7-5.5,7-5.5l-8.3-8.4L29.3,124z"/>
			<path class="st18" d="M33.2,128.1l4.4,4.2c0,0-1.1-2.7,0.3-5.3c1.4-2.6,9.9-8.8,9.9-8.8l-1.5-1.5L33.2,128.1z"/>
			<path class="st18" d="M67,118c0,0,8.6,6.2,9.9,8.8c1.4,2.6,0.3,5.3,0.3,5.3l4.4-4.2l-13.2-11.4L67,118z"/>
			<path class="st19" d="M75.9,107.5L75.9,107.5l-9.2,9.2c0,0,1.8,0.6,7.8,6.1c4.8,4.4,5.7,7.4,5.7,7.4l9.2-9.1
				c0.8-0.8-1.6-4.4-5.4-8.2C80.5,109.3,77,107,75.9,107.5z"/>
			<path class="st20" d="M38.9,107.6c-0.9-0.7-4.4,1.7-8.1,5.4c-3.6,3.6-6,7.2-5.5,8.1l0,0l0.1,0.1l0,0l0,0l9.2,9.2
				c0,0,0.9-3.1,5.7-7.4c6-5.5,7.8-6.1,7.8-6.1L38.9,107.6L38.9,107.6z"/>
			<path class="st11" d="M39.8,108.5l-0.9-0.9l0,0c-0.9-0.7-4.4,1.7-8.1,5.4c-3.6,3.6-6,7.2-5.5,8.1l0,0l0.1,0.1l0,0l0,0l9.2,9.2
				c0,0,0.3-0.8,1.1-2.1l0,0c0,0-5.6-6-5.5-8.9C30.5,116.4,35.7,109.9,39.8,108.5z"/>
			<path class="st20" d="M84.1,112.9c-3.7-3.7-7.3-6.1-8.1-5.4l0,0l-0.9,0.9c4.1,1.4,9.2,7.9,9.5,10.9c0.2,2.9-5.5,8.9-5.5,8.9l0,0
				c0.9,1.4,1.1,2.1,1.1,2.1l9.2-9.2l0,0l0,0l0.1-0.1l0,0C90.1,120.1,87.7,116.5,84.1,112.9z"/>
		</g>
		<g>
			<g>
				<path class="st21" d="M48.3,176.3H14.6c-1.5,0-2.8,1.3-2.8,2.8v41.3c0,1.5,1.3,2.8,2.8,2.8h33.7c1.5,0,2.8-1.3,2.8-2.8v-41.3
					C51.1,177.6,49.8,176.3,48.3,176.3z"/>
				<polygon class="st22" points="21.5,176.5 19.8,179.5 15.8,179.5 15.8,218.9 47,218.9 47,179.5 41.4,179.5 				"/>
				<rect x="16.4" y="180.1" class="st23" width="30.2" height="38.1"/>
				<path class="st24" d="M35.4,171.4h-7.9c-0.5,0-0.9,0.8-0.9,1.7s0.3,1.7,0.9,1.7h7.9c0.4,0,0.9-0.8,0.9-1.7
					C36.3,172.3,35.9,171.4,35.4,171.4z"/>
				<path class="st25" d="M39.8,174.2H23.2c-0.9,0-1.7,1-1.7,2.3v2.7c0,1.3,0.8,2.3,1.7,2.3h16.6c0.9,0,1.7-1,1.7-2.3v-2.7
					C41.5,175.2,40.7,174.2,39.8,174.2z"/>
				<path class="st24" d="M21.5,179.1c0,1.3,0.8,2.3,1.7,2.3h16.6c0.9,0,1.7-1,1.7-2.3v-0.5l-20-0.1V179.1z"/>
				<rect x="28.2" y="185.2" class="st24" width="15.6" height="1"/>
				<rect x="28.2" y="187.5" class="st24" width="7.4" height="1"/>
				<rect x="18.3" y="184.3" class="st26" width="6.2" height="6.2"/>
				<polygon class="st8" points="17.9,185.9 20.9,189.8 26.7,182.6 20.8,187 				"/>
				<rect x="28.2" y="193.5" class="st24" width="15.6" height="1.1"/>
				<rect x="28.2" y="196" class="st24" width="7.4" height="1.1"/>
				<rect x="18.3" y="193.4" class="st26" width="6.2" height="6.2"/>
				<polygon class="st8" points="17.9,194.9 20.9,198.9 26.7,191.7 20.8,196.1 				"/>
				<rect x="28.2" y="202.5" class="st24" width="15.6" height="1"/>
				<rect x="28.2" y="204.9" class="st24" width="7.4" height="1"/>
				<rect x="18.3" y="202.5" class="st26" width="6.2" height="6.2"/>
				<polygon class="st8" points="17.9,203.9 20.9,207.9 26.7,200.8 20.8,205.1 				"/>
			</g>
			<g>
				<path class="st19" d="M32.8,215.6l-1,1c-0.1,0.1-0.1,0.3,0,0.3c0.1,0.1,0.3,0.1,0.3,0l1-1c0.1-0.1,0.1-0.3,0-0.3
					C33.1,215.6,32.9,215.6,32.8,215.6z"/>
				<path class="st8" d="M44.4,201.1c-7.3,7.3-12.5,14-11.5,14.9c0.9,0.9,7.6-4.3,14.9-11.5c7.3-7.3,11.6-13.1,10.7-14
					C57.5,189.5,51.7,193.7,44.4,201.1z"/>
				<path class="st27" d="M57.5,190.3c-0.6,2.1-4.5,7.1-10.7,13.2c-6.2,6.2-11.8,10.8-14,11.5c-0.2,0.4-0.2,0.8,0,0.9
					c0.9,0.9,7.6-4.3,14.9-11.5c7.3-7.3,11.6-13.1,10.7-14C58.2,190.2,58,190.2,57.5,190.3z"/>
				<path class="st25" d="M32.8,216c0.4,0.4,2.1-0.4,4.5-2.3l-2.2-2.2C33.3,213.8,32.4,215.6,32.8,216z"/>
				<path class="st28" d="M58.7,189l-2.1,2.1c-0.3,0.3-0.3,0.8,0,1.1c0.3,0.3,0.8,0.3,1.1,0l2.1-2.1c0.3-0.3,0.3-0.8,0-1.1
					C59.5,188.7,59,188.7,58.7,189z"/>
				
					<rect x="55.6" y="190.3" transform="matrix(0.7071 -0.7071 0.7071 0.7071 -118.91 96.4809)" class="st25" width="2.7" height="2.9"/>
				
					<rect x="56.1" y="191.5" transform="matrix(0.7071 -0.7071 0.7071 0.7071 -119.0328 96.9132)" class="st29" width="2.7" height="1.4"/>
				<path class="st26" d="M54.8,191.4l-8,8c-0.3,0.3-0.3,0.8,0,1.1c0.3,0.3,0.8,0.3,1.1,0l8-8c0.3-0.3,0.3-0.8,0-1.1
					C55.7,191.1,55.1,191.1,54.8,191.4z"/>
			</g>
		</g>
		<g>
			<g>
				<path class="st8" d="M282.4,154.3C282.4,154.3,282.3,154.3,282.4,154.3c0-0.2,0-0.3,0-0.5c0-6.3-4.6-11.5-10.3-11.5
					c-1.6,0-3.2,0.4-4.5,1.2c-2.2-3.5-5.8-5.8-9.9-5.8c-4.8,0-8.9,3.1-10.9,7.6c-1.6-1.2-3.6-1.9-5.6-1.9c-5.6,0-10.1,5-10.1,11
					c0,5.6,3.9,10.3,8.9,10.9v0.1h42.4c2.7,0,5-2.5,5-5.5S285,154.3,282.4,154.3z"/>
				<path class="st30" d="M286,159.9h-42.4v-0.1c-5-0.6-8.9-5.3-8.9-10.9c0-1.2,0.2-2.4,0.5-3.5c-2.6,2-4.2,5.2-4.2,8.9
					c0,5.6,3.9,10.3,8.9,10.9v0.1h42.4c2.7,0,5-2.5,5-5.5v-0.1C286.8,159.9,286.5,159.9,286,159.9z"/>
			</g>
			<g>
				<path class="st2" d="M290.8,154.9c-1.1,0-2.1,0.3-3,1c-1-2.4-3.2-4-5.8-4c-2.2,0-4.1,1.2-5.3,3.1c-0.7-0.4-1.5-0.6-2.4-0.6
					c-3.1,0-5.5,2.7-5.5,6.2c0,0.1,0,0.2,0,0.3l0,0c-1.5,0-2.7,1.3-2.7,2.9c0,1.6,1.2,2.9,2.7,2.9h22.7l0,0c2.7-0.3,4.8-2.8,4.8-5.8
					C296.2,157.6,293.8,154.9,290.8,154.9z"/>
				<path class="st31" d="M294.7,163.4h-25.1c-1.1,0-2.1-0.7-2.6-1.7c-0.4,0.5-0.8,1.3-0.8,2.1c0,1.6,1.2,2.9,2.7,2.9h22.7l0,0
					c2-0.3,3.6-1.6,4.4-3.6C295.5,163.2,295,163.3,294.7,163.4L294.7,163.4z"/>
			</g>
			<g>
				<path class="st1" d="M255.7,163.4L255.7,163.4c0-0.1,0-0.3,0-0.3c0-4.4-3.2-7.9-7-7.9c-1.1,0-2.1,0.3-3.1,0.8
					c-1.5-2.4-4-3.9-6.8-3.9c-3.2,0-6.1,2.1-7.4,5.1c-1.1-0.9-2.4-1.3-3.8-1.3c-3.8,0-6.8,3.3-6.8,7.5c0,3.8,2.7,7,6.1,7.4v0.1h29
					c1.9,0,3.3-1.7,3.3-3.8C259,165.1,257.5,163.4,255.7,163.4z"/>
				<path class="st32" d="M258.5,166.7h-29v-0.1c-3.4-0.4-6.1-3.6-6.1-7.4c0-0.8,0.1-1.5,0.3-2.1c-1.9,1.4-3.2,3.7-3.2,6.3
					c0,3.8,2.7,7,6.1,7.4v0.1h29c1.9,0,3.3-1.7,3.3-3.8c0-0.2,0-0.3-0.1-0.5C258.9,166.6,258.7,166.7,258.5,166.7z"/>
			</g>
			<g>
				<path class="st19" d="M250.1,154.5H250c-1.1-0.3-2.2,0.8-2.5,2.4l-9.2,62.9c-0.3,1.7,0.5,3.3,1.7,3.7h0.2
					c1.1,0.3,2.2-0.8,2.5-2.4l9.2-62.9C252,156.5,251.2,154.8,250.1,154.5z"/>
				<path class="st19" d="M271.1,156.9c-0.3-1.6-1.4-2.7-2.5-2.4h-0.2c-1.2,0.3-2,2-1.7,3.7l9.2,62.9c0.3,1.6,1.4,2.7,2.5,2.4h0.2
					c1.2-0.3,2-2,1.7-3.7L271.1,156.9z"/>
				<path class="st20" d="M266.7,158.2l9.2,62.9c0.3,1.6,1.4,2.7,2.5,2.4l-10-69C267.2,154.8,266.5,156.5,266.7,158.2z"/>
				<path class="st20" d="M250.1,154.5l-10,69c1.1,0.3,2.2-0.8,2.5-2.4l9.2-62.9C252.1,156.5,251.3,154.8,250.1,154.5z"/>
				<path class="st20" d="M267.3,159.5H251c-1,0-1.8,0.9-1.8,1.8v0.9c0,1,0.9,1.8,1.8,1.8h16.3c1,0,1.8-0.9,1.8-1.8v-0.9
					C269.2,160.4,268.3,159.5,267.3,159.5z"/>
				<path class="st20" d="M270.5,177.7h-22.6c-1,0-1.8,0.9-1.8,1.8v0.9c0,1,0.9,1.8,1.8,1.8h22.6c1,0,1.8-0.9,1.8-1.8v-0.9
					C272.3,178.5,271.5,177.7,270.5,177.7z"/>
				<path class="st20" d="M273.1,195.8h-28c-1,0-1.8,0.9-1.8,1.8v0.9c0,1,0.9,1.8,1.8,1.8h28c1,0,1.8-0.9,1.8-1.8v-0.9
					C275,196.7,274.2,195.8,273.1,195.8z"/>
				<path class="st20" d="M275.4,213.9H243c-1,0-1.8,0.9-1.8,1.8v0.9c0,1,0.9,1.8,1.8,1.8h32.3c1,0,1.8-0.9,1.8-1.8v-0.9
					C277.2,214.8,276.3,213.9,275.4,213.9z"/>
				<path class="st19" d="M267.9,160.2h-17.5c-0.3,0-0.6,0.3-0.6,0.6v0.3c0,0.3,0.3,0.6,0.6,0.6h17.5c0.3,0,0.6-0.3,0.6-0.6v-0.3
					C268.5,160.5,268.3,160.2,267.9,160.2z"/>
				<path class="st19" d="M270.4,178.3h-22.5c-0.3,0-0.6,0.3-0.6,0.6v0.3c0,0.3,0.3,0.6,0.6,0.6h22.5c0.3,0,0.6-0.3,0.6-0.6v-0.3
					C271,178.5,270.7,178.3,270.4,178.3z"/>
				<path class="st19" d="M273.5,196.4h-28.6c-0.3,0-0.6,0.3-0.6,0.6v0.3c0,0.3,0.3,0.6,0.6,0.6h28.6c0.3,0,0.6-0.3,0.6-0.6V197
					C274.1,196.7,273.8,196.4,273.5,196.4z"/>
				<path class="st19" d="M275.9,214.6h-33.4c-0.3,0-0.6,0.3-0.6,0.6v0.3c0,0.3,0.3,0.6,0.6,0.6h33.4c0.3,0,0.6-0.3,0.6-0.6v-0.3
					C276.5,214.9,276.1,214.6,275.9,214.6z"/>
			</g>
		</g>
		<g>
			<g>
				<g>
					<path class="st7" d="M217.3,134.5c-0.3-0.1-0.8,0.2-0.9,0.5c-0.1,0.3,0.1,0.8,0.5,0.9c0.3,0.1,0.8-0.1,0.9-0.5
						C217.9,135,217.6,134.6,217.3,134.5z"/>
				</g>
				<g>
					<path class="st7" d="M215.9,138.5c-0.3-0.2-0.8,0-0.9,0.3s-0.1,0.8,0.3,0.9s0.8,0.1,0.9-0.3
						C216.3,139.1,216.3,138.7,215.9,138.5z"/>
				</g>
				<g>
					<path class="st7" d="M212.8,142.3c-0.3,0.3-0.2,0.8,0.2,1c0.3,0.3,0.8,0.2,1-0.2c0.3-0.3,0.2-0.8-0.2-0.9
						C213.4,141.9,213,142,212.8,142.3z"/>
				</g>
				<g>
					<path class="st7" d="M210,145.3c-0.3,0.3-0.3,0.7,0,1c0.3,0.3,0.7,0.3,1,0c0.3-0.3,0.3-0.7,0-1
						C210.8,145.1,210.4,145.1,210,145.3z"/>
				</g>
				<g>
					<path class="st7" d="M206.9,147.9c-0.3,0.3-0.4,0.7-0.2,0.9c0.2,0.3,0.7,0.4,0.9,0.2c0.3-0.3,0.4-0.7,0.2-0.9
						C207.6,147.7,207.2,147.7,206.9,147.9z"/>
				</g>
				<g>
					<path class="st7" d="M203.4,149.9c-0.3,0.2-0.5,0.5-0.4,0.9c0.2,0.3,0.5,0.5,0.9,0.4c0.3-0.2,0.5-0.6,0.4-0.9
						C204,150,203.7,149.7,203.4,149.9z"/>
				</g>
				<g>
					<path class="st7" d="M199.4,151c-0.3,0.1-0.6,0.4-0.6,0.8c0.1,0.3,0.4,0.7,0.8,0.6c0.4-0.1,0.7-0.4,0.6-0.8
						C200.2,151.2,199.8,150.9,199.4,151z"/>
				</g>
				<g>
					<path class="st7" d="M195.3,151.2c-0.3,0-0.7,0.3-0.7,0.7c0,0.4,0.3,0.7,0.7,0.7c0.4,0,0.8-0.3,0.7-0.7
						C196,151.6,195.7,151.2,195.3,151.2z"/>
				</g>
				<g>
					<path class="st7" d="M191.3,150.7c-0.3-0.1-0.8,0.2-0.9,0.5c-0.1,0.3,0.2,0.8,0.5,0.9c0.4,0.1,0.8-0.2,0.9-0.6
						C191.9,151.2,191.6,150.8,191.3,150.7z"/>
				</g>
				<g>
					<path class="st7" d="M187.3,149.7c-0.3-0.1-0.8,0.1-0.9,0.4c-0.2,0.3,0.1,0.8,0.4,0.9c0.3,0.1,0.8-0.1,0.9-0.4
						C187.9,150.2,187.6,149.8,187.3,149.7z"/>
				</g>
			</g>
			<polygon class="st7" points="214,135.5 219.9,137.1 218.5,129 			"/>
		</g>
		<g>
			<g>
				<g>
					<path class="st7" d="M22.7,138.2c-0.3,0.2-0.5,0.6-0.3,0.9c0.2,0.3,0.6,0.4,0.9,0.3c0.3-0.2,0.5-0.6,0.3-0.9
						S23.1,138.1,22.7,138.2z"/>
				</g>
				<g>
					<path class="st7" d="M19,140.6c-0.3,0.3-0.3,0.7-0.1,1c0.3,0.3,0.7,0.3,0.9,0.1c0.3-0.3,0.3-0.7,0.2-0.9
						C19.8,140.4,19.3,140.3,19,140.6z"/>
				</g>
				<g>
					<path class="st7" d="M15.8,143.5c-0.3,0.3-0.3,0.8,0.1,1c0.3,0.3,0.8,0.3,1-0.1c0.3-0.3,0.3-0.7-0.1-1
						C16.6,143.1,16.1,143.2,15.8,143.5z"/>
				</g>
				<g>
					<path class="st7" d="M13.2,146.9c-0.3,0.3-0.1,0.8,0.2,0.9c0.3,0.2,0.8,0.1,0.9-0.2c0.2-0.3,0.1-0.8-0.2-0.9
						C13.8,146.5,13.4,146.5,13.2,146.9z"/>
				</g>
				<g>
					<path class="st7" d="M12,150.4c-0.3-0.2-0.8,0-0.9,0.3c-0.2,0.3,0,0.8,0.3,0.9c0.3,0.2,0.8,0,0.9-0.3
						C12.6,151,12.4,150.6,12,150.4z"/>
				</g>
				<g>
					<path class="st7" d="M10.6,154.3c-0.3-0.1-0.8,0.2-0.9,0.5c-0.1,0.4,0.2,0.8,0.5,0.9s0.8-0.2,0.9-0.5
						C11.2,154.7,10.9,154.4,10.6,154.3z"/>
				</g>
				<g>
					<path class="st7" d="M10.1,158.5c-0.4,0-0.7,0.3-0.7,0.7c0,0.4,0.3,0.7,0.7,0.7c0.4,0,0.7-0.3,0.7-0.7
						C10.8,158.8,10.4,158.5,10.1,158.5z"/>
				</g>
				<g>
					<path class="st7" d="M10.5,162.7c-0.3,0.1-0.6,0.4-0.5,0.9c0.1,0.4,0.4,0.6,0.9,0.5c0.3-0.1,0.6-0.5,0.5-0.9
						C11.2,162.9,10.9,162.6,10.5,162.7z"/>
				</g>
				<g>
					<path class="st7" d="M11.6,166.7c-0.3,0.2-0.6,0.5-0.4,0.9c0.2,0.3,0.6,0.5,0.9,0.4c0.3-0.2,0.5-0.6,0.3-0.9
						C12.4,166.8,12,166.6,11.6,166.7z"/>
				</g>
				<g>
					<path class="st7" d="M13.3,170.6c-0.3,0.2-0.5,0.6-0.3,0.9c0.2,0.3,0.6,0.4,0.9,0.3c0.3-0.2,0.4-0.6,0.3-0.9
						C14.1,170.6,13.7,170.4,13.3,170.6z"/>
				</g>
			</g>
			<polygon class="st7" points="23.3,142 28.9,136.4 20.6,136.4 			"/>
		</g>
		<g>
			<g>
				<path class="st12" d="M218.8,90.5c-5.8,0-10.5,4.8-10.5,10.7c0,3,1.2,5.6,3.2,7.6c0.9,0.9,1.5,1.3,2.1,2.3
					c0.4,0.7,0.8,2.1,0.8,2.8c0,0.9,0,3.8,0,3.8h9.1V114c0,0,0.3-2.2,0.7-2.8c0.5-0.9,1-1.3,1.8-2c2.2-2,3.6-4.8,3.6-8
					C229.3,95.3,224.6,90.5,218.8,90.5z"/>
				<path class="st10" d="M218.8,100L218.8,100c-0.1,0-0.3-0.2-0.3-0.3c-0.2-0.3-0.4-0.6-0.9-0.6l0,0c-0.4,0-0.8,0.3-0.9,0.6
					c-0.1,0.2-0.3,0.3-0.3,0.3c0,0-0.3,0-0.3-0.1c-0.4-0.1-0.9-0.3-1.3,0.1c-0.3,0.3-0.3,0.8,0,1.5c2.1,6.8,2.2,7.6,2.2,7.6
					c0,0.1,0.1,0.2,0.2,0.2l0,0c0.1,0,0.2-0.1,0.2-0.3c0,0-0.2-0.8-2.2-7.7c-0.3-0.8-0.2-1-0.1-1.1c0.2-0.2,0.6-0.1,0.9,0
					c0.2,0.1,0.3,0.1,0.5,0.1c0.3,0,0.4-0.3,0.6-0.4c0.2-0.3,0.4-0.5,0.7-0.5l0,0c0.3,0,0.4,0.3,0.6,0.4c0.2,0.3,0.3,0.5,0.7,0.5
					c0.1,0,0.2-0.1,0.2-0.2C219,100.1,218.9,100,218.8,100z"/>
				<path class="st10" d="M221.7,99.9c-0.1,0-0.3,0.1-0.3,0.1c-0.1,0-0.3-0.2-0.3-0.3c-0.3-0.3-0.5-0.6-0.9-0.6l0,0
					c-0.4,0-0.7,0.3-0.9,0.6c-0.2,0.2-0.3,0.3-0.3,0.3l0,0c-0.1,0-0.2,0.1-0.2,0.2s0.1,0.2,0.2,0.2c0.3,0,0.5-0.3,0.7-0.5
					c0.2-0.3,0.3-0.4,0.6-0.4l0,0c0.3,0,0.5,0.3,0.7,0.5c0.2,0.3,0.3,0.4,0.6,0.4c0.1,0,0.3,0,0.5-0.1c0.3-0.1,0.8-0.2,0.9,0
					c0.1,0.1,0.2,0.3-0.1,1.1c-2.1,6.8-2.3,7.6-2.3,7.7c0,0.1,0,0.2,0.2,0.3l0,0c0.1,0,0.2-0.1,0.2-0.2c0,0,0.2-0.9,2.3-7.6
					c0.3-0.8,0.2-1.2,0-1.5C222.7,99.7,222.2,99.8,221.7,99.9z"/>
				<path class="st33" d="M218.8,108.5c-1.3,0-2.2,0-2.2,1.5v6.1c0,1.5,4.5,1.5,4.5,0V110C221.1,108.5,220,108.5,218.8,108.5z"/>
				<rect x="218.1" y="103.5" class="st33" width="1.3" height="4.9"/>
				<path class="st33" d="M219.4,103.4H218c-0.1,0-0.2,0.1-0.2,0.2c0,0.1,0.1,0.2,0.2,0.2h1.5c0.1,0,0.2-0.1,0.2-0.2
					C219.6,103.4,219.5,103.4,219.4,103.4z"/>
				<path class="st8" d="M214.3,120.2c0,2.5,3.2,4.5,4.5,4.5c1.2,0,4.5-2.1,4.5-4.5v-3.8h-9.1L214.3,120.2L214.3,120.2z"/>
				<path class="st34" d="M219.6,123.7h-1.5c-0.2,0-0.3,0.3-0.3,0.6s0.2,0.6,0.3,0.6h1.5c0.2,0,0.3-0.3,0.3-0.6
					C219.9,124,219.8,123.7,219.6,123.7z"/>
				<path class="st35" d="M222.9,117l-8.3,0.4c-0.2,0-0.3,0.2-0.3,0.4c0,0.2,0.2,0.3,0.4,0.3l8.3-0.4c0.2,0,0.3-0.2,0.3-0.4
					C223.3,117.1,223.1,117,222.9,117z"/>
				<path class="st35" d="M222.9,118.3l-8.3,0.4c-0.2,0-0.3,0.2-0.3,0.4c0,0.2,0.2,0.3,0.4,0.3l8.3-0.4c0.2,0,0.3-0.2,0.3-0.4
					C223.3,118.5,223.1,118.3,222.9,118.3z"/>
				<path class="st35" d="M222.9,119.7l-8.3,0.4c-0.2,0-0.3,0.2-0.3,0.4c0,0.2,0.2,0.3,0.4,0.3l8.3-0.4c0.2,0,0.3-0.2,0.3-0.4
					C223.3,119.9,223.1,119.7,222.9,119.7z"/>
				<path class="st36" d="M219.9,108.9c-0.3,0-0.6,0.3-0.6,0.6v6c0,0.3,0.3,0.6,0.6,0.6c0.3,0,0.6-0.3,0.6-0.6v-6
					C220.5,109.2,220.3,108.9,219.9,108.9z"/>
				<path class="st36" d="M219,104.1c-0.1,0-0.3,0.1-0.3,0.2v3.7c0,0.1,0.1,0.3,0.3,0.3c0.1,0,0.3-0.1,0.3-0.3v-3.7
					C219.2,104.2,219.1,104.1,219,104.1z"/>
				<path class="st10" d="M217.7,124.4c0,0.3,0.2,0.6,0.3,0.6h1.5c0.2,0,0.3-0.3,0.3-0.6c0.9-0.4,2-1.1,2.7-2.1h-7.5
					C215.8,123.3,216.9,124,217.7,124.4z"/>
				<path class="st4" d="M223.9,93.9c-1.2,0.5-1.4,2.7-0.4,4.8c0.9,2.1,2.7,3.4,3.8,2.9c1.2-0.5,1.4-2.7,0.4-4.8
					C226.8,94.6,225.1,93.3,223.9,93.9z"/>
			</g>
			<g>
				<path class="st4" d="M207.1,97.7h-4.6c-0.1,0-0.2,0.1-0.2,0.2s0.1,0.2,0.2,0.2h4.6c0.1,0,0.2-0.1,0.2-0.2
					C207.3,97.8,207.2,97.7,207.1,97.7z"/>
				<path class="st4" d="M235.2,97.7h-4.6c-0.1,0-0.2,0.1-0.2,0.2s0.1,0.2,0.2,0.2h4.6c0.1,0,0.2-0.1,0.2-0.2S235.2,97.7,235.2,97.7
					z"/>
				<path class="st4" d="M232.4,90.6l-3.7,3.4c-0.1,0.1-0.1,0.2,0,0.3l0.1,0.1h0.1l3.7-3.4c0.1-0.1,0.1-0.2,0-0.3
					C232.6,90.6,232.5,90.6,232.4,90.6z"/>
				<path class="st4" d="M228.4,86.5l-2.5,4.8c0,0.1,0,0.2,0.1,0.2h0.1c0.1,0,0.1,0,0.2-0.1l2.5-4.8c0-0.1,0-0.2-0.1-0.2
					C228.6,86.4,228.4,86.4,228.4,86.5z"/>
				<path class="st4" d="M224,83.9c-0.1,0-0.2,0-0.2,0.1l-1.3,5.4c0,0.1,0,0.2,0.1,0.2l0,0c0.1,0,0.2-0.1,0.2-0.1l1.3-5.4
					C224.1,84,224.1,83.9,224,83.9z"/>
				<path class="st4" d="M218.7,83.2c-0.1,0-0.2,0.1-0.2,0.2V89c0,0.1,0.1,0.2,0.2,0.2s0.2-0.1,0.2-0.2v-5.6
					C218.8,83.3,218.7,83.2,218.7,83.2z"/>
				<path class="st4" d="M232.2,94.5l-2.5,1.4c-0.1,0-0.1,0.2-0.1,0.2c0,0.1,0.1,0.1,0.2,0.1h0.1l2.5-1.4c0.1,0,0.1-0.2,0.1-0.2
					C232.3,94.5,232.3,94.4,232.2,94.5z"/>
				<path class="st4" d="M229.3,90.2l-1.9,2.4c-0.1,0.1,0,0.2,0,0.3h0.1c0.1,0,0.1,0,0.1-0.1l1.9-2.4c0.1-0.1,0-0.2,0-0.3
					C229.4,90.1,229.3,90.1,229.3,90.2z"/>
				<path class="st4" d="M225.7,87.3c-0.1,0-0.2,0-0.2,0.1l-1.2,3c0,0.1,0,0.2,0.1,0.2c0,0,0,0,0.1,0s0.1,0,0.2-0.1l1.2-3
					C225.8,87.4,225.8,87.3,225.7,87.3z"/>
				<path class="st4" d="M221.1,85.7c-0.1,0-0.2,0.1-0.2,0.2l-0.3,3.2c0,0.1,0.1,0.2,0.2,0.2l0,0c0.1,0,0.2-0.1,0.2-0.2l0.3-3.2
					C221.1,85.8,221.1,85.7,221.1,85.7z"/>
				<path class="st4" d="M205.2,90.6c-0.1-0.1-0.2-0.1-0.3,0c-0.1,0.1-0.1,0.2,0,0.3l3.7,3.4h0.1c0,0,0.1,0,0.1-0.1
					c0.1-0.1,0.1-0.2,0-0.3L205.2,90.6z"/>
				<path class="st4" d="M209.3,86.5c0-0.1-0.2-0.1-0.2-0.1c-0.1,0-0.1,0.2-0.1,0.2l2.5,4.8c0,0.1,0.1,0.1,0.2,0.1h0.1
					c0.1,0,0.1-0.2,0.1-0.2L209.3,86.5z"/>
				<path class="st4" d="M213.6,83.9c-0.1,0-0.2,0.1-0.1,0.2l1.3,5.4c0,0.1,0.1,0.1,0.2,0.1l0,0c0.1,0,0.2-0.1,0.1-0.2l-1.3-5.4
					C213.8,84,213.7,83.9,213.6,83.9z"/>
				<path class="st4" d="M205.4,94.5c-0.1,0-0.2,0-0.2,0.1c0,0.1,0,0.2,0.1,0.2l2.5,1.4h0.1c0.1,0,0.1,0,0.2-0.1
					c0-0.1,0-0.2-0.1-0.2L205.4,94.5z"/>
				<path class="st4" d="M208.3,90.2c-0.1-0.1-0.2-0.1-0.3,0c-0.1,0.1-0.1,0.2,0,0.3l1.9,2.4l0.1,0.1h0.1c0.1-0.1,0.1-0.2,0-0.3
					L208.3,90.2z"/>
				<path class="st4" d="M212,87.3c-0.1,0-0.1,0.1-0.1,0.2l1.2,3c0,0.1,0.1,0.1,0.2,0.1c0,0,0,0,0.1,0s0.1-0.1,0.1-0.2l-1.2-3
					C212.2,87.3,212.1,87.3,212,87.3z"/>
				<path class="st4" d="M216.6,85.7c-0.1,0-0.2,0.1-0.2,0.2l0.3,3.2c0,0.1,0.1,0.2,0.2,0.2l0,0c0.1,0,0.2-0.1,0.2-0.2l-0.3-3.2
					C216.8,85.7,216.7,85.7,216.6,85.7z"/>
			</g>
		</g>
	</g>
</g>
</svg>
